<svg width="52" height="52" viewBox="0 0 52 52" fill="none" xmlns="http://www.w3.org/2000/svg">
<path d="M20.3091 36.6861H2.16894C0.692408 36.6861 0 35.9967 0 34.5155V2.18588C0 0.667992 0.677123 0 2.21479 0H34.4905C36.0114 0 36.6961 0.681749 36.6961 2.19811C36.6961 8.21615 36.6961 14.2357 36.7084 20.2538C36.713 20.647 36.8149 21.033 37.0049 21.3773C41.5618 29.3922 46.13 37.3994 50.7094 45.399C51.2963 46.4247 51.5607 47.4764 51.2168 48.6335C50.9901 49.3989 50.5289 50.0738 49.8981 50.5631C49.2674 51.0524 48.499 51.3313 47.7013 51.3605C47.5668 51.3605 47.4338 51.3605 47.2993 51.3605C37.7829 51.3605 28.2665 51.3605 18.7501 51.3605C16.6316 51.3605 15.1077 50.1468 14.7362 48.1719C14.5528 47.2043 14.8172 46.3223 15.2957 45.4861C16.8608 42.753 18.423 40.0179 19.982 37.2807C20.0722 37.1248 20.1624 36.9582 20.3091 36.6861ZM23.8522 3.69154C23.8522 6.11434 23.8522 8.48212 23.8522 10.8484C23.8522 12.4289 22.5056 13.2712 21.0856 12.591C20.3122 12.221 19.5418 11.8389 18.7929 11.4338C18.6685 11.3513 18.523 11.3061 18.3738 11.3037C18.2245 11.3012 18.0777 11.3416 17.9507 11.4201C17.2139 11.8206 16.4558 12.1844 15.7007 12.5497C14.1722 13.2987 12.8485 12.4656 12.8394 10.7704C12.8394 8.61205 12.8394 6.45318 12.8394 4.2938V3.69918H3.70354V33.0052C3.84417 33.0052 3.95575 33.022 4.06733 33.022C10.0483 33.022 16.0278 33.022 22.0073 33.0343C22.3986 33.0343 22.53 32.8325 22.6844 32.5619C24.9038 28.6656 27.1537 24.786 29.3379 20.8698C30.1603 19.3947 31.2394 18.4118 32.9926 18.3323V3.69154H23.8522ZM18.3328 47.6231H47.7242C47.5714 47.3281 47.4644 47.1263 47.3528 46.9306C42.7265 38.8281 38.1003 30.7256 33.4741 22.6231C33.3504 22.4417 33.2118 22.2709 33.0598 22.1125C32.8857 22.2666 32.7284 22.4388 32.5906 22.6261C27.9674 30.7093 23.3483 38.795 18.7332 46.8833C18.6079 47.0942 18.4948 47.3143 18.3328 47.6231ZM16.5429 8.08775C17.755 7.13391 18.9426 7.14461 20.144 8.07246V3.71141H16.5429V8.08775Z" fill="#FF5722"/>
<path d="M34.8605 33.9975C34.8605 34.8566 34.8681 35.7172 34.8605 36.5763C34.8498 37.6998 34.0855 38.5206 33.04 38.5206C31.9945 38.5206 31.2058 37.7105 31.1951 36.5992C31.185 34.823 31.185 33.0462 31.1951 31.269C31.1951 30.1547 31.993 29.343 33.04 29.3506C34.0871 29.3583 34.8498 30.1761 34.8589 31.2996C34.8681 32.2014 34.8605 33.1003 34.8605 33.9975Z" fill="#FF5722"/>
<path d="M33.0435 40.3623C33.4071 40.3651 33.7616 40.4758 34.062 40.6805C34.3625 40.8852 34.5954 41.1745 34.7311 41.5118C34.8668 41.849 34.8992 42.219 34.8243 42.5748C34.7493 42.9305 34.5704 43.256 34.3101 43.5098C34.0498 43.7636 33.72 43.9344 33.3625 44.0004C33.005 44.0664 32.636 44.0247 32.3022 43.8805C31.9685 43.7363 31.6851 43.4963 31.4881 43.1907C31.291 42.8852 31.1892 42.528 31.1956 42.1645C31.2076 41.6824 31.4075 41.224 31.7528 40.8873C32.0981 40.5506 32.5613 40.3622 33.0435 40.3623Z" fill="#FF5722"/>
</svg>
