<svg width="1366" height="614" viewBox="0 0 1366 614" fill="none" xmlns="http://www.w3.org/2000/svg">
<g style="mix-blend-mode:multiply" opacity="0.4" clip-path="url(#clip0_2_3642)">
<path d="M875.036 549.462C880.203 549.111 885.332 548.333 890.37 547.134C900.649 544.663 910.009 540.412 918.188 534.496C926.979 528.141 934.495 519.792 940.528 509.683C952.659 489.364 957.782 465.689 962.735 442.782C963.709 438.285 964.715 433.637 965.752 429.122C972.827 398.348 982.618 371.14 995.685 345.945C1021.75 295.677 1060.28 251.651 1107.09 218.608C1161.24 180.397 1220.82 159.082 1274.9 158.591C1306.68 158.301 1349.77 173.675 1370.64 203.619C1383.03 221.389 1385.36 241.905 1377.39 262.951L1377.58 263.024C1381.75 251.988 1383.16 241.119 1381.73 230.719C1380.42 221.179 1376.75 212.021 1370.81 203.5C1361.36 189.936 1346.54 178.385 1327.94 170.067C1310.75 162.379 1291.91 158.231 1274.9 158.385C1246.6 158.644 1216.9 164.536 1186.62 175.895C1159.17 186.198 1132.37 200.508 1106.98 218.435C1060.13 251.513 1021.59 295.561 995.504 345.86C982.427 371.073 972.63 398.296 965.553 429.086C964.515 433.603 963.515 438.252 962.535 442.75C957.584 465.628 952.464 489.287 940.352 509.578C928.638 529.202 911.807 541.77 890.323 546.933C860.572 554.086 823.281 546.085 790.562 525.535C743.416 495.919 708.954 450.43 675.626 406.428C669.784 398.716 663.744 390.742 657.778 383.051C642.289 363.08 621.395 337.259 597.143 314.649C572.341 291.54 547.624 275.015 521.577 264.129C505.787 257.505 489.049 253.418 471.983 252.022C456.312 250.757 439.888 251.756 423.166 254.995C394.484 260.552 364.017 272.715 330.017 292.18C263.076 330.505 196.708 375.983 132.76 427.352C71.9773 476.179 12.8244 530.752 -43.0296 589.559L-42.8818 589.699C72.9214 467.809 198.417 367.76 330.121 292.358C404.527 249.759 465.339 240.851 521.498 264.32C578.631 288.198 620.688 335.556 657.624 383.175C663.588 390.866 669.628 398.84 675.47 406.55C708.808 450.562 743.282 496.073 790.461 525.705C805.706 535.283 822.601 542.403 839.316 546.298C848.147 548.36 856.864 549.493 865.224 549.681C868.547 549.76 871.817 549.687 875.036 549.462Z" fill="url(#paint0_linear_2_3642)"/>
<path d="M869.05 538.334C882.57 537.389 894.918 533.938 905.75 528.075C917.835 521.536 927.992 512.003 935.938 499.74C936.641 498.66 937.335 497.533 938.003 496.409C949.986 476.193 955.436 452.789 960.701 430.163C961.766 425.591 962.866 420.861 963.998 416.267C970.725 388.915 979.435 364.614 990.62 341.978C991.998 339.191 993.431 336.395 994.883 333.667C1021.41 283.779 1060.31 240.255 1107.37 207.769C1161.95 170.113 1221.77 149.491 1275.79 149.704C1307.37 149.85 1350.29 165.539 1371.23 195.235C1383.76 213.018 1386.48 233.544 1379.09 254.613L1379.28 254.682C1383.16 243.642 1384.31 232.77 1382.7 222.371C1381.22 212.82 1377.42 203.648 1371.4 195.124C1361.87 181.601 1347.09 170.024 1328.65 161.641C1311.61 153.895 1292.84 149.586 1275.81 149.505C1247.52 149.394 1217.76 154.925 1187.36 165.944C1159.82 175.925 1132.87 189.943 1107.26 207.607C1060.17 240.112 1021.26 283.673 994.711 333.578C993.253 336.308 991.825 339.104 990.447 341.893C979.252 364.544 970.54 388.858 963.809 416.227C962.688 420.82 961.576 425.55 960.513 430.125C955.251 452.734 949.81 476.115 937.837 496.311C937.17 497.434 936.477 498.554 935.776 499.636C919.353 524.98 895.159 536.515 868.997 538.344L869.061 538.339L869.05 538.334ZM863.459 538.58C839.049 539.031 813.29 531.438 790.794 519.036C742.246 492.158 705.612 447.971 670.184 405.237C668.726 403.476 667.267 401.717 665.809 399.961C662.606 396.101 658.81 391.536 654.938 386.935C637.574 366.297 616.631 342.35 592.956 321.124C567.767 298.541 543.039 282.205 517.355 271.182C501.748 264.463 485.241 260.066 468.361 258.131C452.859 256.376 436.633 256.707 420.134 259.118C391.629 263.281 361.392 273.624 327.692 290.73C294.832 307.396 267.941 322.801 243.064 339.212C207.826 362.48 174.546 388.775 146.639 411.43C81.7693 464.239 18.6384 523.465 -41.0013 587.465L-40.8515 587.605C18.7826 523.611 81.9058 464.392 146.762 411.59C174.665 388.938 207.94 362.645 243.171 339.384C268.042 322.978 294.927 307.577 327.788 290.913C401.201 253.622 461.412 247.413 517.27 271.359C575.257 296.253 618.652 344.138 654.772 387.069C658.642 391.669 662.438 396.234 665.641 400.092L670.016 405.368C705.455 448.116 742.101 492.321 790.685 519.216C802.564 525.787 815.223 530.835 828.364 534.239C840.435 537.339 852.213 538.793 863.459 538.58Z" fill="url(#paint1_linear_2_3642)"/>
<path d="M862.549 527.506C864.174 527.392 865.788 527.243 867.39 527.06C880.856 525.519 893.14 521.549 903.899 515.245C915.666 508.356 925.602 498.679 933.421 486.471C934.116 485.392 934.806 484.261 935.469 483.132C947.323 463.012 953.083 439.913 958.651 417.556C959.811 412.899 961.012 408.081 962.241 403.403C969.401 376.103 978.394 351.973 989.738 329.625C991.14 326.862 992.601 324.086 994.077 321.377C1021.07 271.89 1060.34 228.849 1107.64 196.919C1162.67 159.817 1222.71 139.889 1276.69 140.806C1307.08 141.361 1349.8 155.998 1371.78 186.81C1384.48 204.612 1387.59 225.17 1380.76 246.267L1380.96 246.331C1384.53 235.279 1385.43 224.4 1383.65 213.984C1381.99 204.411 1378.06 195.23 1371.96 186.68C1362.34 173.199 1347.6 161.611 1329.33 153.172C1312.44 145.371 1293.75 140.903 1276.7 140.59C1248.43 140.111 1218.6 145.281 1188.08 155.953C1160.45 165.615 1133.35 179.337 1107.53 196.739C1060.21 228.689 1020.91 271.75 993.906 321.269C992.429 323.98 990.968 326.756 989.564 329.524C978.215 351.889 969.217 376.035 962.051 403.342C960.822 408.02 959.624 412.84 958.459 417.497C952.895 439.831 947.14 462.924 935.309 483.022C934.645 484.147 933.957 485.267 933.274 486.351C901.475 535.943 838.928 535.23 791.04 512.527C740.735 488.442 701.588 445.306 663.729 403.59L663.341 403.161C659.674 399.117 655.882 394.938 652.111 390.813C612.312 347.292 568.801 302.75 513.149 278.225C497.719 271.411 481.443 266.705 464.758 264.232C449.421 261.985 433.394 261.648 417.12 263.233C388.749 265.993 358.744 274.529 325.387 289.296C290.329 304.781 264.096 318.599 240.334 334.095C206.478 356.212 174.088 383.435 145.503 407.454C81.8962 461.193 19.8341 521.058 -38.9583 585.388L-38.8063 585.526C19.9701 521.205 82.0366 461.344 145.636 407.61C174.207 383.596 206.593 356.378 240.437 334.267C264.177 318.783 290.417 304.969 325.458 289.489C397.763 257.455 457.373 253.938 513.06 278.419C568.675 302.93 612.169 347.454 651.95 390.956C655.721 395.081 659.513 399.261 663.18 403.305L663.57 403.733C682.435 424.521 701.945 446.017 722.714 464.983C746.051 486.298 768.371 501.911 790.942 512.717C814.548 523.914 839.773 529.098 862.549 527.506Z" fill="url(#paint2_linear_2_3642)"/>
<path d="M-36.777 583.446C21.1659 518.788 82.1537 458.297 144.488 403.631C147.128 401.331 149.776 399.022 152.432 396.704C179.431 373.125 207.367 348.747 237.682 329.151C267.097 310.19 297.381 297.737 323.126 288.056C394.181 261.2 453.19 260.379 508.834 285.47C565.96 311.314 612.062 357.621 649.106 394.849C651.323 397.084 653.545 399.32 655.772 401.559L660.697 406.521C681.792 427.733 700.953 446.681 721.856 463.727C745.734 483.203 768.408 497.104 791.177 506.225C812.519 514.775 834.936 518.522 855.446 517.089C859.183 516.827 862.85 516.394 866.446 515.788C879.563 513.57 891.534 509.086 902.033 502.436C913.48 495.189 923.203 485.35 930.905 473.206C931.594 472.127 932.277 470.993 932.938 469.864C944.639 449.856 950.703 427.044 956.571 404.984C957.834 400.233 959.141 395.322 960.475 390.543C968.074 363.307 977.353 339.343 988.844 317.281C990.275 314.537 991.758 311.782 993.264 309.096C1020.72 259.991 1060.36 217.452 1107.9 186.076C1163.39 149.526 1223.65 130.291 1277.58 131.906C1314.46 133.084 1353.41 152.181 1372.32 178.35C1385.2 196.178 1388.7 216.785 1382.46 237.921L1382.66 237.977C1385.93 226.909 1386.58 216.014 1384.58 205.596C1382.75 196.005 1378.68 186.796 1372.49 178.23C1362.78 164.792 1348.09 153.205 1329.99 144.713C1313.26 136.864 1294.65 132.24 1277.59 131.697C1249.32 130.849 1219.45 135.656 1188.8 145.983C1161.08 155.326 1133.82 168.752 1107.8 185.891C1060.23 217.29 1020.57 259.855 993.089 308.988C991.585 311.676 990.096 314.434 988.666 317.178C977.167 339.253 967.883 363.232 960.281 390.49C958.946 395.265 957.638 400.181 956.375 404.934C950.514 426.989 944.451 449.778 932.766 469.763C932.107 470.887 931.425 472.009 930.732 473.096C897.569 525.375 834.867 523.518 791.249 506.043C739.208 485.197 697.573 443.326 660.827 406.384C659.185 404.731 657.543 403.078 655.901 401.424C653.683 399.184 651.462 396.946 649.236 394.712C628.091 373.468 607.235 352.846 584.58 334.089C558.527 312.51 533.771 296.549 508.902 285.298C493.645 278.382 477.599 273.361 461.121 270.347C445.942 267.607 430.113 266.6 414.074 267.361C385.787 268.697 356.011 275.404 323.049 287.864C297.295 297.547 266.998 310.008 237.567 328.977C207.237 348.579 179.305 372.965 152.291 396.549C149.638 398.866 146.991 401.175 144.35 403.476C82.0134 458.148 21.0141 518.652 -36.935 583.309L-36.777 583.446Z" fill="url(#paint3_linear_2_3642)"/>
<path d="M-34.7317 581.362C23.457 515.148 83.3731 454.011 143.357 399.645C146.946 396.393 150.618 393.042 154.165 389.802C179.585 366.602 205.87 342.612 234.944 324.03C263.978 305.529 294.64 294.737 320.804 286.621C390.44 264.849 448.844 266.728 504.622 292.53C557.827 317.233 600.931 356.958 642.617 395.375L647.193 399.59C650.808 402.922 654.546 406.368 658.23 409.745C699.939 447.923 741.501 483.532 791.428 499.741C803.308 503.629 815.611 506.076 828.074 507.031C841.177 508.001 853.78 507.147 865.534 504.489C878.3 501.603 889.958 496.597 900.189 489.621C911.319 482.028 920.807 472.04 928.411 459.937C929.095 458.842 929.773 457.717 930.425 456.591C941.97 436.709 948.334 414.204 954.49 392.446C955.863 387.59 957.284 382.561 958.733 377.686C966.774 350.499 976.339 326.703 987.975 304.932C989.433 302.212 990.943 299.48 992.473 296.809C1020.39 248.09 1060.4 206.049 1108.18 175.227C1164.11 139.244 1224.59 120.705 1278.48 123.017C1315.05 124.679 1353.85 143.942 1372.82 169.864C1385.9 187.726 1389.82 208.377 1384.15 229.584L1384.34 229.636C1387.31 218.54 1387.7 207.623 1385.51 197.189C1383.49 187.569 1379.28 178.335 1372.99 169.745C1363.19 156.363 1348.55 144.783 1330.64 136.255C1314.05 128.362 1295.54 123.588 1278.49 122.815C1250.22 121.588 1220.28 126.028 1189.52 136.013C1161.71 145.036 1134.3 158.169 1108.06 175.045C1060.26 205.883 1020.23 247.949 992.29 296.698C990.758 299.37 989.244 302.104 987.79 304.826C976.147 326.603 966.575 350.412 958.53 377.613C957.082 382.495 955.661 387.519 954.288 392.375C948.135 414.127 941.776 436.617 930.242 456.478C929.591 457.602 928.913 458.725 928.231 459.818C895.904 511.348 836.397 514.118 791.49 499.535C741.611 483.339 700.058 447.743 658.367 409.582C654.683 406.208 650.945 402.762 647.33 399.428L642.754 395.213C622.291 376.356 601.132 356.857 578.381 338.932C552.613 318.63 528.514 303.388 504.707 292.339C475.384 278.644 443.421 271.527 411.059 271.486C382.795 271.38 353.252 276.267 320.741 286.429C294.565 294.551 263.886 305.35 234.831 323.863C205.744 342.454 179.451 366.451 154.025 389.658C150.478 392.897 146.806 396.246 143.217 399.5C83.2292 453.868 23.3032 515.012 -34.8871 581.232L-34.7317 581.362Z" fill="url(#paint4_linear_2_3642)"/>
<path d="M-32.6928 579.277C24.9125 512.414 83.7615 450.636 142.229 395.66C146.622 391.527 151.121 387.238 155.476 383.087C179.461 360.22 204.261 336.573 232.207 318.907C261.12 300.699 292.047 291.635 318.486 285.185C386.499 268.387 444.309 272.959 500.415 299.569C549.387 322.9 590.707 357.93 630.666 391.809C634.87 395.374 639.211 399.06 643.454 402.628C648.428 406.816 652.226 410.003 655.769 412.947C674.739 428.704 697.284 446.797 720.642 461.522C745.396 477.126 768.625 487.5 791.685 493.235C803.561 496.219 815.747 497.798 827.992 497.937C840.846 498.049 853.172 496.445 864.625 493.168C877.034 489.621 888.38 484.107 898.346 476.793C909.156 468.853 918.429 458.716 925.918 446.66C926.592 445.568 927.266 444.441 927.916 443.311C939.302 423.566 945.956 401.383 952.389 379.931C953.882 374.957 955.425 369.811 956.994 364.811C965.486 337.668 975.339 314.039 987.111 292.576C988.592 289.877 990.131 287.164 991.686 284.515C1020.07 236.183 1060.45 194.637 1108.47 164.371C1164.83 128.942 1225.53 111.095 1279.37 114.11C1310.01 115.909 1350.93 131.206 1373.29 161.32C1386.58 179.224 1390.92 199.94 1385.83 221.226L1386.04 221.273C1388.7 210.143 1388.82 199.194 1386.44 188.733C1384.23 179.077 1379.86 169.815 1373.47 161.192C1363.58 147.865 1348.99 136.31 1331.26 127.749C1314.84 119.826 1296.42 114.9 1279.39 113.9C1251.13 112.317 1221.14 116.399 1190.25 126.033C1162.34 134.742 1134.78 147.58 1108.34 164.193C1060.29 194.477 1019.88 236.045 991.488 284.406C989.932 287.058 988.391 289.776 986.9 292.473C975.12 313.949 965.264 337.588 956.767 364.745C955.195 369.749 953.653 374.893 952.16 379.868C945.73 401.31 939.082 423.48 927.707 443.204C927.056 444.332 926.385 445.457 925.713 446.549C898.855 489.848 848.751 507.228 791.714 493.038C740.055 480.184 696.284 446.347 655.879 412.791C652.337 409.847 648.538 406.664 643.565 402.472C639.329 398.903 634.981 395.218 630.776 391.653C611.107 374.975 590.765 357.73 569.24 341.756C544.894 323.69 522.406 309.83 500.482 299.385C485.539 292.269 469.935 286.635 453.892 282.565C438.859 278.796 423.501 276.465 408.026 275.603C379.729 274.014 350.421 277.084 318.41 284.986C291.955 291.447 261.008 300.511 232.072 318.735C204.107 336.411 179.299 360.065 155.307 382.94C150.956 387.089 146.456 391.38 142.062 395.511C83.5991 450.492 24.7441 512.275 -32.8587 579.144L-32.6928 579.277Z" fill="url(#paint5_linear_2_3642)"/>
<path d="M-30.6519 577.192C26.3636 509.676 84.1422 447.265 141.078 391.676C145.923 386.948 150.892 381.993 155.697 377.203C178.585 354.382 202.252 330.785 229.45 313.787C258.397 295.77 289.512 288.493 316.145 283.749C381.371 271.939 440.261 279.42 496.186 306.621C540.723 328.391 579.733 358.951 617.458 388.504C625.077 394.473 632.957 400.647 640.608 406.521C645.286 410.111 649.433 413.272 653.283 416.163C671.187 429.604 694.954 446.778 720.019 460.417C745.206 474.118 768.724 482.734 791.917 486.742C817.212 491.115 842.034 489.423 863.7 481.858C875.743 477.65 886.774 471.63 896.483 463.963C906.966 455.687 916.018 445.4 923.385 433.386C924.052 432.292 924.72 431.163 925.366 430.034C936.583 410.445 943.512 388.599 950.216 367.483C951.838 362.372 953.513 357.089 955.215 351.95C964.167 324.845 974.303 301.384 986.207 280.229C987.714 277.551 989.279 274.861 990.86 272.231C1019.7 224.285 1060.45 183.239 1108.72 153.527C1165.54 118.663 1226.47 101.509 1280.26 105.222C1316.72 107.848 1354.29 126.949 1373.72 152.753C1387.25 170.709 1392.02 191.504 1387.52 212.889L1387.73 212.932C1390.08 201.755 1389.95 190.77 1387.34 180.276C1384.93 170.578 1380.41 161.275 1373.89 152.629C1363.91 139.373 1349.37 127.835 1331.85 119.26C1315.59 111.297 1297.28 106.238 1280.27 105.015C1252.02 103.073 1221.98 106.785 1190.97 116.072C1162.97 124.448 1135.26 136.992 1108.61 153.341C1060.32 183.069 1019.54 224.141 990.685 272.116C989.102 274.745 987.537 277.438 986.028 280.118C974.111 301.286 963.977 324.757 955.022 351.875C953.32 357.016 951.643 362.299 950.022 367.41C943.322 388.524 936.396 410.359 925.19 429.929C924.543 431.058 923.878 432.183 923.212 433.277C896.841 476.276 847.773 496.186 791.954 486.538C741.067 477.74 695.292 447.435 653.408 415.998C649.56 413.105 645.414 409.96 640.735 406.356C633.086 400.481 625.206 394.31 617.587 388.34C579.853 358.78 540.836 328.212 496.278 306.435C481.483 299.212 466.097 293.269 450.288 288.672C435.479 284.404 420.332 281.41 405.013 279.724C376.615 276.607 347.535 277.859 316.112 283.547C289.466 288.296 258.32 295.576 229.344 313.613C202.126 330.622 178.45 354.228 155.553 377.058C150.75 381.847 145.781 386.801 140.938 391.529C83.9935 447.115 26.2098 509.538 -30.8096 577.059L-30.6519 577.192Z" fill="url(#paint6_linear_2_3642)"/>
<path d="M-28.6133 575.108C27.808 506.932 84.5191 443.877 139.944 387.686C145.037 382.524 150.265 377.069 155.321 371.791C177.308 348.853 200.041 325.134 226.706 308.666C255.787 290.776 287.061 285.304 313.819 282.314C376.868 275.076 435.14 285.326 491.973 313.669C531.835 333.653 567.962 359.947 602.901 385.374C614.914 394.116 626.262 402.375 637.778 410.409C642.462 413.679 646.725 416.612 650.814 419.377C677.203 437.186 698.991 449.875 719.415 459.303C745.038 471.134 768.835 477.982 792.167 480.243C801.064 481.118 810.018 481.251 818.937 480.64C834.45 479.555 849.297 476.159 862.792 470.544C887.214 460.385 906.757 443.417 920.879 420.119C921.543 419.015 922.204 417.886 922.845 416.761C933.881 397.35 941.074 375.863 948.03 355.083C949.794 349.819 951.61 344.377 953.464 339.081C962.88 312.005 973.302 288.714 985.326 267.875C986.862 265.217 988.458 262.547 990.06 259.939C1019.36 212.373 1060.49 171.832 1108.99 142.673C1166.26 108.365 1227.4 91.9037 1281.15 96.3137C1317.8 99.4351 1354.3 118.206 1374.12 144.12C1387.9 162.137 1393.12 183.028 1389.21 204.533L1389.42 204.568C1391.46 193.339 1391.06 182.304 1388.24 171.774C1385.62 162.024 1380.92 152.678 1374.29 143.995C1364.22 130.833 1349.75 119.324 1332.43 110.732C1316.34 102.745 1298.14 97.5527 1281.18 96.108C1252.93 93.7904 1222.83 97.1484 1191.7 106.088C1163.61 114.156 1135.75 126.403 1108.89 142.488C1060.35 171.662 1019.2 212.237 989.883 259.825C988.275 262.434 986.681 265.106 985.146 267.766C973.116 288.615 962.688 311.92 953.267 339.007C951.417 344.304 949.595 349.748 947.834 355.012C940.879 375.782 933.681 397.259 922.671 416.654C922.034 417.776 921.373 418.905 920.71 420.007C894.335 463.517 847.493 485.399 792.192 480.04C739.552 474.938 691.246 446.423 650.936 419.205C646.848 416.442 642.584 413.51 637.902 410.24C626.386 402.207 615.04 393.951 603.027 385.207C568.084 359.776 531.949 333.484 492.078 313.484C477.425 306.149 462.254 299.898 446.687 294.781C432.09 290.011 417.153 286.355 402.003 283.845C373.438 279.14 344.588 278.582 313.81 282.109C287.033 285.102 255.732 290.578 226.619 308.489C199.934 324.977 177.19 348.705 155.189 371.652C150.132 376.928 144.903 382.383 139.812 387.545C84.3835 443.736 27.6686 506.795 -28.757 574.968L-28.6133 575.108Z" fill="url(#paint7_linear_2_3642)"/>
<path d="M-26.5819 573.024C30.0301 503.214 84.1265 441.288 138.799 383.707C144.014 378.211 149.138 372.616 154.563 366.692C175.765 343.531 197.69 319.582 223.953 303.544C253.41 285.636 286.206 282.024 311.484 280.878C371.939 277.946 429.593 290.968 487.746 320.711C522.642 338.654 555.255 360.85 586.793 382.317C603.369 393.597 619.025 404.253 634.933 414.29C639.655 417.273 644.039 419.984 648.332 422.582C674.929 438.648 697.322 449.961 718.797 458.181C744.866 468.159 768.941 473.248 792.403 473.739C804.251 474.007 816.093 472.972 827.715 470.652C839.538 468.294 851.013 464.443 861.867 459.194C885.387 447.75 904.398 430.127 918.358 406.819C919.014 405.713 919.671 404.583 920.306 403.458C931.147 384.25 938.586 363.148 945.781 342.741C947.7 337.297 949.685 331.666 951.695 326.187C961.586 299.135 972.301 276.01 984.432 255.494C985.993 252.857 987.612 250.208 989.24 247.621C1019.01 200.447 1060.5 160.386 1109.25 131.793C1154.26 105.512 1201.48 90.1309 1245.55 87.0499C1257.7 86.1695 1269.91 86.2918 1282.05 87.4156C1318.29 90.9737 1354.57 109.838 1374.47 135.452C1388.52 153.541 1394.2 174.542 1390.9 196.185L1391.1 196.216C1392.83 184.922 1392.16 173.831 1389.11 163.252C1386.29 153.443 1381.42 144.049 1374.64 135.327C1364.49 122.255 1350.08 110.799 1332.97 102.198C1316.83 94.0774 1299.22 88.8905 1282.07 87.2035C1253.83 84.5186 1223.67 87.5156 1192.42 96.1073C1164.24 103.864 1136.22 115.825 1109.15 131.639C1060.39 160.255 1018.86 200.331 989.08 247.533C987.447 250.121 985.827 252.772 984.272 255.412C972.127 275.94 961.413 299.075 951.519 326.143C949.507 331.623 947.522 337.256 945.603 342.7C938.412 363.098 930.985 384.191 920.144 403.385C919.509 404.508 918.859 405.637 918.198 406.741C892.096 450.325 846.253 474.675 792.423 473.546C737.951 472.406 686.87 445.624 648.453 422.419C644.162 419.833 639.78 417.111 635.058 414.131C619.148 404.092 603.486 393.437 586.918 382.154C555.374 360.685 522.756 338.483 487.847 320.535C457.908 305.223 428.834 294.563 398.963 287.968C370.154 281.602 341.539 279.214 311.478 280.672C294.326 281.459 280.409 283.155 267.676 286.041C251.242 289.766 236.903 295.436 223.85 303.37C197.562 319.432 175.627 343.382 154.415 366.552C148.99 372.476 143.868 378.071 138.653 383.564C83.9766 441.15 29.8765 503.08 -26.7373 572.895L-26.5819 573.024Z" fill="url(#paint8_linear_2_3642)"/>
<path d="M-24.5332 570.939C31.4646 500.451 84.522 437.902 137.668 379.72C142.925 373.964 148.093 368.051 153.565 361.792C174.064 338.338 195.26 314.085 221.216 298.423C250.935 280.569 283.827 278.9 309.164 279.44C366.481 280.484 423.518 296.291 483.536 327.769C513.113 343.36 541.512 361.588 568.975 379.215C590.684 393.159 611.189 406.31 632.108 418.188C636.83 420.876 641.467 423.438 645.868 425.802C672.39 440.027 696.05 450.262 718.2 457.069C744.724 465.217 769.085 468.548 792.656 467.251C804.488 466.617 816.217 464.711 827.64 461.566C839.257 458.364 850.445 453.775 860.966 447.899C883.574 435.213 902.039 416.935 915.857 393.575C916.506 392.473 917.156 391.341 917.788 390.21C928.416 371.241 936.082 350.559 943.49 330.558C945.586 324.899 947.756 319.047 949.948 313.35C960.325 286.314 971.32 263.36 983.561 243.178C985.148 240.56 986.793 237.932 988.45 235.367C1018.68 188.567 1060.55 149.009 1109.53 120.965C1167.69 87.7908 1229.27 72.7164 1282.94 78.5177C1318.75 82.4978 1354.8 101.423 1374.78 126.727C1389.13 144.896 1395.28 166.024 1392.58 187.832L1392.79 187.857C1394.2 176.488 1393.25 165.33 1389.97 154.695C1386.92 144.821 1381.87 135.368 1374.95 126.6C1364.71 113.633 1350.37 102.236 1333.48 93.6284C1317.51 85.497 1300.04 80.1958 1282.96 78.2959C1254.73 75.2455 1224.51 77.8797 1193.14 86.1251C1164.87 93.5724 1136.7 105.228 1109.43 120.79C1060.41 148.852 1018.53 188.431 988.276 235.247C986.617 237.814 984.971 240.444 983.384 243.062C971.137 263.261 960.138 286.228 949.751 313.273C947.557 318.972 945.388 324.826 943.291 330.485C935.885 350.48 928.226 371.154 917.604 390.11C916.97 391.238 916.319 392.368 915.673 393.471C889.332 438.002 845.637 464.128 792.64 467.05C749.638 469.417 703.029 456.253 645.96 425.626C641.559 423.254 636.932 420.691 632.205 418.014C611.288 406.139 590.786 392.979 569.079 379.047C541.614 361.418 513.211 343.189 483.627 327.59C453.366 311.721 424.682 300.11 395.933 292.097C366.808 283.978 338.424 279.771 309.16 279.24C283.799 278.698 250.87 280.372 221.105 298.252C195.122 313.929 173.914 338.196 153.403 361.661C147.934 367.92 142.768 373.833 137.511 379.587C84.3625 437.771 31.3012 500.324 -24.7006 570.815L-24.5332 570.939Z" fill="url(#paint9_linear_2_3642)"/>
<path d="M-22.4938 568.854C32.8896 497.683 84.906 434.515 136.531 375.735C141.773 369.769 146.926 363.587 152.382 357.044C172.233 333.242 192.759 308.629 218.472 293.302C248.486 275.485 281.461 275.767 306.834 278.003C361.017 282.616 415.826 300.669 479.32 334.817C503.138 347.69 526.535 362.002 549.17 375.844C576.652 392.653 602.608 408.533 629.278 422.078C634.084 424.521 638.835 426.854 643.399 429.015C670.27 441.721 694.54 450.528 717.596 455.944C730.51 458.977 743.186 460.941 755.273 461.783C768.166 462.681 780.827 462.334 792.905 460.752C817.413 457.54 840.003 449.401 860.052 436.562C881.704 422.698 899.635 403.767 913.344 380.298C913.988 379.189 914.63 378.055 915.261 376.929C925.655 358.245 933.51 338.027 941.108 318.477C943.409 312.558 945.786 306.438 948.191 300.477C959.059 273.45 970.339 250.663 982.674 230.813C984.29 228.226 985.96 225.609 987.643 223.065C1018.33 176.663 1060.57 137.605 1109.8 110.115C1168.4 77.4995 1230.21 63.1249 1283.83 69.6176C1341.26 76.735 1399.81 120.775 1394.27 179.49L1394.48 179.511C1395.87 164.823 1393.46 150.614 1387.33 137.28C1381.74 125.096 1373.15 113.876 1361.83 103.91C1351.31 94.6434 1338.92 86.8738 1325.01 80.8167C1311.78 75.0542 1297.54 71.1124 1283.86 69.4136C1255.64 65.9958 1225.36 68.2669 1193.87 76.1663C1165.51 83.2797 1137.19 94.6417 1109.7 109.934C1060.45 137.441 1018.18 176.527 987.477 222.951C985.8 225.496 984.127 228.105 982.506 230.705C970.165 250.564 958.88 273.362 948.013 300.401C945.608 306.36 943.229 312.486 940.928 318.401C933.333 337.947 925.482 358.156 915.093 376.827C914.467 377.954 913.822 379.085 913.178 380.194C886.832 425.298 844.112 453.834 792.887 460.549C749.521 466.23 700.655 455.865 643.495 428.831C638.932 426.676 634.183 424.339 629.379 421.895C602.711 408.354 576.757 392.477 549.272 375.67C526.643 361.828 503.243 347.514 479.421 334.639C415.899 300.476 361.064 282.415 306.857 277.8C289.806 276.297 275.785 276.418 262.728 278.178C246.037 280.427 231.529 285.317 218.371 293.126C192.626 308.474 172.091 333.099 152.229 356.915C146.773 363.458 141.62 369.635 136.381 375.601C84.7527 434.384 32.7344 497.556 -22.6529 568.729L-22.4938 568.854Z" fill="url(#paint10_linear_2_3642)"/>
<path d="M-20.4554 566.77C34.3071 494.913 85.2863 431.118 135.392 371.751C140.578 365.616 145.677 359.195 151.076 352.406C170.315 328.218 190.209 303.205 215.725 288.18C246.413 270.186 281.087 272.932 304.505 276.566C368.053 286.247 426.403 315.01 475.103 341.868C492.607 351.57 510.117 361.911 527.051 371.915C561.018 391.984 593.103 410.939 626.442 425.966C631.337 428.18 636.224 430.286 640.923 432.229C668.201 443.472 693.081 450.861 716.985 454.814C744.081 459.296 769.707 459.108 793.149 454.254C817.232 449.272 839.435 439.5 859.134 425.229C879.8 410.26 897.194 390.679 910.832 367.028C911.469 365.918 912.117 364.782 912.731 363.655C922.859 345.317 930.868 325.629 938.626 306.586C941.167 300.358 943.784 293.896 946.437 287.621C957.969 260.222 969.205 238.244 981.792 218.47C983.432 215.894 985.141 213.309 986.838 210.785C1017.99 164.759 1060.6 126.199 1110.07 99.2628C1169.11 67.2204 1231.15 53.5327 1284.72 60.7197C1342.41 68.6126 1399.79 112.073 1395.96 171.145L1396.17 171.157C1397.15 156.664 1394.39 142.163 1388.15 129.045C1382.4 116.872 1373.77 105.63 1362.52 95.647C1352.02 86.3377 1339.68 78.4985 1325.86 72.3489C1312.7 66.4907 1298.48 62.4028 1284.75 60.5238C1256.54 56.7387 1226.2 58.6388 1194.59 66.2084C1166.14 73.0051 1137.67 84.0721 1109.97 99.0984C1060.47 126.035 1017.83 164.618 986.671 210.661C984.95 213.189 983.261 215.781 981.621 218.351C969.025 238.137 957.785 260.119 946.247 287.533C943.595 293.819 940.969 300.271 938.429 306.509C930.691 325.544 922.675 345.229 912.555 363.554C911.931 364.682 911.293 365.817 910.658 366.925C884.145 412.894 842.397 443.849 793.106 454.052C748.899 463.208 699.145 456.005 641.003 432.038C636.298 430.099 631.427 427.991 626.527 425.779C593.198 410.757 561.118 391.802 527.154 371.739C510.22 361.733 492.71 351.388 475.202 341.688C442.455 323.628 415.347 310.489 389.891 300.338C359.926 288.39 332.007 280.548 304.538 276.362C287.79 273.764 273.304 273.072 260.247 274.243C243.434 275.752 228.839 280.252 215.624 288.004C190.074 303.047 170.169 328.082 150.919 352.279C145.519 359.066 140.419 365.477 135.239 371.618C85.1289 430.987 34.1476 494.784 -20.6166 566.645L-20.4554 566.77Z" fill="url(#paint11_linear_2_3642)"/>
<path d="M-18.4164 564.683C35.7205 492.134 85.659 427.722 134.256 367.765C139.353 361.478 144.368 354.863 149.678 347.858C168.334 323.259 187.624 297.803 212.98 283.059C244.013 265.076 278.748 269.921 302.179 275.127C360.028 287.845 412.809 316.071 470.886 348.918C481.362 354.865 491.967 361.021 502.225 366.973C541.672 389.869 582.463 413.544 623.61 429.856C628.608 431.841 633.602 433.72 638.452 435.442C665.799 445.139 692.016 451.282 716.374 453.682C743.966 456.408 769.879 454.413 793.394 447.755C817.017 441.065 838.828 429.672 858.215 413.893C877.843 397.921 894.701 377.688 908.321 353.757C908.95 352.643 909.584 351.508 910.202 350.378C920.016 332.479 928.128 313.406 935.973 294.96C938.806 288.313 941.722 281.442 944.673 274.749C956.731 247.335 968.244 225.526 980.906 206.11C982.568 203.561 984.293 200.996 986.03 198.487C1017.65 152.856 1060.63 114.793 1110.34 88.4128C1169.82 56.9378 1232.08 43.9421 1285.62 51.8217C1341.52 60.1774 1399.8 101.912 1397.65 162.798L1397.86 162.806C1398.39 148.284 1395.34 133.854 1388.97 120.794C1383.07 108.61 1374.4 97.3648 1363.19 87.3666C1342.52 68.9247 1314.25 55.895 1285.65 51.6176C1257.44 47.4671 1227.04 49.0146 1195.31 56.2174C1166.77 62.6989 1138.14 73.4694 1110.24 88.232C1060.5 114.627 1017.5 152.711 985.867 198.371C984.128 200.879 982.403 203.447 980.739 205.998C968.082 225.422 956.553 247.24 944.492 274.664C941.539 281.36 938.617 288.232 935.79 294.878C927.947 313.32 919.836 332.388 910.028 350.277C909.41 351.405 908.778 352.539 908.147 353.651C880.9 401.527 841.2 434.003 793.339 447.555C749.022 460.103 696.935 455.962 638.521 435.246C633.672 433.523 628.681 431.646 623.685 429.664C582.561 413.356 541.768 389.685 502.328 366.795C492.07 360.841 481.463 354.685 470.987 348.736C445.565 334.359 416.003 317.893 386.867 304.46C356.39 290.406 328.701 280.746 302.222 274.92C285.549 271.214 271.006 269.704 257.765 270.304C241.068 271.059 225.961 275.289 212.877 282.875C201.519 289.48 190.284 298.938 178.53 311.793C168.153 323.141 158.678 335.641 149.508 347.727C144.2 354.73 139.185 361.346 134.092 367.63C85.4929 427.587 35.5526 492.003 -18.5841 564.555L-18.4164 564.683Z" fill="url(#paint12_linear_2_3642)"/>
<path d="M-16.3755 562.599C37.1292 489.349 86.0289 424.315 133.118 363.78C138.105 357.37 143.013 350.573 148.209 343.378C166.303 318.325 185.011 292.42 210.236 277.939C233.808 264.444 263.121 263.054 299.85 273.688C351.193 288.446 398.088 315.884 447.736 344.925C453.918 348.542 460.309 352.28 466.668 355.971C469.16 357.419 471.651 358.87 474.142 360.321C521.437 387.874 570.344 416.364 620.776 433.747C625.874 435.505 630.989 437.156 635.981 438.662C663.819 447.009 690.661 451.684 715.759 452.556C743.857 453.531 770.067 449.732 793.641 441.263C816.774 432.954 838.192 419.933 857.299 402.561C875.822 385.727 892.144 364.843 905.815 340.493C906.438 339.38 907.065 338.241 907.681 337.112C917.112 319.777 925.248 301.457 933.114 283.724C936.301 276.546 939.595 269.123 942.923 261.89C955.519 234.457 967.316 212.809 980.028 193.767C981.719 191.237 983.47 188.693 985.233 186.207C1017.3 140.954 1060.66 103.379 1110.61 77.5628C1170.55 46.654 1233.01 34.3527 1286.51 42.9237C1341.44 51.8238 1399.65 93.9379 1399.34 154.452L1399.55 154.452C1399.62 139.856 1396.34 125.758 1389.79 112.55C1383.74 100.362 1375.03 89.1059 1363.88 79.0956C1343.28 60.6048 1315.09 47.3471 1286.54 42.7195C1258.34 38.2015 1227.89 39.3881 1196.04 46.2427C1167.41 52.4063 1138.62 62.883 1110.51 77.3716C1060.54 103.212 1017.16 140.795 985.063 186.07C983.3 188.56 981.549 191.105 979.856 193.637C967.13 212.688 955.336 234.344 942.737 261.787C939.409 269.029 936.113 276.446 932.928 283.624C925.063 301.346 916.929 319.67 907.5 336.997C906.886 338.126 906.259 339.262 905.636 340.376C877.838 389.89 839.086 424.703 793.57 441.053C748.635 457.194 695.635 456.319 636.038 438.448C631.05 436.941 625.938 435.301 620.841 433.532C570.428 416.157 521.532 387.671 474.244 360.123L466.771 355.772C460.414 352.093 454.02 348.345 447.838 344.726C398.179 315.68 351.274 288.245 299.905 273.47C283.312 268.666 268.716 266.339 255.286 266.358C238.476 266.381 223.284 270.209 210.121 277.741C198.827 284.226 187.742 293.713 176.233 306.744C166.083 318.242 156.903 330.949 148.03 343.237C142.834 350.432 137.928 357.226 132.943 363.633C85.8559 424.17 36.9524 489.207 -16.5543 562.459L-16.3755 562.599Z" fill="url(#paint13_linear_2_3642)"/>
<path d="M-14.3356 560.523C34.4062 492.343 83.6341 424.812 131.98 359.812C136.905 353.23 141.745 346.192 146.877 338.737C163.556 314.495 182.462 287.019 207.489 272.837C231.35 259.342 260.799 259.157 297.515 272.268C341.179 287.798 380.572 312.367 422.281 338.378C435.342 346.526 448.847 354.949 462.444 363.036C486.179 377.186 511.823 392.122 538.547 405.493C567.166 419.809 593.134 430.331 617.937 437.652C623.146 439.192 628.383 440.616 633.503 441.884C661.817 448.899 689.285 452.098 715.12 451.392C743.713 450.61 770.216 445.02 793.878 434.775C837.558 415.659 874.372 379.466 903.299 327.232C903.916 326.115 904.537 324.977 905.148 323.846C914.089 307.283 922.13 289.904 929.9 273.097C933.558 265.187 937.339 257.007 941.161 249.036C954.307 221.571 966.375 200.088 979.139 181.426C980.858 178.916 982.633 176.392 984.421 173.928C1016.96 129.05 1060.69 91.9828 1110.88 66.7129C1171.25 36.3736 1233.94 24.7658 1287.4 34.0237C1342.71 43.6784 1399.51 85.2776 1401.03 146.104L1401.24 146.1C1400.87 131.531 1397.3 117.47 1390.61 104.307C1384.41 92.1129 1375.65 80.8473 1364.57 70.8241C1354.11 61.3813 1341.95 53.3363 1328.41 46.9113C1315.41 40.7212 1301.63 36.3177 1287.45 33.8207C1259.25 28.9376 1228.74 29.7612 1196.77 36.2675C1168.04 42.1166 1139.11 52.2982 1110.8 66.527C1060.57 91.8119 1016.82 128.914 984.256 173.789C982.467 176.256 980.689 178.779 978.971 181.291C966.199 199.962 954.128 221.454 940.976 248.927C937.154 256.9 933.371 265.081 929.714 272.993C921.946 289.797 913.91 307.172 904.967 323.731C904.358 324.86 903.736 325.998 903.12 327.113C874.216 379.316 837.435 415.469 793.795 434.569C748.831 454.039 693.419 456.492 633.551 441.666C628.436 440.397 623.202 438.974 617.994 437.437C562.546 421.064 510.8 391.609 462.55 362.841C448.955 354.754 435.45 346.33 422.389 338.185C380.673 312.168 341.27 287.594 297.585 272.057C260.805 258.924 231.296 259.113 207.382 272.638C196.173 278.988 185.266 288.481 174.039 301.651C164.134 313.269 155.273 326.144 146.703 338.607C141.575 346.057 136.733 353.098 131.809 359.676C83.463 424.694 34.2346 492.219 -14.5049 560.4L-14.3356 560.523Z" fill="url(#paint14_linear_2_3642)"/>
<path d="M-12.2976 558.43C35.6068 489.95 83.7659 421.779 130.842 355.81C135.595 349.172 140.27 342.026 145.22 334.46C161.415 309.722 179.76 281.665 204.753 267.695C228.908 254.2 258.497 255.22 295.203 270.809C333.662 287.115 369.648 311.422 404.447 334.927C421.899 346.713 439.942 358.901 458.243 370.066C487.127 387.71 511.313 401.018 534.388 411.951C562.83 425.424 589.236 435.102 615.118 441.524C620.431 442.841 625.79 444.037 631.045 445.078C658.423 450.499 685.083 452.346 710.331 450.581C711.732 450.483 713.129 450.373 714.521 450.253C743.677 447.736 770.464 440.335 794.137 428.257C805.802 422.244 816.837 415.08 827.078 406.873C836.886 399.036 846.43 389.95 855.443 379.862C871.66 361.712 886.494 340.151 900.796 313.95C901.412 312.822 902.02 311.693 902.62 310.561C910.901 295.112 918.633 279.028 926.109 263.473C930.428 254.495 934.888 245.209 939.404 236.157C953.304 208.275 965.287 187.583 978.256 169.063C979.999 166.572 981.803 164.073 983.616 161.627C1016.61 117.153 1060.71 80.5812 1111.14 55.8677C1171.95 26.0996 1234.86 15.1832 1288.29 25.1366C1342.61 35.2913 1399.36 77.242 1402.72 137.769L1402.92 137.755C1401.36 109.562 1388.33 83.5603 1365.24 62.562C1354.8 53.0706 1342.69 44.9663 1329.24 38.4438C1316.27 32.1434 1302.51 27.5994 1288.33 24.9315C1260.14 19.687 1229.58 20.1438 1197.49 26.3017C1168.66 31.8275 1139.58 41.7125 1111.06 55.6775C1060.6 80.4057 1016.47 116.998 983.463 161.498C981.649 163.942 979.844 166.445 978.099 168.938C965.124 187.466 953.137 208.167 939.232 236.058C934.712 245.11 930.252 254.396 925.935 263.374C918.461 278.925 910.731 295.007 902.452 310.453C901.844 311.584 901.236 312.713 900.628 313.84C870.237 369.518 835.374 406.883 794.048 428.076C736.797 457.286 673.831 453.336 631.09 444.879C625.836 443.838 620.481 442.644 615.178 441.324C555.654 426.557 500.106 395.395 458.36 369.893C440.062 358.731 422.021 346.545 404.573 334.759C369.764 311.249 333.771 286.935 295.293 270.624C278.868 263.648 264.166 259.689 250.341 258.511C233.303 257.068 217.931 260.097 204.655 267.514C193.471 273.769 182.677 283.322 171.66 296.717C161.955 308.517 153.363 321.648 145.055 334.344C140.105 341.905 135.432 349.053 130.677 355.688C83.6001 421.648 35.4419 489.83 -12.4646 558.309L-12.2976 558.43Z" fill="url(#paint15_linear_2_3642)"/>
<path d="M-10.2585 556.346L129.704 351.825C134.274 345.145 138.773 337.91 143.536 330.243C159.248 304.971 177.058 276.327 201.999 262.565C226.116 249.256 256.688 251.543 292.866 269.361C327.646 286.493 359.937 310.25 391.164 333.223C411.518 348.199 432.566 363.684 454.017 377.107C518.493 417.454 573.957 440.069 628.564 448.28C651.218 451.685 673.397 452.643 694.738 451.152C701.205 450.699 707.592 450.023 713.898 449.122C743.625 444.867 770.7 435.666 794.371 421.755C816.312 408.865 835.987 391.453 854.523 368.528C869.319 350.223 883.23 328.66 898.287 300.67C906.232 285.89 913.86 270.595 921.234 255.795C937.924 222.304 955.181 187.66 977.374 156.704C1011.43 109.208 1057.78 70.5838 1111.42 45.0108C1172.67 15.8121 1235.8 5.58316 1289.19 16.2275C1340.88 26.527 1398.99 66.3379 1404.41 129.411L1404.62 129.397C1402.19 101.204 1388.81 75.231 1365.93 54.2844C1345.23 35.3453 1318 21.7651 1289.23 16.0288C1261.05 10.411 1230.42 10.5108 1198.22 16.3205C1169.3 21.5394 1140.07 31.13 1111.34 44.8271C1084.76 57.5 1059.87 73.4315 1037.22 92.2544C1014.56 111.055 994.396 132.673 977.211 156.583C955.003 187.566 937.742 222.204 921.048 255.703C913.674 270.5 906.046 285.804 898.103 300.573C876.135 341.412 844.479 392.074 794.266 421.579C736.681 455.416 672.389 454.67 628.594 448.086C574.022 439.881 518.575 417.275 454.123 376.943C432.68 363.523 411.635 348.041 391.287 333.068C360.052 310.089 327.754 286.327 292.959 269.187C256.717 251.337 226.081 249.051 201.901 262.395C190.732 268.558 180.051 278.179 169.246 291.813C159.732 303.816 151.41 317.198 143.362 330.144C138.6 337.801 134.097 345.032 129.535 351.709L-10.4274 556.23L-10.2585 556.346Z" fill="url(#paint16_linear_2_3642)"/>
<path d="M-10.0631 541.361C25.255 484.675 55.7336 438.542 85.8523 396.194C100.469 375.621 115.455 355.331 130.377 335.887C134.892 330.006 139.337 323.774 144.042 317.177C155.867 300.594 168.096 283.447 182.633 270.34C190.436 263.291 198.06 258.101 205.939 254.474C230.121 243.249 259.706 247.485 293.876 267.066C311.56 277.18 327.841 288.961 341.435 299.151C355.826 309.939 370.118 321.946 383.941 333.557C403.807 350.247 424.35 367.505 446.153 382.037C459.422 390.906 472.79 398.729 485.888 405.284C512.319 418.483 540.088 428.812 568.718 436.095C586.481 440.562 604.231 443.636 621.472 445.232C636.109 446.59 650.821 446.939 665.506 446.277C687.002 445.273 707.778 441.917 727.257 436.299C747.968 430.316 767.363 421.745 784.905 410.788C800.546 401.024 815.128 389.091 829.488 374.275C856.247 346.723 876.949 315.58 891.994 291.526C899.384 279.657 906.561 267.578 913.504 255.896C933.496 222.257 952.379 190.48 976.784 161.647C996.786 138.194 1019.92 117.609 1045.55 100.475C1065.32 87.2331 1087.05 76.0149 1110.12 67.1306C1115.62 65.0168 1121.23 63.0144 1126.8 61.1781C1150.78 53.2908 1177.95 47.3462 1207.59 43.5075C1237.48 39.5958 1263.56 39.35 1287.3 42.7612C1300.69 44.6575 1313.8 48.1953 1326.32 53.2949C1370.34 71.2451 1400.12 104.464 1405.99 142.154L1406.24 142.114C1404.65 131.972 1401.42 122.155 1396.7 113.042C1392.17 104.262 1386.2 95.905 1378.97 88.2038C1365.3 73.6569 1347.13 61.5026 1326.43 53.0568C1313.88 47.9496 1300.75 44.4063 1287.34 42.5068C1263.58 39.0991 1237.48 39.3362 1207.57 43.2517C1177.9 47.0941 1150.7 53.0422 1126.72 60.9342C1121.15 62.7668 1115.54 64.7755 1110.03 66.8918C1086.94 75.7814 1065.19 87.0091 1045.4 100.271C1019.76 117.419 996.6 138.02 976.581 161.492C952.172 190.342 933.285 222.125 913.285 255.775C906.344 267.457 899.167 279.534 891.779 291.401C876.741 315.442 856.048 346.57 829.307 374.105C814.961 388.886 800.395 400.814 784.77 410.569C750.442 432.002 710.313 443.93 665.496 446.017C650.824 446.68 636.123 446.33 621.499 444.97C604.269 443.377 586.533 440.304 568.783 435.843C540.168 428.565 512.414 418.243 485.996 405.054C472.908 398.504 459.548 390.687 446.289 381.824C424.498 367.3 403.962 350.047 384.1 333.362C370.276 321.753 355.981 309.739 341.583 298.947C327.983 288.751 311.693 276.965 293.997 266.843C278.785 258.125 264.241 252.384 250.773 249.775C234.227 246.574 219.104 248.072 205.826 254.241C197.921 257.886 190.277 263.083 182.455 270.151C167.897 283.275 155.661 300.433 143.828 317.027C139.124 323.624 134.679 329.854 130.169 335.731C115.246 355.177 100.255 375.471 85.6337 396.044C55.5132 438.396 25.0325 484.53 -10.289 541.224L-10.0631 541.361Z" fill="url(#paint17_linear_2_3642)"/>
<path d="M-9.86807 526.373C22.5391 468.969 53.3447 420.675 84.304 378.734C99.4034 358.251 115.129 338.475 131.046 319.955C135.27 315.042 139.415 309.953 143.818 304.566C156.986 288.433 170.601 271.752 186.32 259.771C194.252 253.698 201.957 249.317 209.874 246.374C240.185 235.108 272.83 250.151 294.879 264.757C310.499 275.069 324.935 286.955 339.578 299.242C352.393 309.998 364.559 321.681 377.44 334.048C396.557 352.407 416.324 371.391 438.284 386.956C451.318 396.247 464.793 404.126 478.336 410.374C503.562 422.01 530.89 430.512 561.88 436.357C579.207 439.623 596.758 441.566 614.38 442.17C628.927 442.656 643.49 442.172 657.972 440.722C679.051 438.585 699.485 434.171 718.721 427.611C738.734 420.805 757.793 411.467 775.437 399.823C790.711 389.714 805.282 377.477 819.99 362.414C846.701 335.093 869.139 305.305 885.708 282.406C891.839 273.938 897.858 265.411 903.682 257.173C926.872 224.355 948.776 193.359 976.169 166.619C996.641 146.633 1019.98 129.311 1045.54 115.143C1064.88 104.419 1085.58 95.9513 1108.82 89.2528C1114.19 87.709 1119.65 86.2672 1125.07 84.9857C1148.85 79.3504 1174.43 76.0598 1205.39 72.3411C1227.7 69.604 1256.97 66.7831 1285.44 69.2926C1298.75 70.4015 1311.87 73.1054 1324.53 77.3461C1368.35 92.1185 1399.41 121.111 1407.6 154.899L1407.9 154.827C1405.73 145.867 1401.99 137.189 1396.79 129.039C1391.84 121.271 1385.53 113.932 1378.04 107.22C1363.81 94.4683 1345.34 84.0358 1324.63 77.0526C1311.95 72.8053 1298.8 70.0961 1285.48 68.9832C1256.97 66.4737 1227.68 69.2962 1205.35 72.0363C1174.38 75.7538 1148.8 79.0472 1125 84.6857C1119.58 85.9736 1114.11 87.4116 1108.74 88.9557C1085.47 95.6657 1064.75 104.138 1045.39 114.873C1019.8 129.058 996.445 146.393 975.953 166.397C948.541 193.155 926.628 224.164 903.43 256.992C897.617 265.232 891.586 273.749 885.458 282.224C868.9 305.113 846.477 334.888 819.775 362.196C805.084 377.241 790.527 389.465 775.272 399.563C740.997 422.254 701.523 435.999 657.947 440.419C643.479 441.868 628.93 442.351 614.398 441.863C596.791 441.259 579.255 439.314 561.943 436.047C530.978 430.207 503.674 421.716 478.471 410.088C464.945 403.848 451.487 395.978 438.468 386.704C416.53 371.152 396.77 352.176 377.659 333.827C364.774 321.454 352.605 309.768 339.776 299.006C325.126 286.712 310.684 274.821 295.049 264.5C280.756 255.033 266.851 248.474 253.721 245.005C237.8 240.8 223.012 241.174 209.765 246.087C201.822 249.037 194.09 253.435 186.131 259.524C170.386 271.53 156.759 288.225 143.58 304.37C139.185 309.757 135.038 314.844 130.811 319.753C114.891 338.279 99.1595 358.062 84.0543 378.552C53.0835 420.504 22.2722 468.806 -10.1423 526.223L-9.86807 526.373Z" fill="url(#paint18_linear_2_3642)"/>
<path d="M-9.66248 511.384C20.3029 452.485 50.5411 403.383 82.7746 361.275C98.3581 340.876 114.833 321.614 131.74 304.021C135.352 300.264 139.064 296.279 142.653 292.427C157.474 276.519 172.8 260.071 190.029 249.2C198.12 244.066 205.898 240.494 213.83 238.274C244.267 229.756 275.263 246.717 295.899 262.443C309.887 273.055 322.847 285.297 335.388 297.115L337.735 299.33C349.118 310.058 359.926 321.945 371.363 334.531C389.579 354.569 408.425 375.291 430.433 391.873C443.25 401.598 456.833 409.535 470.803 415.465C495.157 425.803 521.924 432.535 555.055 436.609C572.383 438.737 589.845 439.574 607.297 439.113C621.749 438.724 636.16 437.409 650.443 435.175C692.743 428.507 731.612 412.924 765.974 388.852C780.828 378.448 795.391 365.915 810.493 350.536C836.054 324.561 858.56 298.126 879.408 273.277C882.205 269.944 884.973 266.637 887.715 263.356C916.196 229.309 943.091 197.149 975.553 171.585C996.744 154.886 1020.29 140.834 1045.53 129.811C1064.07 121.713 1084.34 115.69 1107.52 111.373C1112.74 110.406 1118.06 109.537 1123.33 108.792C1136.6 106.939 1150.72 105.801 1165.68 104.595C1177.69 103.627 1190.11 102.627 1203.18 101.177C1228.44 98.2837 1257.06 95.0048 1283.59 95.8219C1297.28 96.2442 1310.44 98.1189 1322.72 101.396C1366.31 113.027 1398.64 137.795 1409.2 167.653L1409.54 167.532C1406.76 159.66 1402.49 152.09 1396.87 145.031C1391.49 138.28 1384.84 131.954 1377.11 126.23C1362.31 115.285 1343.53 106.577 1322.82 101.049C1310.51 97.764 1297.31 95.8851 1283.6 95.4625C1257.04 94.639 1228.41 97.9251 1203.14 100.819C1190.07 102.269 1177.65 103.269 1165.65 104.236C1150.68 105.443 1136.54 106.582 1123.28 108.435C1118 109.179 1112.67 110.05 1107.45 111.019C1084.25 115.339 1063.95 121.377 1045.39 129.479C1020.12 140.522 996.545 154.582 975.329 171.296C942.838 196.891 915.929 229.061 887.443 263.121C884.697 266.403 881.929 269.71 879.136 273.043C858.286 297.888 835.793 324.312 810.24 350.281C795.154 365.645 780.609 378.162 765.772 388.555C731.456 412.599 692.636 428.16 650.391 434.816C636.123 437.049 621.727 438.364 607.291 438.753C589.855 439.213 572.41 438.379 555.098 436.258C522.008 432.17 495.263 425.458 470.934 415.136C456.992 409.219 443.435 401.296 430.64 391.589C408.65 375.028 389.824 354.319 371.619 334.282C360.174 321.683 349.364 309.801 337.972 299.062L335.624 296.847C323.08 285.013 310.108 272.775 296.101 262.152C275.394 246.376 244.289 229.369 213.708 237.924C205.744 240.152 197.926 243.74 189.813 248.892C172.545 259.788 157.204 276.253 142.365 292.177C138.778 296.027 135.068 300.009 131.457 303.768C114.55 321.368 98.0656 340.643 82.4745 361.051C50.2278 403.176 19.9786 452.297 -9.99779 511.216L-9.66248 511.384Z" fill="url(#paint19_linear_2_3642)"/>
<path d="M-9.47443 496.394C17.6541 436.834 48.171 385.501 81.2239 343.82C97.2895 323.508 114.505 304.757 132.39 288.087C134.973 285.682 137.612 283.187 140.176 280.771C157.068 264.828 174.537 248.341 193.689 238.633C201.909 234.428 209.775 231.662 217.74 230.173C248.289 224.467 277.643 243.302 296.892 260.126C308.84 270.51 319.787 282.221 330.375 293.546C332.209 295.507 334.04 297.462 335.869 299.411C345.935 310.111 355.49 322.181 365.607 334.962C382.806 356.688 400.592 379.151 422.557 396.786C435.457 407.142 448.763 414.917 463.25 420.553C493.546 432.344 523.207 435.42 548.228 436.876C565.557 437.853 582.933 437.578 600.222 436.053C614.575 434.787 628.836 432.639 642.925 429.621C683.792 420.825 722.011 403.418 756.518 377.882C770.874 367.259 785.426 354.422 801.002 338.661C816.74 322.768 831.376 307.51 845.528 292.754C855.148 282.724 864.232 273.252 873.116 264.152C906.697 229.752 937.538 199.416 974.931 176.545C997.077 163.04 1020.78 152.273 1045.52 144.481C1063.39 138.833 1082.67 135.343 1106.2 133.496C1111.27 133.102 1116.45 132.8 1121.58 132.598C1129.38 132.307 1137.46 132.274 1146.02 132.236C1162.44 132.166 1181.05 132.088 1200.97 130.011C1208.55 129.219 1216.28 128.31 1223.76 127.428C1242.99 125.163 1262.87 122.82 1281.73 122.345C1295.57 121.996 1308.76 123.044 1320.93 125.439C1364.22 133.967 1397.83 154.515 1410.81 180.406L1411.18 180.222C1407.78 173.45 1402.99 166.982 1396.95 161.014C1391.15 155.28 1384.16 149.97 1376.17 145.232C1360.79 136.103 1341.72 129.121 1321.01 125.042C1308.79 122.644 1295.59 121.599 1281.71 121.94C1262.84 122.408 1242.96 124.75 1223.71 127.025C1216.24 127.907 1208.51 128.816 1200.93 129.608C1181.04 131.683 1162.43 131.761 1146.02 131.832C1137.46 131.868 1129.37 131.901 1121.57 132.195C1116.43 132.396 1111.25 132.698 1106.17 133.092C1082.61 134.945 1063.3 138.437 1045.4 144.096C1020.63 151.895 996.893 162.674 974.717 176.195C957.826 186.525 940.87 199.3 922.882 215.254C906.774 229.534 891.222 245.015 872.822 263.863C863.938 272.965 854.85 282.436 845.232 292.467C831.08 307.223 816.446 322.481 800.71 338.372C785.148 354.126 770.613 366.942 756.272 377.555C721.812 403.053 683.648 420.44 642.838 429.223C628.765 432.238 614.521 434.383 600.185 435.648C582.917 437.171 565.561 437.444 548.253 436.466C523.263 435.016 493.638 431.946 463.398 420.175C448.956 414.555 435.681 406.8 422.815 396.471C400.886 378.867 383.123 356.418 365.93 334.713C355.807 321.926 346.246 309.848 336.169 299.134C334.338 297.188 332.507 295.234 330.677 293.272C320.082 281.932 309.125 270.218 297.154 259.828C284.631 248.889 271.994 240.683 259.588 235.448C244.902 229.237 230.785 227.334 217.649 229.788C209.645 231.283 201.742 234.062 193.487 238.28C174.281 248.017 156.792 264.523 139.878 280.489C137.32 282.902 134.677 285.398 132.096 287.803C114.193 304.482 96.9639 323.242 80.8853 343.575C63.3353 365.708 46.3803 390.722 30.4931 417.892C16.4491 441.915 2.87092 468.268 -9.86485 496.234L-9.47443 496.394Z" fill="url(#paint20_linear_2_3642)"/>
<path d="M-9.28546 481.4C15.4108 420.36 45.342 368.196 79.6724 326.362C96.2222 306.139 114.181 287.905 133.05 272.163L135.745 269.914C155.364 253.526 175.651 236.581 197.356 228.071C205.765 224.774 213.713 222.804 221.655 222.078C252.279 219.243 280.014 239.945 297.885 257.812C308.397 268.263 317.889 279.855 327.069 291.069C329.34 293.839 331.686 296.706 334.002 299.496C342.818 310.123 351.173 322.324 360.019 335.239C376.111 358.735 392.752 383.029 414.683 401.715C427.371 412.52 440.788 420.352 455.699 425.659C485.078 436.11 514.25 437.355 541.399 437.143C558.139 437.004 575.546 435.62 593.135 433.001C607.385 430.855 621.495 427.872 635.394 424.068C674.71 413.28 712.278 394.051 747.048 366.913C760.973 356.044 775.099 343.306 791.5 326.787C822.682 295.489 845.916 273.357 866.815 255.029C908.399 218.569 940.545 196.583 974.3 181.512C997.097 171.361 1020.98 163.859 1045.49 159.153C1062.59 155.857 1080.9 154.766 1104.87 155.62C1109.78 155.801 1114.81 156.067 1119.82 156.41C1124.56 156.745 1129.37 157.171 1134.47 157.62C1153.3 159.283 1174.64 161.168 1198.76 158.851C1211.47 157.631 1224.41 155.821 1236.92 154.064C1251.15 152.07 1265.85 150.009 1279.86 148.89C1293.9 147.768 1307.11 147.976 1319.11 149.506C1362.06 154.978 1396.94 171.31 1412.41 193.193L1412.79 192.925C1408.77 187.24 1403.46 181.883 1397 177.001C1390.77 172.283 1383.44 167.994 1375.22 164.236C1359.25 156.937 1339.87 151.685 1319.17 149.048C1307.13 147.513 1293.9 147.31 1279.82 148.429C1265.8 149.548 1251.09 151.61 1236.86 153.605C1224.35 155.357 1211.41 157.171 1198.71 158.391C1174.64 160.702 1153.32 158.82 1134.51 157.16C1129.42 156.706 1124.6 156.278 1119.86 155.941C1114.84 155.597 1109.81 155.333 1104.89 155.153C1080.89 154.302 1062.54 155.397 1045.41 158.693C1020.86 163.406 996.94 170.919 974.109 181.086C940.308 196.177 908.129 218.186 866.516 254.675C845.601 273.012 822.367 295.15 791.186 326.455C774.798 342.95 760.688 355.689 746.779 366.542C712.056 393.644 674.544 412.844 635.286 423.606C621.404 427.402 607.312 430.379 593.081 432.52C575.512 435.134 558.118 436.527 541.408 436.658C514.3 436.869 485.176 435.627 455.867 425.198C441.008 419.912 427.639 412.108 414.996 401.338C393.11 382.701 376.49 358.432 360.414 334.962C351.563 322.037 343.199 309.828 334.372 299.185C332.056 296.397 329.711 293.533 327.441 290.758C318.254 279.538 308.752 267.935 298.224 257.471C286.562 245.81 274.56 236.778 262.547 230.63C248.478 223.427 234.707 220.393 221.624 221.602C213.637 222.342 205.65 224.312 197.201 227.624C175.423 236.156 155.109 253.132 135.461 269.542L132.766 271.792C113.875 287.543 95.8962 305.807 79.3272 326.052C44.9663 367.922 15.0047 420.125 -9.70083 481.208L-9.28546 481.4Z" fill="url(#paint21_linear_2_3642)"/>
<path d="M531.186 437.639C532.336 437.558 533.469 437.479 534.586 437.401C551.166 436.172 568.486 433.662 586.068 429.939C600.209 426.917 614.169 423.105 627.883 418.52C647.053 412.097 666.142 403.456 684.621 392.84C702.453 382.591 720.287 370.177 737.598 355.947C754.554 342.007 770.244 326.698 782.013 314.911C809.564 287.422 835.97 264.203 860.512 245.906C900.266 216.274 936.219 197.391 973.661 186.48C996.723 179.814 1020.42 175.596 1044.37 173.895L1045.47 173.818C1065.83 172.465 1085.42 174.897 1103.55 177.727C1108.27 178.471 1113.16 179.305 1118.08 180.202C1120.77 180.702 1123.47 181.223 1126.33 181.773C1146.49 185.664 1169.34 190.072 1196.56 187.676C1213.13 186.219 1229.96 183.312 1246.24 180.492C1256.75 178.678 1267.62 176.8 1278.01 175.402C1292.3 173.475 1305.52 172.85 1317.33 173.538C1359.83 176.017 1395.99 188.136 1414.05 205.944L1414.41 205.577C1405.15 196.44 1391.65 188.909 1374.29 183.199C1357.71 177.742 1338.02 174.223 1317.36 173.016C1305.52 172.326 1292.26 172.954 1277.94 174.883C1267.54 176.284 1256.66 178.162 1246.14 179.978C1229.88 182.786 1213.06 185.69 1196.5 187.146C1169.36 189.536 1146.55 185.134 1126.43 181.251C1123.57 180.698 1120.87 180.178 1118.17 179.678C1113.25 178.785 1108.36 177.946 1103.63 177.202C1085.47 174.368 1065.85 171.93 1045.44 173.286C1021.09 174.934 996.979 179.185 973.529 185.965C954.203 191.596 935.62 199.199 916.715 209.204C898.51 218.84 880.028 230.705 860.215 245.474C835.65 263.784 809.22 287.017 781.661 314.527C769.911 326.297 754.229 341.595 737.284 355.521C702.157 384.393 665.298 405.416 627.732 418.003C614.037 422.581 600.096 426.388 585.975 429.407C568.414 433.125 551.116 435.631 534.559 436.859C508.656 438.777 478.513 440.006 448.333 430.231C433.061 425.283 419.598 417.428 407.177 406.218C385.362 386.53 369.983 360.373 355.111 335.088C347.462 322.078 340.234 309.79 332.575 299.251C330.121 295.875 327.639 292.391 325.24 289.024C317.132 277.648 308.75 265.884 299.288 255.131C288.469 242.756 277.098 232.899 265.501 225.835C252.047 217.647 238.623 213.475 225.601 213.441C217.562 213.42 209.489 214.58 200.911 216.989C177.987 223.428 155.91 239.023 133.43 255.802C113.829 270.431 94.5782 288.671 77.761 308.551C59.0758 330.573 41.8544 356.08 26.5788 384.361C12.9671 409.558 0.813492 437.096 -9.53792 466.21L-9.0539 466.382C13.1951 403.856 42.5389 350.866 78.1614 308.883C94.9538 289.032 114.175 270.82 133.746 256.213C156.161 239.487 178.197 223.921 201.038 217.504C209.566 215.11 217.595 213.955 225.583 213.976C249.51 214.041 275.546 228.785 298.897 255.492C308.341 266.226 316.716 277.978 324.817 289.344C327.217 292.714 329.699 296.197 332.154 299.573C339.8 310.093 347.021 322.371 354.663 335.371C361.961 347.78 369.507 360.613 377.993 372.863C387.62 386.748 397.048 397.792 406.828 406.62C419.304 417.88 432.827 425.77 448.168 430.735C461.7 435.12 476.091 437.637 492.165 438.435C505.77 439.117 519.348 438.466 531.186 437.639Z" fill="url(#paint22_linear_2_3642)"/>
<path d="M498.368 440.966C508.828 440.234 518.835 438.917 527.77 437.649C544.216 435.334 561.45 431.705 578.997 426.867C593.023 422.967 606.832 418.324 620.366 412.956C656.639 398.538 691.892 376.3 728.144 344.969C743.951 331.307 758.736 316.762 772.521 303.036C799.73 276.025 827.219 253.726 854.2 236.786C893.885 211.874 931.637 197.466 973.009 191.444C996.984 187.998 1021.25 187.007 1045.42 188.487C1065.35 189.737 1084.4 194.78 1102.21 199.842C1106.67 201.116 1111.41 202.516 1116.31 204.01C1117.53 204.385 1118.77 204.765 1120.02 205.15C1140.57 211.49 1163.82 218.663 1192.87 216.632C1193.36 216.598 1193.85 216.563 1194.34 216.529C1213.99 214.95 1233.86 210.746 1253.08 206.675C1260.7 205.06 1268.58 203.392 1276.15 201.958C1290.95 199.159 1303.83 197.739 1315.54 197.617C1358.12 197.174 1394.63 204.882 1415.7 218.763L1416.01 218.292C1405.59 211.427 1390.84 205.87 1373.34 202.216C1356.13 198.624 1336.14 196.837 1315.53 197.051C1303.79 197.173 1290.87 198.597 1276.06 201.402C1268.47 202.837 1260.59 204.507 1252.97 206.12C1233.77 210.188 1213.91 214.394 1194.3 215.965C1164.66 218.342 1141.03 211.051 1120.19 204.619C1118.94 204.232 1117.7 203.851 1116.48 203.477C1111.58 201.989 1106.83 200.589 1102.38 199.309C1084.54 194.241 1065.45 189.187 1045.47 187.933C1021.26 186.451 996.957 187.444 972.944 190.896C952.672 193.814 932.781 198.952 913.632 206.218C893.655 213.772 874.116 223.617 853.905 236.306C826.888 253.266 799.373 275.576 772.121 302.631C758.342 316.351 743.567 330.886 727.773 344.537C691.577 375.825 656.377 398.033 620.162 412.426C606.648 417.787 592.858 422.424 578.851 426.318C561.328 431.151 544.119 434.772 527.697 437.085C500.068 440.977 470.599 444.043 440.787 435.288C425.1 430.68 411.546 422.776 399.349 411.121C377.621 390.36 362.949 360.997 350.003 335.092C343.489 322.057 337.336 309.745 330.77 299.342C328.399 295.591 326.009 291.705 323.696 287.948C316.46 276.201 308.981 264.049 300.343 252.818C290.345 239.73 279.607 229.046 268.426 221.064C255.584 211.893 242.503 206.59 229.551 205.306C221.457 204.503 213.293 204.854 204.603 206.376C180.323 210.636 156.356 224.975 134.073 239.834C113.498 253.554 93.4758 271.273 76.1727 291.073C56.9165 313.034 39.5646 338.797 24.5935 367.631C11.2064 393.416 -0.236259 421.543 -9.41603 451.231L-8.87661 451.399C10.6376 388.285 40.1921 332.973 76.6025 291.443C93.8732 271.682 113.857 253.999 134.392 240.302C156.622 225.476 180.528 211.174 204.706 206.938C213.343 205.423 221.453 205.075 229.5 205.873C253.417 208.248 278.418 225.043 299.9 253.167C308.515 264.377 315.992 276.512 323.22 288.25C325.533 292.005 327.924 295.89 330.297 299.648C336.847 310.027 342.993 322.327 349.501 335.348C362.469 361.296 377.165 390.705 398.963 411.534C411.227 423.251 424.864 431.2 440.633 435.832C454.321 439.852 468.917 441.711 485.252 441.518C489.667 441.469 494.055 441.267 498.368 440.966Z" fill="url(#paint23_linear_2_3642)"/>
<path d="M477.881 444.631L478.328 444.599C493.105 443.529 507.489 440.705 520.958 437.909C537.299 434.511 554.449 429.766 571.928 423.805C585.837 419.031 599.495 413.556 612.85 407.4C647.523 391.399 681.15 368.075 718.679 333.999C732.195 321.731 745.423 308.612 758.215 295.928L763.018 291.167C790.395 264.14 818.943 242.776 847.885 227.673C887.517 206.988 928.23 196.762 972.352 196.409C996.854 196.245 1021.31 198.503 1045.37 203.149C1063.97 206.783 1080.8 213.52 1100.86 221.947C1104.93 223.662 1109.27 225.521 1114.53 227.794L1114.82 227.922C1124.98 232.335 1136.47 237.339 1149.23 240.873C1163.87 244.92 1177.91 246.38 1192.13 245.359C1214.3 243.753 1236.64 238.042 1258.24 232.52C1263.53 231.167 1269.01 229.768 1274.3 228.479C1289.46 224.786 1302.37 222.554 1313.74 221.66C1355.62 218.361 1393.39 221.961 1417.35 231.527L1417.58 230.955C1405.84 226.263 1390.21 222.882 1372.38 221.177C1354.52 219.465 1334.22 219.416 1313.69 221.035C1302.28 221.931 1289.35 224.18 1274.15 227.871C1268.85 229.158 1263.38 230.559 1258.08 231.913C1236.51 237.429 1214.2 243.132 1192.08 244.734L1191.79 244.754C1160.14 246.966 1135.16 236.094 1115.07 227.354L1114.78 227.226C1109.52 224.955 1105.17 223.096 1101.11 221.379C1081.01 212.932 1064.16 206.184 1045.49 202.541C1021.39 197.885 996.891 195.624 972.346 195.789C950.755 195.962 930.548 198.393 910.566 203.224C889.032 208.441 868.436 216.246 847.599 227.122C818.601 242.254 789.998 263.654 762.583 290.725L757.778 295.485C744.992 308.166 731.768 321.278 718.262 333.538C680.781 367.571 647.204 390.867 612.588 406.837C599.252 412.984 585.613 418.451 571.724 423.219C554.271 429.168 537.145 433.907 520.829 437.301C491.602 443.379 462.908 448.184 433.242 440.332C417.14 436.071 403.494 428.115 391.523 416.014C369.9 394.157 356.724 362.692 345.096 334.932C339.654 321.936 334.513 309.658 328.966 299.427C326.836 295.49 324.682 291.415 322.603 287.472C316.102 275.145 309.381 262.401 301.399 250.5C292.204 236.693 282.1 225.179 271.365 216.28C259.128 206.135 246.395 199.703 233.518 197.165C225.533 195.591 217.464 195.116 208.87 195.717L208.308 195.756C181.602 197.761 154.957 211.824 134.726 223.853C113.175 236.665 92.3802 253.862 74.5913 273.581C54.7669 295.491 37.2796 321.5 22.6152 350.89C9.45675 377.261 -1.2745 405.981 -9.27819 436.249L-8.6814 436.413C3.22782 391.374 27.4204 326.638 75.0494 274C92.7981 254.325 113.542 237.171 135.042 224.389C155.226 212.395 181.776 198.374 208.356 196.382C217.106 195.718 225.296 196.181 233.392 197.777C257.253 202.481 281.221 221.33 300.882 250.851C308.845 262.725 315.559 275.458 322.053 287.768C324.132 291.713 326.282 295.791 328.419 299.729C333.951 309.935 339.087 322.196 344.522 335.179C356.17 362.99 369.371 394.513 391.08 416.457C403.129 428.639 416.867 436.646 433.078 440.939C446.823 444.565 461.483 445.777 477.881 444.631Z" fill="url(#paint24_linear_2_3642)"/>
<path d="M461.669 448.667C464.852 448.444 468.1 448.114 471.414 447.676C485.93 445.76 499.91 442.081 514.145 438.158C530.649 433.611 547.229 427.913 564.864 420.734C578.805 415.018 592.423 408.657 605.342 401.825C638.113 384.543 670.153 360.235 709.226 323.011C718.93 313.767 728.601 304.107 737.961 294.763C743.051 289.666 748.315 284.418 753.533 279.277C781.239 252.058 810.863 231.624 841.579 218.538C882.165 201.246 924.729 195.615 971.702 201.348C996.522 204.373 1021.98 210.058 1045.34 217.788C1064.1 223.997 1080.72 233.396 1098.32 243.358L1099.54 244.046C1102.29 245.606 1105.07 247.187 1107.88 248.789L1112.78 251.578C1123.04 257.457 1134.11 263.552 1146.63 267.971C1161.16 273.099 1175.33 275.131 1189.94 274.184C1214.25 272.602 1238.64 265.213 1262.23 258.076C1265.6 257.057 1269.08 256.001 1272.46 254.996C1288.32 250.28 1300.87 247.324 1311.97 245.697C1352.94 239.685 1391.97 239.175 1419.05 244.299L1419.17 243.643C1392.02 238.506 1352.92 239.013 1311.88 245.036C1300.75 246.669 1288.16 249.631 1272.28 254.356C1268.89 255.361 1265.41 256.417 1262.04 257.436C1238.74 264.492 1214.65 271.788 1190.67 273.464L1189.9 273.518C1158.86 275.531 1135.87 264.015 1113.12 251L1108.22 248.213C1105.4 246.61 1102.62 245.028 1099.88 243.467L1098.66 242.779C1081.03 232.812 1064.38 223.396 1045.55 217.167C1022.15 209.425 996.646 203.729 971.785 200.699C924.691 194.96 882.015 200.599 841.318 217.936C810.525 231.056 780.833 251.538 753.066 278.815C747.846 283.956 742.581 289.216 737.489 294.304C728.138 303.644 718.471 313.302 708.773 322.541C669.74 359.722 637.751 383.991 605.042 401.248C592.142 408.058 578.55 414.408 564.626 420.118C547.029 427.286 530.465 432.977 513.987 437.518C488.974 444.41 457.845 452.987 425.707 445.373C409.19 441.459 395.453 433.454 383.71 420.906C362.202 397.917 350.623 364.283 340.406 334.607C335.968 321.723 331.775 309.538 327.175 299.511C325.383 295.604 323.579 291.56 321.832 287.648C315.969 274.528 309.921 260.962 302.47 248.184C294.057 233.649 284.587 221.305 274.317 211.493C262.683 200.376 250.295 192.815 237.503 189.023C229.228 186.582 220.66 185.275 212.034 185.139C200.08 184.894 187.516 186.927 173.624 191.345C161.854 195.072 149.353 200.482 135.383 207.865C112.858 219.77 91.2904 236.444 73.0076 256.084C52.6122 277.937 34.9903 304.2 20.6345 334.142C7.70699 361.105 -2.31112 390.417 -9.13667 421.262L-8.48563 421.406C5.93555 356.286 35.0515 297.735 73.501 256.538C91.7217 236.954 113.23 220.323 135.69 208.456C165.786 192.553 190.031 185.354 212 185.805C220.567 185.94 229.075 187.238 237.293 189.663C267.735 198.681 289.216 226.644 301.875 248.516C309.31 261.268 315.356 274.818 321.206 287.922C322.951 291.835 324.759 295.881 326.552 299.792C331.137 309.779 335.314 321.951 339.757 334.827C349.996 364.564 361.6 398.272 383.206 421.364C395.04 434.012 408.887 442.078 425.532 446.029C436.827 448.694 448.725 449.571 461.669 448.667Z" fill="url(#paint25_linear_2_3642)"/>
<path d="M447.679 452.98C469.368 451.464 489.831 444.432 507.337 438.418C523.809 432.76 540.313 425.974 557.793 417.675C571.593 411.082 585.065 403.884 597.823 396.282C636.081 373.518 669.428 342.347 699.763 312.056C705.959 305.871 712.206 299.505 718.241 293.351C726.631 284.803 735.307 275.965 744.021 267.429C772.156 239.916 802.849 220.407 835.245 209.43C877.157 195.23 921.568 194.209 971.029 206.312C996.491 212.543 1022.16 221.581 1045.27 232.456C1063.1 240.839 1078.45 251.92 1094.71 263.652L1098.18 266.151L1098.81 266.606C1102.77 269.461 1106.85 272.412 1111 275.371C1120.92 282.494 1131.82 289.82 1144.19 295.135C1158.56 301.302 1172.8 303.884 1187.71 303.019C1213.89 301.516 1240.03 292.298 1265.31 283.384C1267.08 282.76 1268.84 282.139 1270.6 281.522C1287.27 275.668 1299.48 272.036 1310.17 269.742C1349.93 261.22 1390.21 256.598 1420.7 257.068L1420.71 256.35C1390.18 255.883 1349.83 260.512 1310.02 269.046C1299.29 271.346 1287.06 274.98 1270.36 280.848L1265.06 282.713C1239.83 291.609 1213.74 300.805 1187.66 302.306C1155.28 304.158 1131.32 289.075 1111.41 274.783C1107.27 271.824 1103.18 268.873 1099.23 266.02L1098.6 265.565L1095.13 263.066C1078.85 251.313 1063.46 240.214 1045.57 231.804C1022.43 220.916 996.706 211.862 971.197 205.62C947.75 199.881 925.912 197.148 904.438 197.266C880.484 197.397 857.127 201.262 835.013 208.756C802.511 219.766 771.73 239.334 743.521 266.907C734.801 275.454 726.124 284.294 717.731 292.844C711.692 298.999 705.445 305.363 699.253 311.545C668.952 341.796 635.647 372.932 597.458 395.656C584.713 403.247 571.265 410.433 557.485 417.016C540.029 425.303 523.551 432.079 507.105 437.729C481.854 446.404 450.427 457.202 418.154 450.408C401.212 446.851 387.392 438.792 375.879 425.791C354.496 401.643 344.618 365.768 335.903 334.115C332.402 321.4 329.093 309.386 325.367 299.6C323.989 295.986 322.598 292.233 321.252 288.61C315.987 274.44 310.542 259.786 303.523 245.861C295.877 230.59 287.039 217.412 277.257 206.7C266.218 194.61 254.176 185.924 241.466 180.882C233.216 177.608 224.561 175.467 215.737 174.517C203.531 173.158 190.156 174.167 176.006 177.515C163.606 180.443 150.168 185.281 136.048 191.886C112.546 202.881 90.2047 219.033 71.4381 238.593C50.4681 260.389 32.7134 286.906 18.6664 317.403C5.97399 344.957 -3.33099 374.86 -8.99303 406.281L-8.28331 406.409C3.7107 339.824 32.2078 280.411 71.9547 239.082C90.6598 219.586 112.929 203.488 136.349 192.526C166.712 178.321 192.651 172.661 215.655 175.232C224.416 176.175 233.009 178.301 241.2 181.55C271.441 193.547 291.432 223.321 302.878 246.184C309.88 260.076 315.317 274.708 320.575 288.857C321.922 292.474 323.314 296.229 324.693 299.854C328.409 309.615 331.71 321.611 335.207 334.312C339.401 349.54 344.154 366.799 350.423 382.852C357.605 401.246 365.756 415.449 375.34 426.274C380.882 432.532 387.113 437.753 393.861 441.79C401.118 446.134 409.242 449.272 418.008 451.117C428.036 453.225 437.982 453.658 447.679 452.98Z" fill="url(#paint26_linear_2_3642)"/>
<path d="M435.114 457.501C442.292 456.999 449.748 455.777 457.588 453.829C473.025 449.992 487.637 443.971 500.53 438.665C516.781 431.962 533.67 423.872 550.73 414.6C564.378 407.146 577.695 399.109 590.313 390.717C626.526 366.647 657.024 335.881 690.306 301.078C693.264 297.985 696.259 294.83 699.172 291.779C710.603 279.767 722.427 267.347 734.531 255.546C763.135 227.716 794.893 209.132 828.92 200.313C871.835 189.189 919.434 192.872 970.365 211.26C996.499 220.698 1022.39 233.087 1045.21 247.095C1062.41 257.644 1076.85 270.483 1092.14 284.079C1093.7 285.45 1095.27 286.837 1096.83 288.239C1100.74 291.706 1104.94 295.425 1109.22 299.144C1118.18 306.97 1129.06 315.845 1141.75 322.284C1155.97 329.491 1170.28 332.624 1185.48 331.86C1213.32 330.464 1240.98 319.279 1267.72 308.465L1268.74 308.051C1281.83 302.757 1295.7 297.366 1308.38 293.793C1347.04 282.905 1387.52 274.391 1422.37 269.821L1422.27 269.057C1387.38 273.63 1346.86 282.163 1308.17 293.049C1295.46 296.633 1281.56 302.034 1268.45 307.337L1267.43 307.749C1240.74 318.541 1213.15 329.699 1185.44 331.09C1153.45 332.695 1130.14 316.402 1109.72 298.565C1105.45 294.846 1101.24 291.118 1097.34 287.662C1095.77 286.273 1094.21 284.888 1092.66 283.505C1077.34 269.886 1062.87 257.022 1045.62 246.44C1022.74 232.399 996.81 219.987 970.625 210.529C946.732 201.892 923.43 196.436 901.369 194.284C876.164 191.826 851.723 193.6 828.727 199.568C794.569 208.421 762.694 227.067 733.991 254.992C721.878 266.804 710.051 279.231 698.603 291.248C695.7 294.3 692.697 297.453 689.739 300.544C656.488 335.315 626.023 366.049 589.875 390.076C577.27 398.457 563.979 406.479 550.351 413.924C533.317 423.183 516.452 431.266 500.227 437.952C474.785 448.434 443.133 461.478 410.597 455.455C393.246 452.242 379.328 444.142 368.058 430.689C346.808 405.344 338.385 365.491 331.618 333.461C328.982 320.989 326.491 309.209 323.566 299.681C322.645 296.678 321.709 293.583 320.808 290.597C316.112 275.052 311.257 258.959 304.582 243.544C294.262 219.544 275.63 187.785 245.442 172.737C237.221 168.621 228.477 165.645 219.452 163.892C195.496 159.1 167.658 163.138 136.709 175.892C112.233 185.979 89.1163 201.6 69.8603 221.088C48.3176 242.829 30.4287 269.609 16.6838 300.653C10.2664 315.228 4.91052 330.248 0.658299 345.595C-3.5099 360.602 -6.68663 375.867 -8.85138 391.291L-8.08946 391.398C1.47381 323.356 29.3508 263.065 70.4074 221.631C89.5927 202.223 112.622 186.654 137.002 176.605C167.807 163.911 195.498 159.887 219.301 164.649C228.259 166.388 236.938 169.342 245.098 173.427C275.073 188.37 293.605 219.967 303.869 243.843C310.527 259.221 315.376 275.281 320.065 290.814C320.969 293.81 321.902 296.905 322.825 299.91C325.739 309.395 328.227 321.168 330.858 333.623C334.264 349.737 338.123 368.002 343.731 385.099C350.177 404.748 357.939 419.821 367.462 431.178C372.894 437.657 379.09 443.008 385.886 447.081C393.2 451.472 401.469 454.541 410.466 456.206C418.363 457.666 426.528 458.101 435.114 457.501Z" fill="url(#paint27_linear_2_3642)"/>
<path d="M423.568 462.163C432.162 461.562 441.147 459.813 450.674 456.904C466.107 452.191 480.778 445.133 493.727 438.905C510.026 431.068 526.828 421.854 543.67 411.521C557.165 403.21 570.333 394.334 582.807 385.144C617.13 359.862 645.886 328.385 676.329 295.048L680.855 290.093C695.012 274.607 709.653 258.6 725.035 243.666C754.149 215.472 786.972 197.815 822.595 191.186C867.343 182.856 916.837 191.271 969.706 216.194C996.149 228.661 1022.95 244.838 1045.17 261.726C1061.95 274.483 1075.72 289.194 1090.3 304.77C1092.02 306.613 1093.75 308.462 1095.5 310.316C1098.98 314.025 1103.12 318.421 1107.45 322.911C1115.47 331.25 1126.34 341.793 1139.33 349.399C1153.4 357.632 1167.78 361.325 1183.28 360.685C1196.02 360.114 1209.92 357.174 1225.76 351.683C1239.37 346.972 1252.44 341.144 1266.9 334.564C1280.1 328.501 1294.03 322.212 1306.62 317.824C1343.9 304.826 1383.4 292.96 1424.05 282.559L1423.85 281.761C1383.18 292.17 1343.65 304.041 1306.34 317.047C1293.72 321.448 1279.77 327.744 1266.56 333.817C1242.33 344.844 1212.17 358.571 1183.25 359.865C1150.16 361.228 1127.56 342.636 1108.04 322.34C1103.72 317.854 1099.58 313.449 1096.1 309.753C1094.35 307.9 1092.62 306.052 1090.9 304.208C1076.29 288.607 1062.5 273.871 1045.67 261.073C1023.4 244.142 996.55 227.942 970.056 215.45C917.029 190.451 867.364 182.018 822.446 190.376C805.101 193.622 788.34 199.45 772.721 207.664C755.8 216.534 739.563 228.447 724.464 243.071C709.062 258.015 694.413 274.032 680.247 289.536L675.721 294.488C645.307 327.795 616.578 359.253 582.317 384.477C569.863 393.654 556.715 402.516 543.239 410.817C526.421 421.134 509.643 430.334 493.372 438.161C467.796 450.463 435.968 465.772 403.065 460.482C385.243 457.617 371.236 449.468 360.242 435.571C339.084 409.038 332.684 366.696 327.541 332.674C325.703 320.503 323.964 309.01 321.77 299.772C321.318 297.865 320.865 295.949 320.41 294.022C316.308 276.617 312.058 258.623 305.645 241.219C296.475 216.182 279.286 182.565 249.423 164.598C241.23 159.645 232.398 155.835 223.174 153.273C210.201 149.605 195.945 148.452 180.809 149.844C166.99 151.111 152.377 154.497 137.378 159.906C111.915 169.084 88.0328 184.189 68.2844 203.591C46.1666 225.273 28.1425 252.298 14.7134 283.91C8.43821 298.753 3.33338 314.064 -0.554067 329.703C-4.37689 345.026 -7.10224 360.602 -8.70963 376.312L-7.89165 376.397C-0.879038 307.897 27.097 245.127 68.8618 204.183C88.5341 184.873 112.313 169.823 137.653 160.686C168.896 149.419 198.39 147.135 222.95 154.076C232.103 156.619 240.866 160.4 248.997 165.313C278.653 183.155 295.75 216.599 304.87 241.512C311.265 258.872 315.506 276.845 319.606 294.221C320.062 296.149 320.516 298.066 320.966 299.972C323.154 309.178 324.885 320.655 326.724 332.807C331.881 366.927 338.3 409.39 359.596 436.092C364.895 442.793 371.056 448.278 377.904 452.393C385.274 456.825 393.695 459.819 402.933 461.305C409.756 462.382 416.68 462.67 423.568 462.163Z" fill="url(#paint28_linear_2_3642)"/>
<path d="M412.748 466.933C422.539 466.249 432.802 463.94 443.76 459.979C459.263 454.374 473.957 446.286 486.921 439.152C503.302 430.134 520.018 419.804 536.602 408.447C549.938 399.289 562.954 389.577 575.293 379.578C605.677 354.967 631.065 325.644 657.945 294.599C662.331 289.526 666.882 284.285 671.395 279.117C687.254 260.981 700.831 245.991 715.537 231.792C745.176 203.215 779.064 186.484 816.261 182.061C863.006 176.503 914.407 189.649 969.034 221.133C996.176 236.775 1023.19 256.388 1045.11 276.363C1061.62 291.41 1074.88 308.119 1088.91 325.809C1090.64 328.001 1092.39 330.198 1094.15 332.401C1097.27 336.328 1101.41 341.502 1105.67 346.683C1123.61 368.534 1146.58 390.722 1181.07 389.522C1182.14 389.479 1183.22 389.423 1184.29 389.347C1211.16 387.469 1237.83 374.92 1265.05 361.085L1266.75 360.216C1280.23 353.312 1292.97 346.792 1304.83 341.864C1349.55 323.293 1392.93 307.224 1425.72 295.3L1425.42 294.478C1392.62 306.406 1349.23 322.48 1304.5 341.056C1292.6 345.997 1279.85 352.526 1266.35 359.438L1264.66 360.307C1236.44 374.648 1208.81 387.609 1181.03 388.647C1146.94 389.827 1124.14 367.815 1106.35 346.126C1102.1 340.951 1097.96 335.787 1094.84 331.855C1093.09 329.655 1091.34 327.458 1089.61 325.264C1075.55 307.546 1062.28 290.809 1045.71 275.715C1023.75 255.701 996.682 236.047 969.488 220.376C944.236 205.831 919.251 195.052 895.207 188.334C867.631 180.633 841.03 178.227 816.148 181.187C778.757 185.631 744.697 202.443 714.919 231.155C700.19 245.378 686.6 260.381 670.725 278.533C666.212 283.697 661.667 288.944 657.274 294.019C630.421 325.034 605.057 354.328 574.732 378.891C562.413 388.874 549.414 398.573 536.098 407.719C519.537 419.061 502.845 429.374 486.487 438.378C460.81 452.512 428.853 470.099 395.505 465.519C377.274 463.014 363.179 454.818 352.41 440.46C331.403 412.641 327.116 367.742 323.673 331.666C322.549 319.895 321.487 308.775 319.955 299.865L319.921 299.662C316.485 279.699 312.934 259.071 306.691 238.903C301.275 221.309 294.349 205.633 286.107 192.309C276.813 177.291 265.805 165.228 253.387 156.459C245.224 150.663 236.305 146.015 226.879 142.645C201.133 133.335 170.405 133.768 138.028 143.908C124.802 148.074 112.098 153.745 100.166 160.81C88.0808 167.93 76.8491 176.408 66.6895 186.081C43.9948 207.707 25.8378 234.984 12.7183 267.159C0.930967 296.075 -6.44055 328.634 -8.5848 361.319L-7.71325 361.375C-3.12252 291.425 24.2181 227.764 67.2947 186.716C87.4576 167.496 112.006 152.982 138.302 144.755C170.496 134.685 201.027 134.241 226.595 143.487C235.949 146.829 244.801 151.437 252.903 157.183C276.09 173.557 294.408 201.902 305.877 239.166C312.104 259.281 315.651 279.89 319.08 299.817L319.115 300.021C320.643 308.9 321.703 320.004 322.824 331.758C326.279 367.945 330.577 412.979 351.732 440.996C356.923 447.916 363.051 453.532 369.941 457.685C377.371 462.162 385.939 465.093 395.408 466.393C401.154 467.171 406.965 467.352 412.748 466.933Z" fill="url(#paint29_linear_2_3642)"/>
<path d="M1182.43 418.176C1194.44 417.336 1207.36 414.081 1221.78 408.269C1236.12 402.495 1250.16 394.924 1263.21 387.605C1265.57 386.273 1267.91 384.947 1270.24 383.626C1281.82 377.058 1292.77 370.855 1303.05 365.901C1344.07 346.146 1383.23 328.234 1421.1 310.911L1427.38 308.04L1426.99 307.199L1420.72 310.07C1382.84 327.393 1343.68 345.31 1302.65 365.068C1292.34 370.036 1281.38 376.244 1269.78 382.827C1267.46 384.145 1265.11 385.471 1262.75 386.804C1235.98 401.83 1207.44 416.572 1178.82 417.436C1143.65 418.427 1120.71 392.564 1104.66 369.923C1100.55 364.131 1096.58 358.354 1093.58 353.967C1091.92 351.547 1090.27 349.132 1088.63 346.722C1075.01 326.74 1062.15 307.865 1045.74 290.368C1024.09 267.267 996.802 244.163 968.896 225.303C943.011 207.805 917.184 194.355 892.13 185.331C863.393 174.971 835.718 170.497 809.874 172.013C770.976 174.151 735.819 190.043 705.386 219.25C688.522 235.457 673.596 252.758 661.218 267.546C654.483 275.593 647.759 283.829 641.258 291.793C618.244 319.995 594.445 349.143 567.157 373.317C554.969 384.117 542.122 394.651 528.97 404.641C512.694 416.966 496.09 428.397 479.614 438.616C453.865 454.586 421.819 474.465 387.954 470.571C369.315 468.43 355.13 460.186 344.586 445.361C323.739 416.203 321.686 368.672 320.036 330.481C319.549 319.177 319.088 308.518 318.149 299.969C316.026 280.696 313.299 258.315 307.742 236.597C303.058 218.191 296.77 201.683 289.06 187.532C280.336 171.524 269.67 158.338 257.359 148.339C249.216 141.723 240.212 136.244 230.594 132.053C216.89 126.063 201.751 122.753 185.594 122.211C170.466 121.708 154.686 123.632 138.692 127.927C111.255 135.364 86.0163 149.311 65.1179 168.585C53.2682 179.569 42.5575 192.309 33.2846 206.454C24.4993 219.849 16.9126 234.647 10.7457 250.416C-0.794663 279.916 -7.43298 313.086 -8.43904 346.338L-7.51576 346.366C-5.35353 274.964 21.3499 210.413 65.7467 169.265C86.0788 150.399 112.064 136.036 138.931 128.821C172.148 119.902 203.715 121.309 230.224 132.895C239.772 137.055 248.71 142.493 256.793 149.061C279.99 167.902 296.836 197.432 306.865 236.829C312.403 258.5 315.127 280.831 317.243 300.074C318.181 308.592 318.641 319.245 319.126 330.524C319.941 349.365 320.863 370.721 324.208 391.189C328.089 414.946 334.513 432.842 343.846 445.889C348.932 453.035 355.024 458.781 361.957 462.97C369.448 467.497 378.162 470.357 387.86 471.466C392.69 472.013 397.559 472.113 402.407 471.765C431.135 469.756 457.947 453.126 480.11 439.377C496.609 429.153 513.238 417.695 529.535 405.352C542.707 395.36 555.572 384.807 567.78 373.99C595.122 349.768 618.943 320.583 641.982 292.359C648.481 284.397 655.203 276.163 661.929 268.121C674.293 253.352 689.196 236.076 706.026 219.892C736.285 190.843 771.238 175.041 809.914 172.911C870.644 169.35 929.602 199.838 968.367 226.045C996.235 244.893 1023.46 267.95 1045.07 290.994C1061.43 308.439 1074.27 327.284 1087.87 347.237C1089.51 349.648 1091.16 352.064 1092.81 354.484C1095.82 358.873 1099.79 364.656 1103.91 370.452C1110.64 379.956 1121.14 393.742 1134.47 403.697C1140.94 408.528 1147.72 412.21 1154.63 414.634C1162.4 417.351 1170.62 418.613 1178.85 418.358C1180.04 418.319 1181.23 418.258 1182.43 418.176Z" fill="url(#paint30_linear_2_3642)"/>
<path d="M1180.57 447.006C1192.59 446.165 1205.47 442.733 1219.79 436.562C1234.62 430.165 1249.13 421.633 1261.36 414.123C1265.12 411.812 1268.87 409.475 1272.5 407.208C1282.63 400.88 1292.21 394.904 1301.28 389.941C1333.86 372.099 1366.25 354.637 1397.58 337.751C1407.94 332.166 1418.65 326.382 1429.04 320.783L1428.57 319.924C1418.18 325.531 1407.47 331.306 1397.11 336.891C1365.78 353.78 1333.39 371.237 1300.8 389.084C1291.7 394.066 1282.11 400.048 1271.97 406.383C1268.34 408.647 1264.6 410.984 1260.84 413.296C1235.47 428.869 1205.95 445.541 1176.6 446.217C1140.59 447.007 1118.33 418.568 1102.97 393.705C1099.03 387.336 1095.21 380.932 1092.31 376.065C1090.83 373.567 1089.35 371.072 1087.88 368.579C1074.63 346.182 1062.1 325.024 1045.78 305.002C1024.54 278.97 997.036 252.413 968.319 230.225C928.339 199.471 867.308 162.813 803.597 162.826C763.071 162.761 726.826 177.734 695.867 207.332C681.958 220.634 668.345 235.812 651.723 256.542C643.321 267.025 635.018 277.849 626.984 288.32C606.09 315.563 584.486 343.735 559.599 367.729C547.54 379.353 534.842 390.728 521.855 401.535C506.128 414.609 489.608 427.156 472.757 438.827C446.866 456.657 414.644 478.848 380.42 475.598C361.66 473.879 346.977 465.351 336.781 450.252C316.096 419.697 316.414 367.322 316.649 329.077C316.724 318.352 316.775 308.21 316.358 300.065C315.431 281.964 313.738 258.128 308.819 234.283C300.321 192.954 284.343 161.304 261.351 140.206C253.247 132.742 244.155 126.428 234.331 121.441C220.294 114.289 204.711 109.905 188.021 108.425C172.294 107.026 155.93 108.209 139.378 111.943C125.339 115.169 111.758 120.14 98.9528 126.738C86.1524 133.292 74.2548 141.476 63.5568 151.087C51.4224 162.037 40.5316 174.827 31.1905 189.117C22.3369 202.657 14.7969 217.65 8.78188 233.674C-2.51131 263.761 -8.41212 297.545 -8.28234 331.361L-7.30566 331.356C-7.5844 258.498 18.4754 193.057 64.2114 151.812C84.9438 133.102 111.715 119.28 139.591 112.895C173.966 105.132 206.572 108.398 233.882 122.311C243.628 127.259 252.647 133.522 260.687 140.926C283.533 161.882 299.404 193.356 307.86 234.48C312.762 258.256 314.454 282.051 315.379 300.115C315.796 308.231 315.733 318.355 315.668 329.073C315.547 348.841 315.411 371.247 317.902 392.941C320.802 418.2 326.713 437.125 335.962 450.8C340.944 458.176 347.004 464.06 353.974 468.29C361.53 472.876 370.396 475.662 380.315 476.572C395.71 478.034 411.931 474.618 429.905 466.132C445.529 458.754 460.281 448.597 473.298 439.632C490.172 427.939 506.716 415.381 522.466 402.288C535.471 391.465 548.189 380.081 560.262 368.433C585.199 344.39 606.828 316.188 627.745 288.916C635.775 278.447 644.076 267.623 652.47 257.154C669.064 236.459 682.652 221.312 696.527 208.039C727.313 178.632 763.329 163.745 803.596 163.816C867.035 163.801 927.865 200.349 967.725 231.011C996.383 253.155 1023.83 279.656 1045.02 305.632C1061.3 325.591 1073.8 346.717 1087.04 369.075C1088.51 371.568 1089.99 374.063 1091.48 376.561C1094.37 381.434 1098.2 387.841 1102.14 394.216C1117.64 419.299 1140.11 447.989 1176.64 447.188C1177.94 447.159 1179.25 447.098 1180.57 447.006Z" fill="url(#paint31_linear_2_3642)"/>
<path d="M1178.63 475.843C1211.49 473.546 1244.55 450.952 1273.86 430.92C1282.87 424.764 1291.37 418.952 1299.5 413.97L1430.69 333.517L1430.16 332.641L1298.97 413.092C1290.82 418.088 1282.3 423.909 1273.29 430.07C1242.84 450.876 1208.33 474.457 1174.41 474.997C1137.57 475.58 1115.97 444.574 1101.28 417.495C1096.47 408.641 1091.79 399.605 1087.27 390.883C1074.91 367.01 1062.12 342.323 1045.81 319.657C1032.86 301.658 1017.03 282.939 1000.03 265.527C981.385 246.422 961.634 229.08 941.332 213.983C918.951 197.338 896.433 183.849 874.408 173.894C850.046 162.88 826.336 156.227 803.942 154.144C759.076 149.952 719.5 163.84 686.335 195.426C658.772 221.678 635.998 253.337 613.973 283.958C594.802 310.613 574.979 338.176 552.024 362.154C525.357 389.99 496.559 415.703 465.892 439.057C440.061 458.72 407.934 483.187 372.875 480.642C343.263 478.497 324.942 460.059 316.864 424.28C309.995 393.838 311.93 357.041 313.49 327.465C314.022 317.386 314.523 307.866 314.559 300.179C314.755 257.764 310.314 223.073 300.982 194.124C295.161 176.064 287.321 160.149 277.684 146.821C266.915 131.936 253.581 119.831 238.053 110.836C224.618 103.061 209.718 97.7678 193.771 95.1225C178.588 92.5969 162.781 92.5 146.79 94.8342C115.341 99.4241 85.2253 113.189 61.9917 133.591C49.5636 144.498 38.508 157.347 29.0903 171.78C20.1683 185.461 12.6752 200.655 6.81414 216.936C-4.23267 247.6 -9.39169 281.999 -8.12968 316.386L-7.10179 316.349C-9.7948 243.125 16.2921 175.093 62.6661 134.367C111.918 91.1144 185.461 81.5946 237.535 111.73C289.119 141.582 313.976 203.22 313.525 300.169C313.491 307.838 312.989 317.345 312.458 327.412C310.896 357.049 308.953 393.935 315.855 424.507C319.615 441.149 325.755 454.325 334.102 463.637C338.693 468.796 344.256 472.998 350.473 476.003C357.04 479.164 364.55 481.072 372.796 481.668C376.203 481.914 379.623 481.916 383.03 481.674C395.609 480.795 408.783 476.677 423.013 469.205C439.047 460.786 454.273 449.194 466.511 439.876C497.224 416.489 526.064 390.74 552.771 362.865C575.773 338.834 595.619 311.243 614.809 284.559C636.807 253.975 659.553 222.349 687.047 196.17C719.994 164.799 759.291 151.003 803.849 155.167C893.98 163.589 992.025 246.649 1044.99 320.257C1061.25 342.862 1074.02 367.515 1086.37 391.357C1090.9 400.09 1095.57 409.122 1100.39 417.986C1110.15 435.962 1119.44 448.674 1129.61 457.983C1135.96 463.796 1142.73 468.252 1149.71 471.234C1157.52 474.558 1165.95 476.19 1174.43 476.023C1175.83 476.003 1177.23 475.943 1178.63 475.843Z" fill="url(#paint32_linear_2_3642)"/>
</g>
<defs>
<linearGradient id="paint0_linear_2_3642" x1="654.818" y1="201.332" x2="680.107" y2="563.089" gradientUnits="userSpaceOnUse">
<stop stop-color="#C1DAFF"/>
<stop offset="1" stop-color="#A9B9D0" stop-opacity="0"/>
</linearGradient>
<linearGradient id="paint1_linear_2_3642" x1="656.085" y1="192.237" x2="681.198" y2="551.472" gradientUnits="userSpaceOnUse">
<stop stop-color="#C1DAFF"/>
<stop offset="1" stop-color="#A9B9D0" stop-opacity="0"/>
</linearGradient>
<linearGradient id="paint2_linear_2_3642" x1="657.356" y1="183.07" x2="682.315" y2="540.105" gradientUnits="userSpaceOnUse">
<stop stop-color="#C1DAFF"/>
<stop offset="1" stop-color="#A9B9D0" stop-opacity="0"/>
</linearGradient>
<linearGradient id="paint3_linear_2_3642" x1="658.629" y1="173.886" x2="683.739" y2="533.077" gradientUnits="userSpaceOnUse">
<stop stop-color="#C1DAFF"/>
<stop offset="1" stop-color="#A9B9D0" stop-opacity="0"/>
</linearGradient>
<linearGradient id="paint4_linear_2_3642" x1="659.922" y1="164.669" x2="685.532" y2="531.01" gradientUnits="userSpaceOnUse">
<stop stop-color="#C1DAFF"/>
<stop offset="1" stop-color="#A9B9D0" stop-opacity="0"/>
</linearGradient>
<linearGradient id="paint5_linear_2_3642" x1="661.217" y1="155.4" x2="687.33" y2="528.942" gradientUnits="userSpaceOnUse">
<stop stop-color="#C1DAFF"/>
<stop offset="1" stop-color="#A9B9D0" stop-opacity="0"/>
</linearGradient>
<linearGradient id="paint6_linear_2_3642" x1="662.534" y1="146.117" x2="689.151" y2="526.873" gradientUnits="userSpaceOnUse">
<stop stop-color="#C1DAFF"/>
<stop offset="1" stop-color="#A9B9D0" stop-opacity="0"/>
</linearGradient>
<linearGradient id="paint7_linear_2_3642" x1="663.863" y1="136.769" x2="690.99" y2="524.803" gradientUnits="userSpaceOnUse">
<stop stop-color="#C1DAFF"/>
<stop offset="1" stop-color="#A9B9D0" stop-opacity="0"/>
</linearGradient>
<linearGradient id="paint8_linear_2_3642" x1="665.191" y1="127.391" x2="692.828" y2="522.732" gradientUnits="userSpaceOnUse">
<stop stop-color="#C1DAFF"/>
<stop offset="1" stop-color="#A9B9D0" stop-opacity="0"/>
</linearGradient>
<linearGradient id="paint9_linear_2_3642" x1="666.541" y1="117.973" x2="694.692" y2="520.66" gradientUnits="userSpaceOnUse">
<stop stop-color="#C1DAFF"/>
<stop offset="1" stop-color="#A9B9D0" stop-opacity="0"/>
</linearGradient>
<linearGradient id="paint10_linear_2_3642" x1="667.92" y1="108.542" x2="696.585" y2="518.585" gradientUnits="userSpaceOnUse">
<stop stop-color="#C1DAFF"/>
<stop offset="1" stop-color="#A9B9D0" stop-opacity="0"/>
</linearGradient>
<linearGradient id="paint11_linear_2_3642" x1="669.312" y1="99.0633" x2="698.495" y2="516.51" gradientUnits="userSpaceOnUse">
<stop stop-color="#C1DAFF"/>
<stop offset="1" stop-color="#A9B9D0" stop-opacity="0"/>
</linearGradient>
<linearGradient id="paint12_linear_2_3642" x1="670.724" y1="89.538" x2="700.427" y2="514.431" gradientUnits="userSpaceOnUse">
<stop stop-color="#C1DAFF"/>
<stop offset="1" stop-color="#A9B9D0" stop-opacity="0"/>
</linearGradient>
<linearGradient id="paint13_linear_2_3642" x1="672.162" y1="79.9799" x2="702.388" y2="512.352" gradientUnits="userSpaceOnUse">
<stop stop-color="#C1DAFF"/>
<stop offset="1" stop-color="#A9B9D0" stop-opacity="0"/>
</linearGradient>
<linearGradient id="paint14_linear_2_3642" x1="673.641" y1="70.3841" x2="704.393" y2="510.278" gradientUnits="userSpaceOnUse">
<stop stop-color="#C1DAFF"/>
<stop offset="1" stop-color="#A9B9D0" stop-opacity="0"/>
</linearGradient>
<linearGradient id="paint15_linear_2_3642" x1="675.152" y1="60.7598" x2="706.43" y2="508.185" gradientUnits="userSpaceOnUse">
<stop stop-color="#C1DAFF"/>
<stop offset="1" stop-color="#A9B9D0" stop-opacity="0"/>
</linearGradient>
<linearGradient id="paint16_linear_2_3642" x1="676.701" y1="51.0807" x2="708.51" y2="506.098" gradientUnits="userSpaceOnUse">
<stop stop-color="#C1DAFF"/>
<stop offset="1" stop-color="#A9B9D0" stop-opacity="0"/>
</linearGradient>
<linearGradient id="paint17_linear_2_3642" x1="679.644" y1="79.4269" x2="708.426" y2="491.134" gradientUnits="userSpaceOnUse">
<stop stop-color="#C1DAFF"/>
<stop offset="1" stop-color="#A9B9D0" stop-opacity="0"/>
</linearGradient>
<linearGradient id="paint18_linear_2_3642" x1="682.601" y1="107.67" x2="708.361" y2="476.164" gradientUnits="userSpaceOnUse">
<stop stop-color="#C1DAFF"/>
<stop offset="1" stop-color="#A9B9D0" stop-opacity="0"/>
</linearGradient>
<linearGradient id="paint19_linear_2_3642" x1="685.533" y1="135.685" x2="708.289" y2="461.194" gradientUnits="userSpaceOnUse">
<stop stop-color="#C1DAFF"/>
<stop offset="1" stop-color="#A9B9D0" stop-opacity="0"/>
</linearGradient>
<linearGradient id="paint20_linear_2_3642" x1="688.359" y1="162.289" x2="708.208" y2="446.223" gradientUnits="userSpaceOnUse">
<stop stop-color="#C1DAFF"/>
<stop offset="1" stop-color="#A9B9D0" stop-opacity="0"/>
</linearGradient>
<linearGradient id="paint21_linear_2_3642" x1="690.71" y1="182.049" x2="708.13" y2="431.247" gradientUnits="userSpaceOnUse">
<stop stop-color="#C1DAFF"/>
<stop offset="1" stop-color="#A9B9D0" stop-opacity="0"/>
</linearGradient>
<linearGradient id="paint22_linear_2_3642" x1="691.585" y1="180.649" x2="708.683" y2="425.23" gradientUnits="userSpaceOnUse">
<stop stop-color="#C1DAFF"/>
<stop offset="1" stop-color="#A9B9D0" stop-opacity="0"/>
</linearGradient>
<linearGradient id="paint23_linear_2_3642" x1="691.902" y1="171.758" x2="709.689" y2="426.193" gradientUnits="userSpaceOnUse">
<stop stop-color="#C1DAFF"/>
<stop offset="1" stop-color="#A9B9D0" stop-opacity="0"/>
</linearGradient>
<linearGradient id="paint24_linear_2_3642" x1="692.152" y1="161.932" x2="710.776" y2="428.35" gradientUnits="userSpaceOnUse">
<stop stop-color="#C1DAFF"/>
<stop offset="1" stop-color="#A9B9D0" stop-opacity="0"/>
</linearGradient>
<linearGradient id="paint25_linear_2_3642" x1="692.345" y1="151.171" x2="711.919" y2="431.172" gradientUnits="userSpaceOnUse">
<stop stop-color="#C1DAFF"/>
<stop offset="1" stop-color="#A9B9D0" stop-opacity="0"/>
</linearGradient>
<linearGradient id="paint26_linear_2_3642" x1="692.456" y1="139.585" x2="713.068" y2="434.427" gradientUnits="userSpaceOnUse">
<stop stop-color="#C1DAFF"/>
<stop offset="1" stop-color="#A9B9D0" stop-opacity="0"/>
</linearGradient>
<linearGradient id="paint27_linear_2_3642" x1="692.54" y1="127.152" x2="714.269" y2="437.986" gradientUnits="userSpaceOnUse">
<stop stop-color="#C1DAFF"/>
<stop offset="1" stop-color="#A9B9D0" stop-opacity="0"/>
</linearGradient>
<linearGradient id="paint28_linear_2_3642" x1="692.614" y1="114.031" x2="715.524" y2="441.754" gradientUnits="userSpaceOnUse">
<stop stop-color="#C1DAFF"/>
<stop offset="1" stop-color="#A9B9D0" stop-opacity="0"/>
</linearGradient>
<linearGradient id="paint29_linear_2_3642" x1="692.625" y1="100.273" x2="716.771" y2="445.68" gradientUnits="userSpaceOnUse">
<stop stop-color="#C1DAFF"/>
<stop offset="1" stop-color="#A9B9D0" stop-opacity="0"/>
</linearGradient>
<linearGradient id="paint30_linear_2_3642" x1="692.608" y1="85.9992" x2="718.099" y2="450.636" gradientUnits="userSpaceOnUse">
<stop stop-color="#C1DAFF"/>
<stop offset="1" stop-color="#A9B9D0" stop-opacity="0"/>
</linearGradient>
<linearGradient id="paint31_linear_2_3642" x1="692.568" y1="71.3089" x2="721.077" y2="479.127" gradientUnits="userSpaceOnUse">
<stop stop-color="#C1DAFF"/>
<stop offset="1" stop-color="#A9B9D0" stop-opacity="0"/>
</linearGradient>
<linearGradient id="paint32_linear_2_3642" x1="692.496" y1="56.2261" x2="724.052" y2="507.622" gradientUnits="userSpaceOnUse">
<stop stop-color="#C1DAFF"/>
<stop offset="1" stop-color="#A9B9D0" stop-opacity="0"/>
</linearGradient>
<clipPath id="clip0_2_3642">
<rect width="1488" height="511" fill="white" transform="matrix(-0.997565 0.069737 0.069737 0.997565 1407.38 0)"/>
</clipPath>
</defs>
</svg>
