<svg width="393" height="59" viewBox="0 0 393 59" fill="none" xmlns="http://www.w3.org/2000/svg">
<path d="M0.512 28.934C0.512 25.802 1.142 23.066 2.402 20.726C3.698 18.386 5.48 16.586 7.748 15.326C10.052 14.066 12.68 13.436 15.632 13.436C19.412 13.436 22.562 14.426 25.082 16.406C27.638 18.386 29.312 21.176 30.104 24.776H20.276C19.448 22.472 17.846 21.32 15.47 21.32C13.778 21.32 12.428 21.986 11.42 23.318C10.412 24.614 9.908 26.486 9.908 28.934C9.908 31.382 10.412 33.272 11.42 34.604C12.428 35.9 13.778 36.548 15.47 36.548C17.846 36.548 19.448 35.396 20.276 33.092H30.104C29.312 36.62 27.638 39.392 25.082 41.408C22.526 43.424 19.376 44.432 15.632 44.432C12.68 44.432 10.052 43.802 7.748 42.542C5.48 41.282 3.698 39.482 2.402 37.142C1.142 34.802 0.512 32.066 0.512 28.934ZM45.3573 4.04V44H36.1233V4.04H45.3573ZM66.8451 44.432C63.8931 44.432 61.2291 43.802 58.8531 42.542C56.5131 41.282 54.6591 39.482 53.2911 37.142C51.9591 34.802 51.2931 32.066 51.2931 28.934C51.2931 25.838 51.9771 23.12 53.3451 20.78C54.7131 18.404 56.5851 16.586 58.9611 15.326C61.3371 14.066 64.0011 13.436 66.9531 13.436C69.9051 13.436 72.5691 14.066 74.9451 15.326C77.3211 16.586 79.1931 18.404 80.5611 20.78C81.9291 23.12 82.6131 25.838 82.6131 28.934C82.6131 32.03 81.9111 34.766 80.5071 37.142C79.1391 39.482 77.2491 41.282 74.8371 42.542C72.4611 43.802 69.7971 44.432 66.8451 44.432ZM66.8451 36.44C68.6091 36.44 70.1031 35.792 71.3271 34.496C72.5871 33.2 73.2171 31.346 73.2171 28.934C73.2171 26.522 72.6051 24.668 71.3811 23.372C70.1931 22.076 68.7171 21.428 66.9531 21.428C65.1531 21.428 63.6591 22.076 62.4711 23.372C61.2831 24.632 60.6891 26.486 60.6891 28.934C60.6891 31.346 61.2651 33.2 62.4171 34.496C63.6051 35.792 65.0811 36.44 66.8451 36.44ZM118.346 13.868V44H109.112V39.896C108.176 41.228 106.898 42.308 105.278 43.136C103.694 43.928 101.93 44.324 99.9859 44.324C97.6819 44.324 95.6479 43.82 93.8839 42.812C92.1199 41.768 90.7519 40.274 89.7799 38.33C88.8079 36.386 88.3219 34.1 88.3219 31.472V13.868H97.5019V30.23C97.5019 32.246 98.0239 33.812 99.0679 34.928C100.112 36.044 101.516 36.602 103.28 36.602C105.08 36.602 106.502 36.044 107.546 34.928C108.59 33.812 109.112 32.246 109.112 30.23V13.868H118.346ZM124.223 28.88C124.223 25.784 124.799 23.066 125.951 20.726C127.139 18.386 128.741 16.586 130.757 15.326C132.773 14.066 135.023 13.436 137.507 13.436C139.487 13.436 141.287 13.85 142.907 14.678C144.563 15.506 145.859 16.622 146.795 18.026V4.04H156.029V44H146.795V39.68C145.931 41.12 144.689 42.272 143.069 43.136C141.485 44 139.631 44.432 137.507 44.432C135.023 44.432 132.773 43.802 130.757 42.542C128.741 41.246 127.139 39.428 125.951 37.088C124.799 34.712 124.223 31.976 124.223 28.88ZM146.795 28.934C146.795 26.63 146.147 24.812 144.851 23.48C143.591 22.148 142.043 21.482 140.207 21.482C138.371 21.482 136.805 22.148 135.509 23.48C134.249 24.776 133.619 26.576 133.619 28.88C133.619 31.184 134.249 33.02 135.509 34.388C136.805 35.72 138.371 36.386 140.207 36.386C142.043 36.386 143.591 35.72 144.851 34.388C146.147 33.056 146.795 31.238 146.795 28.934ZM180.902 10.736C179.282 10.736 177.95 10.268 176.906 9.332C175.898 8.36 175.394 7.172 175.394 5.768C175.394 4.328 175.898 3.14 176.906 2.204C177.95 1.232 179.282 0.745997 180.902 0.745997C182.486 0.745997 183.782 1.232 184.79 2.204C185.834 3.14 186.356 4.328 186.356 5.768C186.356 7.172 185.834 8.36 184.79 9.332C183.782 10.268 182.486 10.736 180.902 10.736ZM185.546 47.888C185.546 51.596 184.61 54.26 182.738 55.88C180.866 57.536 178.256 58.364 174.908 58.364H171.29V50.534H173.504C174.512 50.534 175.232 50.336 175.664 49.94C176.096 49.544 176.312 48.896 176.312 47.996V13.868H185.546V47.888ZM206.981 44.432C204.029 44.432 201.365 43.802 198.989 42.542C196.649 41.282 194.795 39.482 193.427 37.142C192.095 34.802 191.429 32.066 191.429 28.934C191.429 25.838 192.113 23.12 193.481 20.78C194.849 18.404 196.721 16.586 199.097 15.326C201.473 14.066 204.137 13.436 207.089 13.436C210.041 13.436 212.705 14.066 215.081 15.326C217.457 16.586 219.329 18.404 220.697 20.78C222.065 23.12 222.749 25.838 222.749 28.934C222.749 32.03 222.047 34.766 220.643 37.142C219.275 39.482 217.385 41.282 214.973 42.542C212.597 43.802 209.933 44.432 206.981 44.432ZM206.981 36.44C208.745 36.44 210.239 35.792 211.463 34.496C212.723 33.2 213.353 31.346 213.353 28.934C213.353 26.522 212.741 24.668 211.517 23.372C210.329 22.076 208.853 21.428 207.089 21.428C205.289 21.428 203.795 22.076 202.607 23.372C201.419 24.632 200.825 26.486 200.825 28.934C200.825 31.346 201.401 33.2 202.553 34.496C203.741 35.792 205.217 36.44 206.981 36.44ZM258.482 13.868V44H249.248V39.896C248.312 41.228 247.034 42.308 245.414 43.136C243.83 43.928 242.066 44.324 240.122 44.324C237.818 44.324 235.784 43.82 234.02 42.812C232.256 41.768 230.888 40.274 229.916 38.33C228.944 36.386 228.458 34.1 228.458 31.472V13.868H237.638V30.23C237.638 32.246 238.16 33.812 239.204 34.928C240.248 36.044 241.652 36.602 243.416 36.602C245.216 36.602 246.638 36.044 247.682 34.928C248.726 33.812 249.248 32.246 249.248 30.23V13.868H258.482ZM275.429 18.89C276.509 17.234 277.859 15.938 279.479 15.002C281.099 14.03 282.899 13.544 284.879 13.544V23.318H282.341C280.037 23.318 278.309 23.822 277.157 24.83C276.005 25.802 275.429 27.53 275.429 30.014V44H266.195V13.868H275.429V18.89ZM308.733 13.544C312.261 13.544 315.069 14.696 317.157 17C319.281 19.268 320.343 22.4 320.343 26.396V44H311.163V27.638C311.163 25.622 310.641 24.056 309.597 22.94C308.553 21.824 307.149 21.266 305.385 21.266C303.621 21.266 302.217 21.824 301.173 22.94C300.129 24.056 299.607 25.622 299.607 27.638V44H290.373V13.868H299.607V17.864C300.543 16.532 301.803 15.488 303.387 14.732C304.971 13.94 306.753 13.544 308.733 13.544ZM356.243 28.448C356.243 29.312 356.189 30.212 356.081 31.148H335.183C335.327 33.02 335.921 34.46 336.965 35.468C338.045 36.44 339.359 36.926 340.907 36.926C343.211 36.926 344.813 35.954 345.713 34.01H355.541C355.037 35.99 354.119 37.772 352.787 39.356C351.491 40.94 349.853 42.182 347.873 43.082C345.893 43.982 343.679 44.432 341.231 44.432C338.279 44.432 335.651 43.802 333.347 42.542C331.043 41.282 329.243 39.482 327.947 37.142C326.651 34.802 326.003 32.066 326.003 28.934C326.003 25.802 326.633 23.066 327.893 20.726C329.189 18.386 330.989 16.586 333.293 15.326C335.597 14.066 338.243 13.436 341.231 13.436C344.147 13.436 346.739 14.048 349.007 15.272C351.275 16.496 353.039 18.242 354.299 20.51C355.595 22.778 356.243 25.424 356.243 28.448ZM346.793 26.018C346.793 24.434 346.253 23.174 345.173 22.238C344.093 21.302 342.743 20.834 341.123 20.834C339.575 20.834 338.261 21.284 337.181 22.184C336.137 23.084 335.489 24.362 335.237 26.018H346.793ZM392.975 13.868L374.075 58.31H364.139L371.051 42.974L358.793 13.868H369.107L376.073 32.714L382.985 13.868H392.975Z" fill="url(#paint0_linear_2_82)"/>
<defs>
<linearGradient id="paint0_linear_2_82" x1="196" y1="-7" x2="196" y2="58" gradientUnits="userSpaceOnUse">
<stop stop-color="#019AFF"/>
<stop offset="1" stop-color="#1F57D0"/>
</linearGradient>
</defs>
</svg>
