<svg width="52" height="52" viewBox="0 0 52 52" fill="none" xmlns="http://www.w3.org/2000/svg">
<path d="M18.4096 36.6872H2.2009C0.681668 36.6872 0 36.0115 0 34.492V2.16607C0 0.68177 0.684725 0 2.17645 0H34.5037C36.0153 0 36.6939 0.684827 36.6939 2.21193V18.4154C45.2071 19.3678 51.8832 26.8642 51.3391 35.8281C50.8286 44.2508 44.2656 50.428 36.6786 51.2672C27.4547 52.2884 19.3313 45.4539 18.4096 36.6872ZM18.3592 32.994C19.9136 24.7531 24.7892 19.9058 32.9814 18.3543V3.69929H23.8507V4.34284C23.8507 6.50127 23.8507 8.6597 23.8507 10.8181C23.8507 12.4385 22.5103 13.2792 21.0614 12.5791C20.3048 12.2138 19.5529 11.8423 18.8116 11.4479C18.5059 11.2828 18.2522 11.2446 17.9175 11.4326C17.1869 11.8408 16.4242 12.197 15.6692 12.5638C14.1836 13.2869 12.8493 12.4553 12.8386 10.8013C12.8386 8.64288 12.8386 6.48446 12.8386 4.3245V3.71305H3.71097V33.0001L18.3592 32.994ZM34.8782 22.0123C32.3383 22.0093 29.8546 22.7598 27.7413 24.1689C25.628 25.578 23.98 27.5823 23.006 29.9284C22.0319 32.2744 21.7755 34.8567 22.2691 37.3485C22.7628 39.8403 23.9843 42.1297 25.7792 43.927C27.5741 45.7243 29.8617 46.9488 32.3526 47.4454C34.8434 47.9421 37.4256 47.6888 39.7725 46.7173C42.1193 45.7459 44.1253 44.1001 45.5367 41.9882C46.9481 39.8763 47.7015 37.3931 47.7015 34.8528C47.6959 31.4517 46.3435 28.1912 43.9403 25.7848C41.5371 23.3784 38.2788 22.022 34.8782 22.0123ZM20.1535 8.08952V3.70082H16.5541V8.08493C17.7616 7.13871 18.9308 7.1433 20.1535 8.08952Z" fill="#FF5722"/>
<path d="M34.3548 37.2711C35.6952 34.5945 36.9913 32.0035 38.2858 29.414C38.4234 29.1404 38.5518 28.8637 38.6955 28.5946C39.2243 27.6025 40.2728 27.2479 41.2112 27.7355C42.116 28.2048 42.4523 29.2565 41.9662 30.2394C40.6228 32.9573 39.261 35.6646 37.9053 38.3763C37.462 39.263 37.0264 40.1541 36.574 41.0362C35.8924 42.3645 34.5168 42.5969 33.4622 41.5513C31.6862 39.7893 29.9173 38.0207 28.1556 36.2454C27.3364 35.4215 27.315 34.2934 28.0822 33.5459C28.8495 32.7984 29.9316 32.8519 30.7401 33.6529C31.9323 34.833 33.1122 36.0268 34.3548 37.2711Z" fill="#FF5722"/>
</svg>
