<svg width="52" height="52" viewBox="0 0 52 52" fill="none" xmlns="http://www.w3.org/2000/svg">
<path d="M38.9415 41.4171C37.1913 42.6829 35.3969 43.4779 33.4068 43.8357C28.0204 44.8065 22.4628 42.1203 19.9163 37.2618C19.6916 36.8337 19.4577 36.6762 18.9625 36.6778C13.3636 36.6976 7.76323 36.6915 2.16435 36.69C0.692408 36.6915 0 35.9974 0 34.5145V2.17703C0 0.684908 0.68018 0 2.16588 0H34.5577C35.993 0 36.6976 0.706312 36.6976 2.15257C36.6976 7.79083 36.6976 13.4286 36.6976 19.0658C36.6976 19.422 36.7649 19.6437 37.1134 19.8302C44.0894 23.5758 46.1483 32.0608 41.6759 38.5811C41.6225 38.6591 41.572 38.734 41.4895 38.864C41.627 39.0169 41.7646 39.1697 41.9098 39.3073C44.8415 42.2396 47.7746 45.1714 50.7094 48.1026C51.2199 48.6102 51.4874 49.1896 51.3406 49.9081C51.2755 50.2176 51.1314 50.505 50.9224 50.7424C50.7135 50.9798 50.4467 51.1592 50.148 51.263C49.8493 51.3668 49.5288 51.3917 49.2177 51.3351C48.9065 51.2785 48.6153 51.1424 48.3723 50.9401C48.2194 50.8193 48.0956 50.6786 47.9596 50.5426C45.0952 47.6786 42.2313 44.8131 39.3679 41.9461C39.216 41.7778 39.0737 41.6012 38.9415 41.4171ZM23.8445 3.69514V4.36323C23.8445 6.52192 23.8445 8.6806 23.8445 10.8393C23.8445 12.4491 22.4918 13.2777 21.0367 12.5714C20.2724 12.1953 19.5082 11.7795 18.7271 11.434C18.4811 11.3399 18.2089 11.3399 17.9629 11.434C17.1986 11.7703 16.4573 12.1724 15.7038 12.5409C14.1753 13.2854 12.8516 12.4644 12.847 10.7751C12.847 8.61639 12.847 6.4572 12.847 4.2975V3.71655H3.69896V32.9964H18.4581C17.969 28.7845 19.1368 25.1291 22.1112 22.1418C25.0857 19.1545 28.7693 17.9681 32.9941 18.4513V3.69514H23.8445ZM31.2012 40.3607C33.6259 40.3526 35.9493 39.3867 37.6653 37.6732C39.3813 35.9597 40.3509 33.6375 40.363 31.2123C40.3706 26.1901 36.2024 22.0149 31.1813 22.0149C28.7545 22.0189 26.4278 22.9833 24.7095 24.6974C22.9912 26.4115 22.0208 28.736 22.0103 31.1633C22.0103 36.1885 26.1816 40.3683 31.2012 40.3607ZM20.1761 3.70584H16.5597V8.09201C17.7825 7.0937 18.9656 7.19918 20.1685 8.06143L20.1761 3.70584Z" fill="#FF5722"/>
<path d="M38.5193 30.9552C38.556 32.1278 37.8376 32.9778 36.7845 33.0237C35.7053 33.0696 34.935 32.2669 34.8616 31.0607C34.773 29.5823 34.05 28.5198 32.7217 27.8502C32.3789 27.6935 32.0679 27.4748 31.8046 27.205C31.5457 26.8884 31.4012 26.4936 31.3948 26.0846C31.3883 25.6756 31.5202 25.2765 31.769 24.9518C32.0178 24.6272 32.369 24.3962 32.7655 24.2962C33.1621 24.1963 33.5808 24.2333 33.9537 24.4012C36.4222 25.4469 37.911 27.3059 38.4245 29.9324C38.4689 30.1556 38.4948 30.3911 38.5193 30.6112C38.5254 30.7258 38.5254 30.8406 38.5193 30.9552Z" fill="#FF5722"/>
</svg>
