<svg width="41" height="54" viewBox="0 0 41 54" fill="none" xmlns="http://www.w3.org/2000/svg">
<path d="M7.45139 11.2195C7.45139 10.6177 7.45139 10.0834 7.45139 9.54917C7.46226 8.28723 8.20739 7.53498 9.46947 7.53498C11.2531 7.53498 13.0399 7.53498 14.9028 7.53498C14.9028 6.88098 14.8935 6.25461 14.9028 5.62979C14.8754 4.164 15.4379 2.74749 16.4666 1.69188C17.4953 0.636268 18.9059 0.0280203 20.3881 0.000944035C21.8703 -0.0261323 23.3026 0.530181 24.37 1.5475C25.4374 2.56482 26.0525 3.95982 26.0799 5.4256C26.1063 6.1103 26.0799 6.79654 26.0799 7.53498H30.6718C31.0211 7.53498 31.3703 7.52423 31.7196 7.53498C32.2 7.548 32.6566 7.74406 32.9942 8.08221C33.3318 8.42037 33.5242 8.87445 33.5312 9.3496C33.5514 9.94372 33.5312 10.5378 33.5312 11.221H34.1646C35.7558 11.221 37.347 11.221 38.9382 11.221C40.2142 11.2195 40.9826 11.9733 40.9826 13.2152C40.9826 26.0179 40.9826 38.821 40.9826 51.6246C40.9826 52.8528 40.2173 53.6066 38.9863 53.6066C26.6636 53.6066 14.3408 53.6066 2.01808 53.6066C0.757558 53.6066 0 52.8466 0 51.5924C0 38.8092 0 26.0255 0 13.2413C0 11.9533 0.756006 11.2195 2.07552 11.2195C3.84057 11.2195 5.60407 11.2195 7.45139 11.2195ZM33.5312 14.9285C33.5312 15.5426 33.5312 16.0938 33.5312 16.648C33.5204 17.8209 32.7551 18.5885 31.5551 18.5885C24.1823 18.5885 16.8096 18.5885 9.43687 18.5885C8.22758 18.5885 7.46381 17.8209 7.45139 16.5927C7.45139 16.0431 7.45139 15.4935 7.45139 14.9485H3.77382V49.8944H37.2321V14.9301L33.5312 14.9285ZM11.205 14.8656H29.7636V11.2195C27.9318 11.2195 26.1482 11.2195 24.3645 11.2195C23.1304 11.2195 22.3681 10.4519 22.3542 9.24367C22.3542 8.11222 22.3542 6.98077 22.3542 5.84778C22.3542 4.68103 21.5656 3.85201 20.4913 3.85201C19.4171 3.85201 18.6393 4.6887 18.6285 5.857C18.6285 6.98998 18.6285 8.12143 18.6285 9.25288C18.6207 10.4657 17.8523 11.2118 16.6104 11.221C15.9506 11.221 15.2924 11.221 14.6327 11.221H11.205V14.8656Z" fill="#FF5722"/>
<path d="M12.5533 28.3296C13.3295 26.7944 14.1057 25.27 14.8819 23.747C14.9688 23.5751 15.048 23.4001 15.1458 23.2343C15.3935 22.8486 15.7774 22.5677 16.2227 22.4462C16.6681 22.3247 17.1433 22.3712 17.5559 22.5767C17.9686 22.7822 18.2893 23.132 18.4558 23.5582C18.6223 23.9844 18.6228 24.4566 18.457 24.8831C18.2893 25.27 18.0875 25.6415 17.8966 26.0191C16.8617 28.0559 15.8268 30.0931 14.7918 32.1308C14.0746 33.5371 12.693 33.7566 11.5645 32.6466C10.4136 31.5096 9.26435 30.3689 8.11663 29.2247C7.2768 28.3864 7.23178 27.2749 7.99555 26.5135C8.75931 25.752 9.88789 25.7904 10.737 26.6133C11.3052 27.1629 11.8672 27.7186 12.4322 28.2713C12.4708 28.2941 12.5114 28.3136 12.5533 28.3296Z" fill="#FF5722"/>
<path d="M12.516 41.3098C13.3869 39.5842 14.2097 37.94 15.0464 36.3004C15.4873 35.4361 16.355 35.017 17.1995 35.2258C18.3995 35.5328 18.9615 36.761 18.3902 37.9109C17.42 39.8713 16.4218 41.8195 15.4407 43.7708C15.1985 44.2513 14.975 44.7379 14.7064 45.2062C14.0622 46.3653 12.6775 46.5879 11.7181 45.6667C10.4669 44.4631 9.23276 43.2426 8.0157 42.0053C7.84019 41.8385 7.70006 41.6388 7.60349 41.4178C7.50691 41.1969 7.45583 40.9591 7.45323 40.7184C7.45063 40.4777 7.49656 40.2389 7.58834 40.016C7.68011 39.7931 7.8159 39.5904 7.98775 39.42C8.71582 38.6785 9.8506 38.6647 10.6439 39.42C11.2633 40.0202 11.8594 40.6497 12.516 41.3098Z" fill="#FF5722"/>
<path d="M28.0037 25.9649C29.1665 25.9649 30.3323 25.9649 31.495 25.9649C32.6842 25.9649 33.5255 26.7325 33.5349 27.7903C33.5442 28.8481 32.7043 29.6448 31.5292 29.6479C29.1416 29.6541 26.7551 29.6541 24.3696 29.6479C23.1929 29.6479 22.3516 28.8588 22.3516 27.7918C22.3516 26.7249 23.1945 25.9695 24.3867 25.9649C25.5789 25.9603 26.8007 25.9649 28.0037 25.9649Z" fill="#FF5722"/>
<path d="M28.0054 38.867C29.1899 38.867 30.3728 38.867 31.5572 38.867C32.6951 38.867 33.5288 39.6499 33.535 40.6939C33.5412 41.7378 32.7138 42.5438 31.5836 42.5484C29.1588 42.5556 26.7335 42.5556 24.3077 42.5484C23.1791 42.5484 22.3517 41.7394 22.3594 40.6908C22.3672 39.6423 23.1946 38.8731 24.3387 38.867C25.562 38.8608 26.7837 38.867 28.0054 38.867Z" fill="#FF5722"/>
</svg>
