<svg width="546" height="527" viewBox="0 0 546 527" fill="none" xmlns="http://www.w3.org/2000/svg">
<path d="M463.955 445.886L408.227 417.997C392.686 410.163 380.056 389.578 380.056 372.117V231.12H381.422V372.117C381.422 389.099 393.742 409.137 408.864 416.746L464.552 444.647L463.955 445.886Z" fill="#CECEE9"/>
<path d="M481.098 464.252L396.705 421.692C381.204 413.852 368.574 393.273 368.574 375.817V230.959H369.946V375.817C369.946 392.806 382.255 412.826 397.371 420.464L481.764 463.007L481.098 464.252Z" fill="#CECEE9"/>
<path d="M501.271 483.789L385.251 425.399C369.721 417.571 357.057 396.979 357.057 379.507V230.78H358.44V379.507C358.44 396.507 370.743 416.533 385.865 424.154L501.88 482.561L501.271 483.789Z" fill="#CECEE9"/>
<path d="M479.863 482.405L373.74 429.105C358.24 421.26 345.563 400.669 345.563 383.213V230.63H346.947V383.213C346.947 400.208 359.25 420.24 374.366 427.866L480.489 481.143L479.863 482.405Z" fill="#CECEE9"/>
<path d="M500.405 502.506L362.258 432.806C346.723 424.967 334.076 404.381 334.076 386.914V230.474H335.459V386.914C335.459 403.914 347.762 423.935 362.884 431.573L501.002 501.267L500.405 502.506Z" fill="#CECEE9"/>
<path d="M454.161 488.763L350.777 436.507C335.276 428.685 322.605 408.076 322.605 390.638V230.319H323.983V390.638C323.983 407.638 336.286 427.676 351.408 435.297L454.747 487.57L454.161 488.763Z" fill="#CECEE9"/>
<path d="M506.737 524.435L339.294 440.214C323.747 432.374 311.111 411.783 311.111 394.316V230.163H312.489V394.316C312.489 411.304 324.792 431.348 339.914 438.974L507.357 523.19L506.737 524.435Z" fill="#CECEE9"/>
<path d="M459.701 510.265L327.813 443.921C312.266 436.069 299.636 415.478 299.636 398.017V230.008H301.008V398.017C301.008 415.011 313.311 435.043 328.421 442.681L460.327 509.02L459.701 510.265Z" fill="#CECEE9"/>
<path d="M391.486 485.587L316.33 447.627C300.783 439.77 288.147 419.179 288.147 401.706V229.858H289.525V401.706C289.525 418.7 301.828 438.75 316.939 446.388L392.112 484.353L391.486 485.587Z" fill="#CECEE9"/>
<path d="M405.965 502.506L304.848 451.334C289.313 443.477 276.671 422.88 276.671 405.413V229.696H278.055V405.413C278.055 422.407 290.352 442.451 305.468 450.089L406.597 501.267L405.965 502.506Z" fill="#CECEE9"/>
<path d="M461.096 445.258C461.096 445.886 461.282 446.5 461.629 447.022C461.977 447.545 462.471 447.952 463.049 448.192C463.627 448.433 464.263 448.496 464.877 448.373C465.49 448.25 466.054 447.948 466.496 447.504C466.939 447.06 467.24 446.494 467.362 445.877C467.484 445.261 467.421 444.623 467.182 444.042C466.943 443.462 466.537 442.966 466.017 442.617C465.497 442.268 464.885 442.082 464.259 442.082C463.421 442.083 462.617 442.418 462.024 443.014C461.431 443.609 461.098 444.416 461.096 445.258V445.258Z" fill="#CECEE9"/>
<path d="M478.227 463.635C478.227 464.265 478.413 464.88 478.762 465.404C479.11 465.927 479.605 466.335 480.185 466.576C480.764 466.816 481.402 466.879 482.016 466.756C482.631 466.633 483.196 466.329 483.639 465.883C484.082 465.438 484.383 464.87 484.505 464.253C484.627 463.635 484.563 462.995 484.322 462.414C484.081 461.832 483.674 461.336 483.153 460.987C482.631 460.638 482.017 460.452 481.39 460.453C480.974 460.453 480.563 460.536 480.178 460.696C479.794 460.856 479.445 461.09 479.152 461.386C478.858 461.681 478.625 462.032 478.466 462.418C478.308 462.804 478.226 463.218 478.227 463.635V463.635Z" fill="#CECEE9"/>
<path d="M498.413 483.172C498.414 483.801 498.601 484.415 498.949 484.938C499.298 485.46 499.794 485.867 500.373 486.107C500.952 486.347 501.589 486.409 502.203 486.286C502.818 486.163 503.382 485.859 503.825 485.414C504.267 484.969 504.568 484.402 504.69 483.785C504.812 483.167 504.749 482.528 504.509 481.947C504.269 481.366 503.863 480.869 503.342 480.52C502.821 480.17 502.208 479.984 501.582 479.984C500.741 479.985 499.935 480.322 499.34 480.919C498.746 481.517 498.413 482.327 498.413 483.172V483.172Z" fill="#CECEE9"/>
<path d="M476.993 481.788C476.993 482.418 477.179 483.034 477.527 483.559C477.876 484.083 478.371 484.491 478.951 484.733C479.531 484.974 480.169 485.038 480.785 484.915C481.4 484.793 481.966 484.489 482.41 484.044C482.855 483.599 483.157 483.032 483.281 482.414C483.404 481.796 483.342 481.155 483.102 480.572C482.863 479.99 482.457 479.491 481.935 479.14C481.414 478.789 480.801 478.601 480.173 478.6C479.331 478.602 478.524 478.938 477.928 479.535C477.332 480.133 476.996 480.943 476.993 481.788Z" fill="#CECEE9"/>
<path d="M497.535 501.895C497.535 502.526 497.721 503.142 498.07 503.666C498.419 504.19 498.914 504.599 499.495 504.84C500.075 505.082 500.713 505.145 501.329 505.022C501.945 504.899 502.51 504.595 502.954 504.149C503.398 503.703 503.701 503.135 503.823 502.517C503.946 501.899 503.883 501.258 503.643 500.675C503.402 500.093 502.995 499.595 502.473 499.245C501.951 498.894 501.337 498.707 500.709 498.707C499.867 498.707 499.06 499.043 498.465 499.641C497.869 500.239 497.535 501.05 497.535 501.895V501.895Z" fill="#CECEE9"/>
<path d="M451.296 488.158C451.295 488.789 451.481 489.406 451.829 489.931C452.177 490.457 452.673 490.866 453.254 491.108C453.834 491.35 454.473 491.414 455.089 491.291C455.706 491.168 456.272 490.864 456.716 490.418C457.16 489.972 457.463 489.403 457.585 488.784C457.708 488.165 457.644 487.524 457.403 486.941C457.162 486.358 456.754 485.861 456.231 485.511C455.708 485.161 455.094 484.975 454.465 484.976C453.625 484.977 452.82 485.313 452.226 485.91C451.632 486.506 451.298 487.315 451.296 488.158Z" fill="#CECEE9"/>
<path d="M503.884 523.801C503.887 524.43 504.074 525.044 504.424 525.566C504.774 526.088 505.27 526.494 505.85 526.733C506.429 526.972 507.067 527.033 507.681 526.908C508.295 526.784 508.858 526.479 509.3 526.033C509.742 525.587 510.042 525.019 510.163 524.402C510.284 523.785 510.219 523.145 509.978 522.565C509.737 521.984 509.33 521.488 508.809 521.14C508.287 520.791 507.674 520.606 507.048 520.607C506.631 520.608 506.219 520.691 505.834 520.852C505.449 521.013 505.1 521.249 504.806 521.545C504.513 521.842 504.28 522.194 504.122 522.581C503.963 522.968 503.883 523.382 503.884 523.801V523.801Z" fill="#CECEE9"/>
<path d="M456.848 509.637C456.848 510.266 457.034 510.882 457.382 511.405C457.73 511.928 458.225 512.336 458.804 512.577C459.383 512.818 460.02 512.881 460.635 512.758C461.25 512.635 461.814 512.332 462.257 511.887C462.701 511.442 463.002 510.875 463.125 510.258C463.247 509.641 463.184 509.001 462.944 508.419C462.705 507.838 462.298 507.341 461.777 506.991C461.256 506.642 460.643 506.455 460.017 506.455C459.176 506.455 458.37 506.79 457.776 507.387C457.182 507.984 456.848 508.793 456.848 509.637V509.637Z" fill="#CECEE9"/>
<path d="M388.627 484.976C388.628 485.605 388.815 486.22 389.164 486.742C389.513 487.265 390.008 487.672 390.587 487.912C391.166 488.152 391.803 488.214 392.418 488.09C393.032 487.967 393.596 487.663 394.039 487.218C394.481 486.773 394.783 486.206 394.905 485.589C395.026 484.972 394.963 484.332 394.723 483.751C394.483 483.17 394.077 482.673 393.556 482.324C393.035 481.975 392.423 481.788 391.796 481.788C391.379 481.788 390.967 481.871 390.582 482.031C390.197 482.191 389.847 482.426 389.553 482.722C389.259 483.018 389.025 483.37 388.867 483.756C388.708 484.143 388.626 484.558 388.627 484.976Z" fill="#CECEE9"/>
<path d="M403.1 501.895C403.1 502.525 403.286 503.141 403.635 503.666C403.983 504.19 404.479 504.598 405.059 504.84C405.638 505.081 406.276 505.145 406.892 505.022C407.508 504.9 408.074 504.596 408.518 504.151C408.962 503.706 409.265 503.139 409.388 502.521C409.511 501.903 409.449 501.262 409.21 500.679C408.97 500.097 408.564 499.598 408.043 499.247C407.522 498.896 406.908 498.708 406.281 498.707C405.863 498.706 405.449 498.787 405.063 498.947C404.677 499.106 404.326 499.341 404.03 499.637C403.735 499.934 403.5 500.285 403.341 500.673C403.181 501.06 403.099 501.476 403.1 501.895V501.895Z" fill="#CECEE9"/>
<path d="M337.865 363.902C332.893 363.803 328.045 362.327 323.857 359.636C318.847 356.518 314.708 352.173 311.83 347.008C308.952 341.843 307.428 336.028 307.403 330.11V256.536C307.418 256.373 307.493 256.222 307.614 256.112C307.734 256.002 307.891 255.941 308.054 255.941C308.217 255.941 308.375 256.002 308.495 256.112C308.616 256.222 308.691 256.373 308.706 256.536V330.11C308.729 335.806 310.194 341.404 312.964 346.375C315.734 351.347 319.717 355.529 324.54 358.529C331.808 363.026 339.822 363.862 345.971 360.749L408.187 329.314L363.498 308.435C363.371 308.345 363.279 308.213 363.241 308.061C363.203 307.91 363.22 307.749 363.289 307.609C363.359 307.47 363.477 307.36 363.62 307.299C363.764 307.239 363.925 307.233 364.072 307.282L409.966 328.732C410.077 328.781 410.172 328.862 410.238 328.965C410.305 329.067 410.34 329.186 410.339 329.309C410.339 329.428 410.306 329.546 410.243 329.648C410.18 329.749 410.09 329.832 409.983 329.885L346.551 361.907C343.852 363.25 340.876 363.934 337.865 363.902Z" fill="#CECEE9"/>
<path d="M347.533 368.508C342.558 368.427 337.703 366.963 333.508 364.277C323.541 358.109 317.582 347.012 317.582 334.595V250.16C317.597 249.999 317.672 249.849 317.791 249.74C317.911 249.631 318.066 249.57 318.228 249.57C318.389 249.57 318.545 249.631 318.665 249.74C318.784 249.849 318.859 249.999 318.874 250.16V334.595C318.874 346.556 324.615 357.238 334.191 363.17C341.516 367.695 349.692 368.468 356.15 365.216L430.1 327.804L392.686 310.331C392.53 310.26 392.409 310.129 392.349 309.969C392.289 309.808 392.294 309.629 392.365 309.473C392.438 309.316 392.57 309.194 392.732 309.133C392.894 309.073 393.074 309.079 393.231 309.15L431.891 327.187C432 327.24 432.091 327.322 432.156 327.424C432.221 327.525 432.256 327.643 432.259 327.764C432.259 327.883 432.225 328.001 432.162 328.103C432.1 328.204 432.01 328.287 431.903 328.34L356.73 366.375C353.874 367.803 350.723 368.534 347.533 368.508V368.508Z" fill="#CECEE9"/>
<path d="M358.67 372.768C354.221 372.768 349.45 371.315 344.811 368.439C334.478 362.034 327.755 350.505 327.755 339.08V254.628C327.77 254.465 327.845 254.314 327.966 254.204C328.086 254.094 328.243 254.032 328.406 254.032C328.569 254.032 328.727 254.094 328.847 254.204C328.968 254.314 329.043 254.465 329.058 254.628V339.062C329.058 350.05 335.505 361.141 345.495 367.309C352.786 371.817 360.381 372.682 366.329 369.672L452.094 326.299L424.296 313.502C424.187 313.45 424.093 313.368 424.027 313.267C423.96 313.165 423.922 313.047 423.917 312.926C423.92 312.808 423.953 312.693 424.013 312.592C424.074 312.491 424.159 312.407 424.261 312.349L432.729 307.772C432.881 307.694 433.056 307.677 433.219 307.727C433.382 307.776 433.52 307.888 433.602 308.037C433.643 308.112 433.669 308.195 433.678 308.28C433.687 308.366 433.679 308.452 433.654 308.534C433.63 308.616 433.589 308.692 433.535 308.758C433.48 308.825 433.414 308.879 433.338 308.919L426.018 312.879L453.851 325.7C453.963 325.749 454.059 325.83 454.127 325.932C454.195 326.034 454.233 326.154 454.235 326.276C454.233 326.397 454.199 326.514 454.135 326.615C454.071 326.717 453.981 326.799 453.874 326.853L366.909 370.848C364.351 372.129 361.528 372.787 358.67 372.768Z" fill="#CECEE9"/>
<path d="M368.183 377.38C363.209 377.286 358.357 375.814 354.164 373.125C349.185 369.979 345.084 365.614 342.245 360.441C339.406 355.267 337.922 349.454 337.934 343.547V248.253C337.949 248.09 338.024 247.938 338.145 247.828C338.265 247.718 338.422 247.657 338.585 247.657C338.748 247.657 338.905 247.718 339.026 247.828C339.146 247.938 339.222 248.09 339.237 248.253V343.536C339.237 355.14 345.213 366.052 354.835 372.001C362.132 376.521 370.233 377.328 376.508 374.151L473.169 325.458L456.985 318.045C456.881 317.989 456.793 317.906 456.732 317.805C456.671 317.703 456.639 317.587 456.639 317.468C456.639 317.349 456.671 317.233 456.732 317.131C456.793 317.03 456.881 316.947 456.985 316.892L466.171 312.199C466.246 312.16 466.328 312.136 466.413 312.128C466.498 312.121 466.583 312.131 466.664 312.157C466.744 312.184 466.819 312.226 466.883 312.282C466.948 312.337 467 312.405 467.038 312.482C467.077 312.558 467.101 312.641 467.108 312.727C467.115 312.813 467.104 312.899 467.078 312.98C467.051 313.062 467.008 313.137 466.952 313.202C466.896 313.267 466.828 313.32 466.751 313.358L458.765 317.428L474.938 324.858C475.046 324.911 475.137 324.992 475.201 325.094C475.264 325.196 475.298 325.314 475.298 325.435C475.298 325.555 475.264 325.673 475.201 325.775C475.137 325.877 475.046 325.959 474.938 326.011L377.082 375.316C374.319 376.698 371.27 377.405 368.183 377.38Z" fill="#CECEE9"/>
<path d="M378.833 381.709C374.291 381.709 369.44 380.262 364.859 377.431C356.77 372.422 348.112 362.063 348.112 348.003V252.726C348.114 252.554 348.183 252.39 348.304 252.269C348.426 252.148 348.59 252.08 348.761 252.08C348.932 252.08 349.095 252.148 349.216 252.269C349.336 252.39 349.404 252.555 349.404 252.726V347.98C349.404 361.498 357.74 371.477 365.542 376.296C372.776 380.775 380.675 381.634 386.68 378.602L497.919 322.656L484.634 316.361C484.545 316.332 484.464 316.284 484.396 316.22C484.327 316.157 484.274 316.079 484.238 315.993C484.202 315.907 484.185 315.814 484.188 315.72C484.192 315.627 484.215 315.535 484.256 315.451C484.298 315.368 484.357 315.294 484.43 315.235C484.502 315.177 484.587 315.134 484.677 315.111C484.767 315.088 484.861 315.085 484.953 315.102C485.045 315.118 485.132 315.155 485.208 315.208L499.681 322.039C499.79 322.091 499.883 322.172 499.948 322.274C500.013 322.376 500.048 322.495 500.048 322.616C500.048 322.736 500.014 322.853 499.951 322.954C499.888 323.056 499.799 323.138 499.693 323.192L387.26 379.783C384.64 381.08 381.753 381.739 378.833 381.709V381.709Z" fill="#CECEE9"/>
<path d="M399.885 392.022C395.35 392.022 390.493 390.575 385.912 387.739C377.828 382.741 369.2 372.388 369.2 358.299V252.196C369.191 252.105 369.202 252.014 369.23 251.928C369.259 251.842 369.305 251.763 369.366 251.696C369.427 251.629 369.501 251.575 369.583 251.539C369.666 251.502 369.755 251.483 369.846 251.483C369.936 251.483 370.025 251.502 370.108 251.539C370.19 251.575 370.264 251.629 370.325 251.696C370.386 251.763 370.432 251.842 370.461 251.928C370.489 252.014 370.5 252.105 370.491 252.196V358.299C370.491 371.846 378.81 381.824 386.566 386.632C393.8 391.111 401.717 391.964 407.733 388.938L519.62 332.577C519.709 332.531 519.807 332.507 519.907 332.507C520.007 332.507 520.106 332.531 520.194 332.577L529.041 337.085C529.117 337.123 529.185 337.176 529.241 337.24C529.296 337.305 529.338 337.38 529.364 337.461C529.391 337.542 529.4 337.627 529.393 337.712C529.386 337.797 529.362 337.88 529.323 337.956C529.244 338.109 529.108 338.225 528.945 338.279C528.782 338.333 528.604 338.32 528.45 338.244L519.907 333.88L408.348 390.062C405.719 391.372 402.82 392.043 399.885 392.022V392.022Z" fill="#CECEE9"/>
<path d="M388.874 387.231C383.908 387.13 379.067 385.653 374.883 382.966C369.859 379.865 365.7 375.534 362.799 370.379C359.897 365.223 358.346 359.413 358.292 353.491V258.214C358.293 258.042 358.362 257.878 358.484 257.757C358.605 257.636 358.769 257.568 358.94 257.568C359.111 257.568 359.274 257.636 359.395 257.757C359.515 257.878 359.583 258.043 359.583 258.214V353.491C359.583 367.119 367.839 377.074 375.566 381.853C382.817 386.344 390.774 387.185 396.86 384.113L525.304 319.63C525.379 319.586 525.464 319.558 525.551 319.548C525.638 319.538 525.726 319.546 525.81 319.571C525.894 319.596 525.972 319.639 526.039 319.695C526.106 319.752 526.161 319.822 526.2 319.9C526.239 319.979 526.262 320.065 526.267 320.153C526.272 320.241 526.259 320.329 526.228 320.411C526.198 320.494 526.152 320.57 526.091 320.634C526.031 320.697 525.958 320.748 525.878 320.783L397.44 385.271C394.777 386.59 391.843 387.261 388.874 387.231V387.231Z" fill="#CECEE9"/>
<path d="M408.72 396.633C403.747 396.536 398.897 395.059 394.706 392.368C389.71 389.24 385.587 384.889 382.723 379.724C379.859 374.558 378.349 368.747 378.333 362.836V256.726C378.333 256.554 378.401 256.388 378.523 256.266C378.645 256.144 378.81 256.075 378.982 256.075C379.154 256.075 379.319 256.144 379.44 256.266C379.562 256.388 379.63 256.554 379.63 256.726V362.836C379.642 368.526 381.093 374.12 383.849 379.092C386.604 384.065 390.574 388.252 395.384 391.261C402.669 395.763 410.712 396.587 416.901 393.457L513.959 344.568C514.049 344.525 514.147 344.503 514.246 344.503C514.345 344.503 514.443 344.525 514.533 344.568L529.827 351.952L536.596 348.822C536.744 348.773 536.904 348.779 537.048 348.839C537.192 348.899 537.309 349.009 537.379 349.149C537.449 349.289 537.466 349.449 537.427 349.601C537.389 349.753 537.298 349.885 537.17 349.975L530.12 353.232C530.031 353.277 529.933 353.3 529.833 353.3C529.733 353.3 529.635 353.277 529.546 353.232L514.263 345.853L417.487 394.616C414.762 395.969 411.76 396.66 408.72 396.633V396.633Z" fill="#CECEE9"/>
<path d="M418.785 401.13C413.803 401.041 408.942 399.568 404.742 396.876C399.763 393.73 395.661 389.366 392.821 384.194C389.98 379.022 388.494 373.21 388.501 367.303V261.194C388.501 261.021 388.569 260.854 388.691 260.731C388.812 260.608 388.977 260.538 389.15 260.537C389.235 260.537 389.32 260.554 389.398 260.587C389.477 260.62 389.549 260.669 389.608 260.73C389.668 260.791 389.715 260.864 389.747 260.943C389.779 261.023 389.794 261.108 389.793 261.194V367.303C389.782 372.989 391.212 378.583 393.946 383.562C396.681 388.54 400.631 392.739 405.426 395.763C412.722 400.277 420.817 401.089 427.069 397.925L511.462 355.417C511.551 355.371 511.65 355.348 511.749 355.348C511.849 355.348 511.947 355.371 512.036 355.417L534.489 365.983L542.148 362.161C542.224 362.122 542.306 362.099 542.391 362.093C542.476 362.087 542.561 362.097 542.641 362.124C542.722 362.151 542.796 362.193 542.86 362.249C542.925 362.305 542.977 362.373 543.015 362.449C543.053 362.526 543.076 362.61 543.082 362.695C543.088 362.781 543.077 362.867 543.05 362.949C543.023 363.03 542.98 363.105 542.924 363.17C542.867 363.235 542.799 363.288 542.722 363.326L534.788 367.28C534.7 367.327 534.601 367.352 534.501 367.352C534.401 367.352 534.302 367.327 534.214 367.28L511.755 356.708L427.666 399.083C424.907 400.456 421.864 401.157 418.785 401.13V401.13Z" fill="#CECEE9"/>
<path d="M429.101 405.557C424.13 405.46 419.282 403.986 415.093 401.297C410.093 398.173 405.965 393.825 403.097 388.661C400.229 383.496 398.715 377.684 398.697 371.771V265.667C398.688 265.577 398.699 265.486 398.727 265.4C398.756 265.314 398.802 265.235 398.863 265.168C398.924 265.101 398.998 265.047 399.08 265.01C399.163 264.974 399.252 264.955 399.343 264.955C399.433 264.955 399.522 264.974 399.605 265.01C399.688 265.047 399.762 265.101 399.822 265.168C399.883 265.235 399.929 265.314 399.958 265.4C399.987 265.486 399.997 265.577 399.988 265.667V371.771C400.007 377.463 401.465 383.057 404.227 388.028C406.988 392.999 410.962 397.184 415.776 400.19C423.05 404.687 431.088 405.517 437.265 402.392L509.028 366.121C509.117 366.076 509.215 366.052 509.315 366.052C509.414 366.052 509.513 366.076 509.602 366.121L543.026 382.395C543.154 382.484 543.245 382.617 543.283 382.769C543.322 382.92 543.305 383.081 543.235 383.22C543.165 383.36 543.048 383.47 542.904 383.53C542.76 383.591 542.6 383.597 542.452 383.548L509.315 367.407L437.839 403.54C435.123 404.887 432.131 405.578 429.101 405.557V405.557Z" fill="#CECEE9"/>
<path d="M438.08 410.313C433.13 410.265 428.29 408.842 424.095 406.203C414.421 400.219 408.875 389.289 408.875 376.227V280.967C408.891 280.805 408.965 280.655 409.085 280.546C409.204 280.437 409.36 280.376 409.521 280.376C409.683 280.376 409.839 280.437 409.958 280.546C410.077 280.655 410.152 280.805 410.167 280.967V376.227C410.167 388.834 415.495 399.36 424.778 405.107C432.018 409.581 440.698 410.244 447.438 406.837L506.852 376.947C506.939 376.897 507.038 376.87 507.139 376.87C507.24 376.87 507.339 376.897 507.426 376.947L521.859 383.721C521.936 383.756 522.005 383.807 522.063 383.869C522.12 383.932 522.165 384.005 522.194 384.085C522.222 384.165 522.235 384.25 522.231 384.335C522.227 384.42 522.206 384.503 522.169 384.58C522.097 384.736 521.965 384.858 521.804 384.917C521.642 384.977 521.464 384.969 521.308 384.897L507.15 378.296L448.018 408.053C444.926 409.575 441.523 410.349 438.08 410.313V410.313Z" fill="#CECEE9"/>
<path d="M539.656 383.087C539.656 384.188 541.069 385.081 542.82 385.081C544.571 385.081 545.994 384.188 545.994 383.087C545.994 381.986 544.571 381.086 542.82 381.086C541.069 381.086 539.656 381.991 539.656 383.087Z" fill="#CECEE9"/>
<path d="M518.415 383.934C518.415 385.035 519.827 385.929 521.578 385.929C523.329 385.929 524.753 385.035 524.753 383.934C524.753 382.833 523.335 381.939 521.578 381.939C519.821 381.939 518.415 382.827 518.415 383.934Z" fill="#CECEE9"/>
<path d="M539.289 362.755C539.289 363.862 540.701 364.761 542.458 364.761C544.214 364.761 545.627 363.862 545.627 362.755C545.627 361.648 544.209 360.76 542.458 360.76C540.707 360.76 539.289 361.654 539.289 362.755Z" fill="#CECEE9"/>
<path d="M533.697 349.479C533.697 350.58 535.115 351.479 536.872 351.479C538.628 351.479 540.041 350.58 540.041 349.479C540.041 348.378 538.623 347.484 536.872 347.484C535.121 347.484 533.697 348.378 533.697 349.479Z" fill="#CECEE9"/>
<path d="M525.614 336.975C525.614 338.082 527.026 338.97 528.777 338.97C530.528 338.97 531.952 338.082 531.952 336.975C531.952 335.869 530.534 334.981 528.777 334.981C527.02 334.981 525.614 335.874 525.614 336.975Z" fill="#CECEE9"/>
<path d="M522.433 320.177C522.433 321.279 523.845 322.172 525.596 322.172C527.347 322.172 528.771 321.279 528.771 320.177C528.771 319.076 527.353 318.171 525.596 318.171C523.84 318.171 522.433 319.071 522.433 320.177Z" fill="#CECEE9"/>
<path d="M481.752 316.061C481.752 317.168 483.165 318.062 484.916 318.062C486.667 318.062 488.085 317.168 488.085 316.061C488.085 314.955 486.661 314.067 484.916 314.067C483.17 314.067 481.752 314.96 481.752 316.061Z" fill="#CECEE9"/>
<path d="M463.266 312.879C463.266 313.98 464.672 314.88 466.423 314.88C468.174 314.88 469.615 313.969 469.615 312.879C469.615 311.79 468.197 310.885 466.44 310.885C464.684 310.885 463.266 311.773 463.266 312.879Z" fill="#CECEE9"/>
<path d="M429.859 308.314C429.859 309.421 431.266 310.32 433.028 310.32C434.791 310.32 436.197 309.421 436.197 308.314C436.197 307.207 434.779 306.319 433.028 306.319C431.277 306.319 429.859 307.213 429.859 308.314Z" fill="#CECEE9"/>
<path d="M208.135 363.902C213.105 363.805 217.952 362.329 222.137 359.636C227.147 356.518 231.286 352.173 234.164 347.008C237.042 341.843 238.565 336.028 238.591 330.11V256.536C238.591 256.363 238.523 256.198 238.401 256.076C238.279 255.953 238.114 255.885 237.942 255.885C237.77 255.885 237.605 255.953 237.484 256.076C237.362 256.198 237.294 256.363 237.294 256.536V330.11C237.268 335.803 235.801 341.397 233.032 346.365C230.262 351.334 226.28 355.513 221.46 358.512C214.186 363.008 206.172 363.844 200.029 360.731L137.825 329.314L182.501 308.435C182.621 308.345 182.705 308.216 182.741 308.07C182.777 307.924 182.761 307.771 182.697 307.635C182.633 307.499 182.524 307.39 182.389 307.326C182.254 307.262 182.101 307.246 181.956 307.282L136.062 328.703C135.951 328.753 135.856 328.833 135.79 328.936C135.724 329.038 135.689 329.158 135.689 329.28C135.689 329.399 135.722 329.515 135.784 329.617C135.846 329.719 135.934 329.801 136.039 329.856L199.443 361.907C202.143 363.25 205.122 363.934 208.135 363.902V363.902Z" fill="#CECEE9"/>
<path d="M198.467 368.508C203.442 368.427 208.297 366.963 212.493 364.277C222.459 358.109 228.413 347.012 228.413 334.595V250.161C228.413 249.989 228.345 249.825 228.224 249.704C228.104 249.583 227.94 249.515 227.77 249.515C227.598 249.515 227.433 249.583 227.311 249.703C227.188 249.824 227.118 249.988 227.115 250.161V334.595C227.115 346.556 221.374 357.238 211.81 363.17C204.484 367.695 196.28 368.468 189.85 365.216L115.894 327.804L153.343 310.332C153.498 310.259 153.617 310.128 153.677 309.967C153.736 309.806 153.729 309.629 153.659 309.473C153.585 309.316 153.453 309.194 153.291 309.133C153.129 309.073 152.95 309.079 152.792 309.15L114.138 327.187C114.027 327.241 113.934 327.325 113.869 327.43C113.804 327.534 113.77 327.655 113.77 327.778C113.77 327.901 113.804 328.022 113.869 328.127C113.934 328.231 114.027 328.315 114.138 328.369L189.282 366.375C192.134 367.8 195.281 368.531 198.467 368.508V368.508Z" fill="#CECEE9"/>
<path d="M187.33 372.768C191.779 372.768 196.55 371.315 201.183 368.439C211.517 362.034 218.234 350.505 218.234 339.08V254.628C218.218 254.467 218.144 254.317 218.024 254.208C217.905 254.098 217.749 254.038 217.588 254.038C217.426 254.038 217.271 254.098 217.151 254.208C217.032 254.317 216.957 254.467 216.942 254.628V339.062C216.942 350.05 210.489 361.141 200.505 367.309C193.214 371.817 185.619 372.682 179.671 369.672L93.9059 326.311L121.71 313.514C121.819 313.462 121.912 313.381 121.978 313.279C122.044 313.177 122.08 313.059 122.083 312.937C122.082 312.82 122.051 312.704 121.991 312.603C121.932 312.502 121.846 312.418 121.744 312.361L113.276 307.784C113.124 307.703 112.946 307.686 112.781 307.736C112.616 307.787 112.478 307.902 112.398 308.055C112.317 308.207 112.3 308.386 112.351 308.552C112.401 308.717 112.515 308.855 112.668 308.937L119.987 312.879L92.1434 325.7C92.0325 325.751 91.9379 325.832 91.87 325.934C91.8021 326.035 91.7636 326.154 91.7588 326.276C91.7621 326.396 91.7968 326.512 91.8593 326.613C91.9219 326.714 92.01 326.797 92.1147 326.853L179.086 370.831C181.644 372.118 184.468 372.782 187.33 372.768V372.768Z" fill="#CECEE9"/>
<path d="M177.816 377.38C182.791 377.286 187.643 375.814 191.836 373.125C196.813 369.978 200.913 365.613 203.751 360.439C206.589 355.266 208.071 349.453 208.06 343.547V248.252C208.06 248.08 207.992 247.914 207.87 247.792C207.748 247.67 207.583 247.601 207.411 247.601C207.239 247.601 207.074 247.67 206.953 247.792C206.831 247.914 206.763 248.08 206.763 248.252V343.536C206.763 355.14 200.786 366.052 191.158 372.001C183.862 376.521 175.761 377.328 169.492 374.151L72.8302 325.458L88.9855 318.045C89.0965 317.994 89.1911 317.914 89.2581 317.811C89.3252 317.709 89.3621 317.59 89.3644 317.468C89.3622 317.349 89.328 317.232 89.2654 317.131C89.2027 317.029 89.114 316.947 89.0084 316.892L79.8228 312.199C79.6749 312.15 79.5144 312.157 79.3706 312.217C79.2268 312.277 79.1094 312.387 79.0397 312.527C78.9701 312.667 78.9529 312.827 78.9912 312.978C79.0296 313.13 79.121 313.263 79.2487 313.352L87.2632 317.428L71.0907 324.858C70.9786 324.908 70.8828 324.988 70.8147 325.09C70.7466 325.192 70.7089 325.312 70.7061 325.435C70.7075 325.555 70.742 325.673 70.8059 325.774C70.8697 325.876 70.9603 325.958 71.0677 326.011L168.941 375.316C171.697 376.693 174.738 377.4 177.816 377.38V377.38Z" fill="#CECEE9"/>
<path d="M167.167 381.709C171.703 381.709 176.559 380.262 181.141 377.432C189.23 372.422 197.882 362.063 197.882 348.003V252.726C197.866 252.564 197.792 252.415 197.672 252.305C197.553 252.196 197.397 252.136 197.236 252.136C197.074 252.136 196.919 252.196 196.799 252.305C196.68 252.415 196.605 252.564 196.59 252.726V347.98C196.59 361.498 188.26 371.477 180.458 376.296C173.224 380.775 165.324 381.634 159.319 378.602L48.0754 322.656L61.3658 316.361C61.4543 316.332 61.5355 316.284 61.6038 316.221C61.6722 316.157 61.7261 316.079 61.7619 315.993C61.7977 315.907 61.8146 315.814 61.8113 315.72C61.8081 315.627 61.7849 315.535 61.7432 315.451C61.7016 315.368 61.6425 315.294 61.5699 315.235C61.4974 315.177 61.4131 315.134 61.3228 315.111C61.2325 315.088 61.1384 315.085 61.0467 315.102C60.9551 315.119 60.8681 315.155 60.7917 315.208L46.3186 322.04C46.2089 322.09 46.1159 322.172 46.0508 322.274C45.9857 322.376 45.9511 322.495 45.9512 322.616C45.9509 322.735 45.9834 322.852 46.0452 322.954C46.1071 323.056 46.1957 323.138 46.3014 323.192L158.734 379.755C161.353 381.061 164.242 381.73 167.167 381.709V381.709Z" fill="#CECEE9"/>
<path d="M146.109 392.022C151.069 391.921 155.906 390.445 160.083 387.756C168.172 382.741 176.823 372.387 176.823 358.299V252.195C176.822 252.023 176.753 251.858 176.632 251.737C176.51 251.615 176.346 251.546 176.175 251.544C176.09 251.544 176.006 251.561 175.927 251.594C175.849 251.627 175.778 251.675 175.718 251.735C175.658 251.796 175.611 251.868 175.579 251.947C175.547 252.026 175.531 252.11 175.532 252.195V358.299C175.532 371.846 167.213 381.824 159.457 386.632C152.223 391.111 144.306 391.964 138.284 388.938L26.3511 332.56C26.2621 332.515 26.1638 332.491 26.0641 332.491C25.9644 332.491 25.866 332.515 25.777 332.56L16.9358 337.068C16.8598 337.106 16.792 337.158 16.7364 337.223C16.6808 337.287 16.6384 337.362 16.6117 337.443C16.585 337.524 16.5745 337.609 16.5809 337.694C16.5873 337.779 16.6103 337.862 16.6488 337.938C16.7274 338.092 16.863 338.208 17.0263 338.262C17.1896 338.316 17.3674 338.303 17.5214 338.226L26.0698 333.863L137.652 390.062C140.279 391.372 143.176 392.044 146.109 392.022V392.022Z" fill="#CECEE9"/>
<path d="M157.126 387.231C162.092 387.128 166.933 385.652 171.117 382.966C176.145 379.867 180.307 375.537 183.213 370.382C186.119 365.226 187.674 359.415 187.732 353.491V258.214C187.717 258.052 187.642 257.902 187.522 257.793C187.403 257.684 187.247 257.624 187.086 257.624C186.924 257.624 186.769 257.684 186.649 257.793C186.53 257.902 186.455 258.052 186.44 258.214V353.491C186.44 367.119 178.184 377.074 170.463 381.853C163.206 386.344 155.249 387.185 149.169 384.113L20.668 319.63C20.52 319.581 20.3595 319.587 20.2158 319.647C20.072 319.707 19.9545 319.817 19.8849 319.957C19.8152 320.097 19.798 320.258 19.8364 320.409C19.8748 320.561 19.9662 320.693 20.0939 320.783L148.555 385.271C151.22 386.589 154.156 387.261 157.126 387.231V387.231Z" fill="#CECEE9"/>
<path d="M137.28 396.634C142.251 396.537 147.099 395.062 151.288 392.373C156.28 389.242 160.399 384.889 163.259 379.723C166.119 374.557 167.626 368.746 167.638 362.836V256.727C167.623 256.564 167.548 256.412 167.427 256.302C167.307 256.192 167.15 256.131 166.987 256.131C166.824 256.131 166.667 256.192 166.546 256.302C166.426 256.412 166.35 256.564 166.335 256.727V362.836C166.324 368.525 164.873 374.119 162.119 379.091C159.364 384.063 155.396 388.251 150.587 391.261C143.302 395.763 135.259 396.587 129.07 393.457L32.0353 344.568C31.9456 344.525 31.8475 344.503 31.7483 344.503C31.649 344.503 31.5509 344.525 31.4612 344.568L16.1671 351.952L9.39845 348.822C9.24146 348.751 9.06309 348.746 8.90193 348.806C8.74077 348.866 8.60978 348.988 8.5373 349.145C8.50162 349.222 8.48149 349.305 8.47807 349.39C8.47464 349.475 8.48798 349.56 8.51732 349.64C8.54667 349.72 8.59143 349.793 8.64905 349.855C8.70667 349.918 8.776 349.968 8.85305 350.004L15.903 353.261C15.992 353.306 16.0904 353.329 16.1901 353.329C16.2898 353.329 16.3881 353.306 16.4771 353.261L31.7597 345.882L128.513 394.616C131.237 395.97 134.24 396.661 137.28 396.634V396.634Z" fill="#CECEE9"/>
<path d="M127.21 401.13C132.185 401.038 137.037 399.566 141.229 396.875C146.209 393.731 150.312 389.368 153.153 384.195C155.994 379.023 157.48 373.21 157.471 367.303V261.194C157.479 261.104 157.469 261.013 157.44 260.927C157.412 260.84 157.365 260.761 157.305 260.694C157.244 260.627 157.17 260.574 157.087 260.537C157.005 260.5 156.915 260.481 156.825 260.481C156.735 260.481 156.645 260.5 156.563 260.537C156.48 260.574 156.406 260.627 156.345 260.694C156.284 260.761 156.238 260.84 156.21 260.927C156.181 261.013 156.171 261.104 156.179 261.194V367.303C156.19 372.988 154.762 378.582 152.029 383.561C149.295 388.539 145.346 392.738 140.552 395.763C133.255 400.277 125.16 401.089 118.908 397.925L34.5038 355.416C34.4148 355.371 34.3164 355.348 34.2167 355.348C34.117 355.348 34.0187 355.371 33.9297 355.416L11.4823 365.983L3.82375 362.161C3.74848 362.123 3.66634 362.099 3.58211 362.093C3.49788 362.087 3.41324 362.097 3.33311 362.124C3.25298 362.151 3.17896 362.194 3.11535 362.249C3.05175 362.305 2.99982 362.373 2.9626 362.449C2.92403 362.526 2.90087 362.609 2.89443 362.694C2.88799 362.78 2.8984 362.866 2.92506 362.947C2.95173 363.029 2.99412 363.104 3.04982 363.169C3.10552 363.234 3.17342 363.287 3.24965 363.325L11.1895 367.28C11.2778 367.327 11.3764 367.352 11.4765 367.352C11.5767 367.352 11.6753 367.327 11.7636 367.28L34.211 356.708L118.346 399.072C121.098 400.447 124.135 401.152 127.21 401.13V401.13Z" fill="#CECEE9"/>
<path d="M116.899 405.557C121.866 405.458 126.709 403.984 130.895 401.297C135.896 398.173 140.024 393.825 142.892 388.661C145.76 383.496 147.274 377.684 147.292 371.771V265.667C147.3 265.577 147.29 265.486 147.261 265.4C147.233 265.314 147.186 265.235 147.126 265.168C147.065 265.101 146.991 265.047 146.908 265.01C146.826 264.974 146.736 264.955 146.646 264.955C146.556 264.955 146.466 264.974 146.384 265.01C146.301 265.047 146.227 265.101 146.166 265.168C146.105 265.235 146.059 265.314 146.03 265.4C146.002 265.486 145.992 265.577 146 265.667V371.771C145.983 377.463 144.526 383.058 141.764 388.029C139.002 393.001 135.027 397.185 130.212 400.19C122.938 404.687 114.907 405.517 108.729 402.392L36.9665 366.121C36.8776 366.076 36.7792 366.052 36.6794 366.052C36.5796 366.052 36.4813 366.076 36.3924 366.121L2.97961 382.395C2.8519 382.484 2.76051 382.617 2.72214 382.769C2.68378 382.92 2.70099 383.081 2.77064 383.22C2.84029 383.36 2.95772 383.47 3.1015 383.53C3.24527 383.591 3.40578 383.597 3.55372 383.548L36.6909 367.407L108.161 403.54C110.877 404.886 113.869 405.577 116.899 405.557V405.557Z" fill="#CECEE9"/>
<path d="M107.931 410.313C112.875 410.262 117.71 408.84 121.899 406.203C131.578 400.219 137.118 389.289 137.118 376.227V280.967C137.119 280.882 137.103 280.797 137.071 280.719C137.039 280.64 136.992 280.568 136.932 280.508C136.872 280.448 136.801 280.401 136.722 280.369C136.644 280.336 136.56 280.32 136.475 280.321C136.304 280.321 136.14 280.389 136.019 280.51C135.897 280.631 135.828 280.795 135.827 280.967V376.227C135.827 388.834 130.505 399.36 121.222 405.107C113.976 409.581 105.296 410.243 98.556 406.837L39.1479 376.964C39.0596 376.917 38.961 376.892 38.8608 376.892C38.7607 376.892 38.6621 376.917 38.5738 376.964L24.1408 383.721C24.0632 383.755 23.9934 383.805 23.9355 383.868C23.8776 383.93 23.8328 384.004 23.8039 384.084C23.775 384.164 23.7624 384.249 23.7671 384.334C23.7717 384.42 23.7934 384.503 23.8308 384.579C23.9062 384.732 24.0382 384.848 24.1984 384.903C24.3585 384.958 24.5338 384.947 24.6862 384.873L38.8493 378.273L97.9819 408.03C101.075 409.561 104.483 410.343 107.931 410.313V410.313Z" fill="#CECEE9"/>
<path d="M6.31513 383.087C6.31513 384.188 4.90283 385.081 3.15182 385.081C1.40081 385.081 0 384.188 0 383.087C0 381.986 1.41803 381.086 3.17479 381.086C4.93154 381.086 6.31513 381.991 6.31513 383.087Z" fill="#CECEE9"/>
<path d="M27.586 383.934C27.586 385.035 26.1737 385.929 24.417 385.929C22.6602 385.929 21.2422 385.035 21.2422 383.934C21.2422 382.833 22.6602 381.939 24.4112 381.939C26.1622 381.939 27.586 382.827 27.586 383.934Z" fill="#CECEE9"/>
<path d="M6.70576 362.755C6.70576 363.862 5.29347 364.761 3.54246 364.761C1.79145 364.761 0.367676 363.862 0.367676 362.755C0.367676 361.648 1.79145 360.76 3.54246 360.76C5.29347 360.76 6.70576 361.654 6.70576 362.755Z" fill="#CECEE9"/>
<path d="M12.2974 349.479C12.2974 350.58 10.8794 351.479 9.1284 351.479C7.37739 351.479 5.95361 350.58 5.95361 349.479C5.95361 348.378 7.37739 347.484 9.1284 347.484C10.8794 347.484 12.2974 348.378 12.2974 349.479Z" fill="#CECEE9"/>
<path d="M20.3864 336.975C20.3864 338.082 18.9741 338.97 17.2231 338.97C15.4721 338.97 14.0483 338.082 14.0483 336.975C14.0483 335.869 15.4664 334.981 17.2231 334.981C18.9799 334.981 20.3864 335.874 20.3864 336.975Z" fill="#CECEE9"/>
<path d="M23.5383 320.177C23.5383 321.279 22.126 322.172 20.3692 322.172C18.6125 322.172 17.2231 321.279 17.2231 320.177C17.2231 319.076 18.6412 318.171 20.3922 318.171C22.1432 318.171 23.5383 319.071 23.5383 320.177Z" fill="#CECEE9"/>
<path d="M64.2479 316.061C64.2479 317.168 62.8356 318.062 61.0846 318.062C59.3336 318.062 57.9155 317.168 57.9155 316.061C57.9155 314.955 59.3336 314.067 61.0846 314.067C62.8356 314.067 64.2479 314.96 64.2479 316.061Z" fill="#CECEE9"/>
<path d="M82.7342 312.879C82.7342 313.98 81.3219 314.88 79.5652 314.88C77.8084 314.88 76.4019 313.98 76.4019 312.879C76.4019 311.778 77.8199 310.885 79.5652 310.885C81.3104 310.885 82.7342 311.773 82.7342 312.879Z" fill="#CECEE9"/>
<path d="M116.135 308.314C116.135 309.421 114.723 310.32 112.972 310.32C111.221 310.32 109.797 309.421 109.797 308.314C109.797 307.207 111.221 306.319 112.972 306.319C114.723 306.319 116.135 307.213 116.135 308.314Z" fill="#CECEE9"/>
<path d="M245.193 514.41C245.343 514.414 245.49 514.366 245.608 514.273C245.725 514.18 245.808 514.049 245.839 513.902C245.871 513.756 245.851 513.602 245.783 513.468C245.714 513.335 245.601 513.23 245.463 513.171L193.754 489.109L240.124 465.613C255.435 457.876 267.893 437.574 267.893 420.36V244.644C267.893 244.471 267.825 244.305 267.703 244.183C267.582 244.061 267.417 243.992 267.245 243.992C267.073 243.992 266.908 244.061 266.786 244.183C266.664 244.305 266.596 244.471 266.596 244.644V420.36C266.596 437.135 254.459 456.914 239.539 464.454L191.968 488.55C191.864 488.605 191.776 488.688 191.714 488.79C191.652 488.891 191.619 489.007 191.618 489.126C191.619 489.248 191.654 489.368 191.72 489.47C191.786 489.572 191.881 489.653 191.991 489.703L244.918 514.329C245.001 514.379 245.096 514.407 245.193 514.41V514.41Z" fill="#CECEE9"/>
<path d="M203.881 511.868C204.002 511.863 204.12 511.825 204.221 511.758C204.322 511.691 204.403 511.597 204.455 511.487C204.491 511.41 204.511 511.326 204.514 511.241C204.517 511.156 204.503 511.071 204.473 510.991C204.443 510.911 204.398 510.838 204.34 510.775C204.281 510.713 204.211 510.663 204.134 510.629L166.691 493.15L229.928 461.151C245.24 453.403 257.698 433.106 257.698 415.893V240.182C257.698 240.01 257.63 239.845 257.51 239.723C257.389 239.601 257.226 239.532 257.055 239.531C256.882 239.531 256.716 239.599 256.594 239.721C256.471 239.843 256.402 240.009 256.4 240.182V415.893C256.4 432.662 244.264 452.446 229.348 459.992L164.917 492.591C164.812 492.646 164.725 492.729 164.664 492.831C164.603 492.932 164.57 493.049 164.57 493.168C164.57 493.286 164.603 493.403 164.664 493.504C164.725 493.606 164.812 493.689 164.917 493.744L203.577 511.787C203.671 511.837 203.775 511.865 203.881 511.868V511.868Z" fill="#CECEE9"/>
<path d="M160.014 515.038C160.12 515.038 160.225 515.01 160.318 514.958L168.786 510.386C168.888 510.33 168.974 510.246 169.032 510.145C169.091 510.043 169.121 509.927 169.119 509.81C169.12 509.688 169.085 509.569 169.02 509.467C168.955 509.365 168.862 509.284 168.751 509.233L140.953 496.43L219.766 456.683C235.077 448.936 247.536 428.639 247.536 411.425V235.709C247.544 235.618 247.534 235.527 247.505 235.441C247.476 235.355 247.43 235.276 247.369 235.209C247.309 235.142 247.235 235.088 247.152 235.052C247.069 235.015 246.98 234.996 246.89 234.996C246.799 234.996 246.71 235.015 246.627 235.052C246.545 235.088 246.471 235.142 246.41 235.209C246.349 235.276 246.303 235.355 246.274 235.441C246.246 235.527 246.235 235.618 246.244 235.709V411.425C246.244 428.195 234.107 447.973 219.186 455.525L139.174 495.877C139.066 495.93 138.976 496.012 138.912 496.114C138.848 496.216 138.813 496.333 138.812 496.453C138.816 496.575 138.854 496.693 138.921 496.795C138.988 496.897 139.081 496.978 139.191 497.03L167.023 509.845L159.709 513.799C159.581 513.867 159.479 513.976 159.419 514.109C159.36 514.242 159.347 514.391 159.382 514.533C159.417 514.674 159.498 514.8 159.613 514.889C159.727 514.979 159.868 515.027 160.014 515.027V515.038Z" fill="#CECEE9"/>
<path d="M119.867 514.214C119.967 514.212 120.065 514.186 120.154 514.139L129.34 509.441C129.445 509.387 129.534 509.305 129.595 509.203C129.656 509.101 129.687 508.983 129.684 508.864C129.683 508.743 129.647 508.624 129.581 508.522C129.515 508.419 129.421 508.338 129.311 508.288L113.144 500.863L209.593 452.227C224.905 444.485 237.368 424.182 237.368 406.969V231.241C237.368 231.068 237.3 230.903 237.178 230.781C237.057 230.658 236.892 230.59 236.72 230.59C236.548 230.59 236.383 230.658 236.261 230.781C236.139 230.903 236.071 231.068 236.071 231.241V406.958C236.071 423.727 223.934 443.511 209.013 451.051L111.376 500.304C111.27 500.359 111.181 500.442 111.117 500.543C111.054 500.644 111.018 500.761 111.014 500.88C111.017 501.003 111.055 501.123 111.123 501.225C111.191 501.327 111.287 501.408 111.399 501.457L127.566 508.876L119.603 512.963C119.527 513.002 119.459 513.055 119.403 513.12C119.347 513.185 119.305 513.26 119.278 513.341C119.251 513.423 119.241 513.509 119.248 513.594C119.254 513.68 119.277 513.763 119.316 513.839C119.367 513.945 119.445 514.035 119.541 514.101C119.638 514.167 119.75 514.206 119.867 514.214Z" fill="#CECEE9"/>
<path d="M94.4513 511.51C94.57 511.511 94.6865 511.478 94.7878 511.416C94.8892 511.354 94.9714 511.265 95.0254 511.159C95.0655 511.083 95.0904 511 95.0985 510.915C95.1066 510.83 95.0979 510.744 95.0728 510.662C95.0478 510.58 95.0069 510.503 94.9524 510.437C94.898 510.371 94.8311 510.317 94.7556 510.277L85.1509 505.262L199.397 447.748C214.714 440.006 227.172 419.698 227.172 402.49V226.774C227.172 226.601 227.104 226.435 226.982 226.313C226.861 226.191 226.696 226.122 226.524 226.122C226.352 226.122 226.186 226.191 226.065 226.313C225.943 226.435 225.875 226.601 225.875 226.774V402.49C225.875 419.265 213.738 439.044 198.823 446.584L83.4286 504.668C83.3212 504.721 83.2305 504.803 83.1667 504.905C83.1029 505.007 83.0683 505.124 83.0669 505.244C83.0679 505.363 83.1009 505.48 83.1626 505.581C83.2243 505.683 83.3122 505.766 83.4171 505.821L94.1413 511.43C94.2363 511.482 94.3429 511.51 94.4513 511.51Z" fill="#CECEE9"/>
<path d="M63.1973 495.393C63.2985 495.39 63.3981 495.366 63.4901 495.323L178.311 437.441C193.645 429.699 206.103 409.402 206.103 392.189V227.321C206.111 227.231 206.101 227.14 206.072 227.054C206.044 226.968 205.998 226.889 205.937 226.822C205.876 226.755 205.802 226.701 205.719 226.664C205.637 226.628 205.547 226.609 205.457 226.609C205.367 226.609 205.277 226.628 205.195 226.664C205.112 226.701 205.038 226.755 204.977 226.822C204.916 226.889 204.87 226.968 204.842 227.054C204.813 227.14 204.803 227.231 204.811 227.321V392.189C204.811 408.958 192.675 428.737 177.754 436.277L63.1973 494.009L54.6489 489.651C54.5725 489.598 54.4855 489.561 54.3939 489.544C54.3023 489.528 54.2081 489.531 54.1178 489.554C54.0275 489.577 53.9433 489.619 53.8707 489.678C53.7982 489.737 53.7391 489.81 53.6974 489.894C53.6557 489.978 53.6325 490.069 53.6293 490.163C53.6261 490.256 53.6429 490.349 53.6788 490.436C53.7146 490.522 53.7685 490.6 53.8368 490.663C53.9052 490.727 53.9863 490.775 54.0748 490.804L62.916 495.318C63.004 495.361 63.0996 495.386 63.1973 495.393V495.393Z" fill="#CECEE9"/>
<path d="M57.5254 508.322C57.627 508.322 57.7272 508.298 57.8182 508.253L189.236 442.26C204.547 434.518 217.011 414.21 217.011 396.979V221.28C216.996 221.118 216.921 220.969 216.802 220.859C216.682 220.75 216.527 220.69 216.365 220.69C216.204 220.69 216.048 220.75 215.929 220.859C215.809 220.969 215.735 221.118 215.719 221.28V396.979C215.719 413.748 203.583 433.538 188.662 441.078L57.2326 507.083C57.0809 507.163 56.966 507.299 56.9125 507.463C56.8589 507.626 56.8708 507.804 56.9456 507.959C56.9985 508.068 57.0809 508.16 57.1835 508.225C57.286 508.289 57.4045 508.323 57.5254 508.322V508.322Z" fill="#CECEE9"/>
<path d="M72.0502 481.817C72.1525 481.817 72.2532 481.791 72.343 481.742L169.183 432.916C184.494 425.174 196.963 404.865 196.963 387.652V233.616C196.948 233.453 196.873 233.302 196.752 233.192C196.632 233.082 196.475 233.021 196.312 233.021C196.149 233.021 195.992 233.082 195.871 233.192C195.751 233.302 195.675 233.453 195.66 233.616V387.652C195.66 404.427 183.524 424.206 168.608 431.751L72.0445 480.439L56.7619 473.072C56.6733 473.026 56.5748 473.001 56.4748 473.001C56.3749 473.001 56.2764 473.026 56.1878 473.072L49.1436 476.329C49.0537 476.355 48.9705 476.399 48.8997 476.46C48.8288 476.521 48.7721 476.597 48.7333 476.682C48.6946 476.768 48.6748 476.86 48.6753 476.954C48.6758 477.048 48.6967 477.14 48.7364 477.225C48.7761 477.31 48.8337 477.385 48.9052 477.445C48.9767 477.505 49.0604 477.549 49.1505 477.574C49.2406 477.598 49.3349 477.603 49.4269 477.587C49.5189 477.571 49.6064 477.535 49.6832 477.482L56.4519 474.363L71.7632 481.754C71.8535 481.794 71.9512 481.816 72.0502 481.817V481.817Z" fill="#CECEE9"/>
<path d="M80.3052 468.051C80.4072 468.055 80.5082 468.031 80.598 467.982L159.026 428.443C174.343 420.706 186.801 400.398 186.801 383.185V229.149C186.801 228.976 186.733 228.81 186.611 228.688C186.49 228.566 186.324 228.497 186.152 228.497C185.98 228.497 185.815 228.566 185.694 228.688C185.572 228.81 185.504 228.976 185.504 229.149V383.185C185.504 399.954 173.361 419.744 158.446 427.284L80.2994 466.679L57.8463 456.107C57.7573 456.062 57.659 456.038 57.5593 456.038C57.4595 456.038 57.3612 456.062 57.2722 456.107L49.3726 460.079C49.2191 460.156 49.1022 460.29 49.0473 460.453C48.9924 460.616 49.0041 460.795 49.0798 460.949C49.1595 461.102 49.2951 461.217 49.458 461.271C49.6208 461.324 49.7981 461.313 49.9524 461.237L57.6052 457.421L80.0641 467.988C80.1388 468.026 80.2212 468.048 80.3052 468.051Z" fill="#CECEE9"/>
<path d="M86.5345 455.565C86.6362 455.565 86.7365 455.542 86.8273 455.496L148.83 423.975C164.136 416.233 176.594 395.936 176.594 378.717V246.356C176.602 246.266 176.592 246.175 176.563 246.088C176.535 246.002 176.489 245.923 176.428 245.856C176.367 245.789 176.293 245.736 176.21 245.699C176.128 245.662 176.038 245.643 175.948 245.643C175.858 245.643 175.768 245.662 175.686 245.699C175.603 245.736 175.529 245.789 175.468 245.856C175.407 245.923 175.361 246.002 175.333 246.088C175.304 246.175 175.294 246.266 175.302 246.356V378.717C175.302 395.492 163.166 415.27 148.245 422.816L86.523 454.187L51.1354 437.723C50.9792 437.653 50.8017 437.648 50.6415 437.708C50.4812 437.768 50.3513 437.89 50.28 438.046C50.2443 438.123 50.2242 438.207 50.2207 438.292C50.2173 438.377 50.2307 438.462 50.26 438.542C50.2893 438.622 50.3341 438.695 50.3917 438.757C50.4493 438.819 50.5187 438.87 50.5957 438.905L86.259 455.507C86.3465 455.544 86.4399 455.563 86.5345 455.565Z" fill="#CECEE9"/>
<path d="M93.8372 442.197C93.9378 442.198 94.0368 442.172 94.1243 442.122L138.652 419.507C153.963 411.766 166.421 391.468 166.421 374.255V274.412C166.422 274.327 166.406 274.243 166.374 274.164C166.342 274.085 166.294 274.013 166.235 273.952C166.175 273.892 166.104 273.843 166.025 273.811C165.947 273.778 165.863 273.761 165.778 273.761C165.606 273.762 165.442 273.832 165.321 273.953C165.2 274.075 165.131 274.24 165.129 274.412V374.255C165.129 391.025 152.993 410.803 138.072 418.343L93.82 440.825L43.5918 417.19C43.5154 417.137 43.4284 417.1 43.3368 417.083C43.2451 417.067 43.151 417.07 43.0607 417.093C42.9704 417.116 42.8861 417.158 42.8136 417.217C42.741 417.276 42.6819 417.349 42.6403 417.433C42.5986 417.517 42.5754 417.608 42.5722 417.702C42.5689 417.795 42.5858 417.888 42.6216 417.975C42.6574 418.061 42.7113 418.139 42.7797 418.202C42.848 418.266 42.9292 418.314 43.0177 418.343L93.5387 442.122C93.6324 442.166 93.7338 442.192 93.8372 442.197V442.197Z" fill="#CECEE9"/>
<path d="M46.5026 417.732C46.5026 418.839 45.0904 419.732 43.3393 419.732C41.5883 419.732 40.1646 418.839 40.1646 417.732C40.1646 416.625 41.5826 415.737 43.3393 415.737C45.0961 415.737 46.5026 416.579 46.5026 417.732Z" fill="#CECEE9"/>
<path d="M54.0401 438.162C54.0401 439.263 52.6221 440.162 50.8768 440.162C49.1315 440.162 47.6963 439.263 47.6963 438.162C47.6963 437.061 49.1143 436.179 50.8768 436.179C52.6393 436.179 54.0401 437.061 54.0401 438.162Z" fill="#CECEE9"/>
<path d="M52.6046 460.228C52.6046 461.33 51.1865 462.229 49.4413 462.229C47.696 462.229 46.2607 461.33 46.2607 460.228C46.2607 459.127 47.6788 458.228 49.4413 458.228C51.2038 458.228 52.6046 459.127 52.6046 460.228Z" fill="#CECEE9"/>
<path d="M52.6046 476.894C52.6046 477.995 51.1865 478.894 49.4413 478.894C47.696 478.894 46.2607 477.995 46.2607 476.894C46.2607 475.793 47.6788 474.894 49.4413 474.894C51.2038 474.894 52.6046 475.793 52.6046 476.894Z" fill="#CECEE9"/>
<path d="M57.5251 490.21C57.5251 491.317 56.1128 492.211 54.3618 492.211C52.6108 492.211 51.187 491.317 51.187 490.21C51.187 489.103 52.605 488.216 54.3618 488.216C56.1185 488.216 57.5251 489.109 57.5251 490.21Z" fill="#CECEE9"/>
<path d="M60.7002 507.66C60.7002 508.772 59.2764 509.666 57.5311 509.666C55.7858 509.666 54.3506 508.772 54.3506 507.66C54.3506 506.547 55.7744 505.665 57.5311 505.665C59.2879 505.665 60.7002 506.57 60.7002 507.66Z" fill="#CECEE9"/>
<path d="M97.9362 510.853C97.9362 511.96 96.5239 512.859 94.7729 512.859C93.0219 512.859 91.5981 511.96 91.5981 510.853C91.5981 509.746 93.0162 508.859 94.7729 508.859C96.5297 508.859 97.9362 509.746 97.9362 510.853Z" fill="#CECEE9"/>
<path d="M123.088 513.557C123.088 514.658 121.675 515.557 119.93 515.557C118.185 515.557 116.75 514.658 116.75 513.557C116.75 512.456 118.168 511.562 119.93 511.562C121.693 511.562 123.088 512.45 123.088 513.557Z" fill="#CECEE9"/>
<path d="M163.258 514.537C163.258 515.644 161.845 516.537 160.088 516.537C158.332 516.537 156.919 515.644 156.919 514.537C156.919 513.43 158.337 512.537 160.088 512.537C161.839 512.537 163.258 513.424 163.258 514.537Z" fill="#CECEE9"/>
<path d="M206.975 511.211C206.975 512.318 205.563 513.211 203.812 513.211C202.06 513.211 200.637 512.318 200.637 511.211C200.637 510.104 202.055 509.216 203.812 509.216C205.568 509.216 206.975 510.11 206.975 511.211Z" fill="#CECEE9"/>
<path d="M248.661 513.764C248.661 514.865 247.243 515.765 245.492 515.765C243.741 515.765 242.317 514.865 242.317 513.764C242.317 512.663 243.741 511.764 245.492 511.764C247.243 511.764 248.661 512.658 248.661 513.764Z" fill="#CECEE9"/>
<path d="M308.396 262.704C284.027 259.515 259.349 259.515 234.98 262.704H127.049V333.88C127.049 374.509 191.813 407.454 271.723 407.454C351.632 407.454 416.396 374.509 416.396 333.88V262.704H308.396Z" fill="url(#paint0_linear_2_87)"/>
<path d="M271.694 388.361C191.808 388.361 127.021 355.422 127.021 314.788V333.88C127.021 374.509 191.785 407.454 271.694 407.454C351.604 407.454 416.368 374.509 416.368 333.88V314.788C416.345 355.422 351.586 388.361 271.694 388.361Z" fill="url(#paint1_linear_2_87)"/>
<path d="M271.694 353.641C191.808 353.641 127.021 320.696 127.021 280.056V314.788C127.021 355.422 191.785 388.361 271.694 388.361C351.604 388.361 416.368 355.422 416.368 314.788V280.056C416.345 320.696 351.586 353.641 271.694 353.641Z" fill="url(#paint2_linear_2_87)"/>
<path d="M271.694 353.641C191.808 353.641 127.021 320.696 127.021 280.056V314.788C127.021 355.422 191.785 388.361 271.694 388.361C351.604 388.361 416.368 355.422 416.368 314.788V280.056C416.345 320.696 351.586 353.641 271.694 353.641Z" fill="url(#paint3_linear_2_87)"/>
<path d="M271.694 353.641C191.808 353.641 127.021 320.696 127.021 280.056V314.788C127.021 355.422 191.785 388.361 271.694 388.361C351.604 388.361 416.368 355.422 416.368 314.788V280.056C416.345 320.696 351.586 353.641 271.694 353.641Z" fill="url(#paint4_linear_2_87)"/>
<path d="M271.694 352.915C191.808 352.915 127.021 319.97 127.021 279.341V314.055C127.021 354.696 191.785 387.623 271.694 387.623C351.604 387.623 416.368 354.696 416.368 314.055V279.341C416.345 319.97 351.586 352.915 271.694 352.915Z" fill="url(#paint5_linear_2_87)"/>
<path d="M271.694 260.312C259.417 260.297 247.152 261.096 234.98 262.704H127.049V280.056C127.049 320.696 191.813 353.641 271.723 353.641C351.632 353.641 416.396 320.696 416.396 280.056V262.704H308.465C296.274 261.093 283.99 260.293 271.694 260.312V260.312Z" fill="url(#paint6_linear_2_87)"/>
<path d="M271.694 260.312C259.417 260.297 247.152 261.096 234.98 262.704H127.049V280.056C127.049 320.696 191.813 353.641 271.723 353.641C351.632 353.641 416.396 320.696 416.396 280.056V262.704H308.465C296.274 261.093 283.99 260.293 271.694 260.312V260.312Z" fill="url(#paint7_linear_2_87)"/>
<path d="M271.694 260.312C259.417 260.297 247.152 261.096 234.98 262.704H127.049V280.056C127.049 320.696 191.813 353.641 271.723 353.641C351.632 353.641 416.396 320.696 416.396 280.056V262.704H308.465C296.274 261.093 283.99 260.293 271.694 260.312V260.312Z" fill="url(#paint8_linear_2_87)"/>
<path d="M416.345 262.704C416.345 303.333 351.586 336.278 271.671 336.278C191.756 336.278 126.997 303.333 126.997 262.704C126.997 222.075 191.762 189.131 271.671 189.131C351.58 189.131 416.345 222.064 416.345 262.704Z" fill="url(#paint9_linear_2_87)"/>
<path d="M415.931 262.295C415.931 302.705 351.351 335.465 271.694 335.465C192.037 335.465 127.451 302.705 127.451 262.295C127.451 221.885 192.031 189.131 271.694 189.131C351.356 189.131 415.931 221.879 415.931 262.295Z" fill="url(#paint10_linear_2_87)"/>
<path d="M271.694 314.303C246.123 314.303 222.097 309.501 204.036 300.779C185.59 291.879 175.003 279.825 175.003 267.708C175.003 263.725 175.084 258.439 175.084 258.439C175.084 258.439 246.123 221.124 271.694 221.124C297.264 221.124 368.367 260.9 368.367 260.9C368.367 260.9 368.367 265.241 368.367 267.714C368.367 279.819 357.786 291.885 339.334 300.785C321.29 309.501 297.264 314.303 271.694 314.303Z" fill="url(#paint11_linear_2_87)"/>
<path d="M271.694 308.879C246.123 308.879 222.097 304.083 204.036 295.367C185.59 286.46 175.003 274.401 175.003 262.295C175.003 250.189 185.59 238.124 204.036 229.229C222.097 220.507 246.123 215.706 271.694 215.706C297.264 215.706 321.29 220.507 339.346 229.229C357.798 238.13 368.378 250.184 368.378 262.301C368.378 274.418 357.798 286.466 339.346 295.372C321.29 304.083 297.264 308.879 271.694 308.879Z" fill="url(#paint12_linear_2_87)"/>
<path d="M271.694 300.71C216.919 300.71 183.282 277.076 183.282 260.133C183.282 243.191 216.913 219.545 271.694 219.545C326.475 219.545 360.106 243.18 360.106 260.133C360.106 277.087 326.463 300.71 271.694 300.71Z" fill="url(#paint13_linear_2_87)"/>
<path d="M271.694 298.67C217.729 298.67 185.303 275.842 185.303 260.128C185.303 244.413 217.729 221.574 271.694 221.574C325.66 221.574 358.079 244.402 358.079 260.128C358.079 275.853 325.66 298.67 271.694 298.67Z" fill="url(#paint14_linear_2_87)"/>
<path d="M196.022 277.352C209.708 266.019 235.974 256.023 271.694 256.023C307.415 256.023 333.697 266.019 347.361 277.352C354.359 271.588 358.079 265.442 358.079 260.128C358.079 244.402 325.66 221.574 271.694 221.574C217.729 221.574 185.303 244.402 185.303 260.128C185.303 265.442 189.023 271.564 196.022 277.352Z" fill="#201362"/>
<path d="M272.503 0C217.843 0 185 16.9634 185 28.6319V262.349C185 274.017 217.843 305 272.503 305C327.163 305 360 274.017 360 262.349V28.6319C360 16.9634 327.163 0 272.503 0Z" fill="url(#paint15_linear_2_87)"/>
<g style="mix-blend-mode:screen">
<path d="M239.837 242.442C239.836 243.144 239.627 243.83 239.238 244.413C238.849 244.996 238.296 245.45 237.65 245.718C237.003 245.986 236.292 246.056 235.607 245.918C234.921 245.78 234.291 245.442 233.797 244.945C233.303 244.448 232.967 243.815 232.831 243.127C232.695 242.438 232.766 241.724 233.033 241.076C233.301 240.427 233.755 239.873 234.336 239.483C234.917 239.093 235.601 238.885 236.3 238.885C236.765 238.884 237.226 238.976 237.656 239.154C238.086 239.333 238.476 239.595 238.805 239.925C239.133 240.256 239.394 240.648 239.571 241.08C239.748 241.512 239.838 241.975 239.837 242.442V242.442Z" fill="#5A69F7"/>
</g>
<g style="mix-blend-mode:screen">
<path d="M314.797 154.468C314.8 155.172 314.594 155.861 314.206 156.447C313.818 157.034 313.266 157.491 312.619 157.762C311.972 158.033 311.259 158.106 310.571 157.97C309.883 157.834 309.251 157.496 308.754 156.999C308.258 156.502 307.919 155.868 307.782 155.178C307.644 154.488 307.714 153.772 307.981 153.121C308.249 152.471 308.703 151.915 309.286 151.523C309.869 151.132 310.554 150.923 311.255 150.923C312.192 150.924 313.09 151.298 313.754 151.962C314.418 152.627 314.793 153.527 314.797 154.468V154.468Z" fill="#5EFFFE"/>
</g>
<g style="mix-blend-mode:screen">
<path d="M290.128 270.948C290.128 271.649 289.921 272.334 289.533 272.917C289.145 273.5 288.594 273.955 287.949 274.223C287.304 274.491 286.594 274.562 285.909 274.425C285.224 274.288 284.595 273.95 284.101 273.455C283.607 272.959 283.271 272.327 283.135 271.639C282.999 270.952 283.068 270.239 283.336 269.591C283.603 268.943 284.055 268.39 284.636 268C285.217 267.61 285.899 267.402 286.598 267.402C287.534 267.402 288.432 267.776 289.094 268.441C289.756 269.106 290.128 270.007 290.128 270.948V270.948Z" fill="#5A69F7"/>
</g>
<g style="mix-blend-mode:screen">
<path d="M347.898 225.278C347.896 225.979 347.687 226.663 347.297 227.245C346.908 227.827 346.355 228.279 345.709 228.546C345.064 228.812 344.354 228.88 343.67 228.742C342.985 228.603 342.357 228.264 341.865 227.767C341.373 227.27 341.038 226.638 340.903 225.95C340.769 225.263 340.84 224.55 341.108 223.903C341.377 223.256 341.83 222.703 342.411 222.315C342.993 221.927 343.675 221.72 344.373 221.721C344.838 221.72 345.298 221.812 345.727 221.991C346.156 222.169 346.546 222.432 346.874 222.762C347.201 223.093 347.461 223.485 347.636 223.917C347.812 224.349 347.901 224.811 347.898 225.278V225.278Z" fill="#5A69F7"/>
</g>
<g style="mix-blend-mode:screen">
<path d="M213.893 202.983C213.892 203.685 213.684 204.372 213.294 204.955C212.905 205.538 212.351 205.992 211.705 206.26C211.058 206.528 210.347 206.597 209.661 206.459C208.975 206.321 208.346 205.982 207.852 205.484C207.358 204.987 207.022 204.353 206.887 203.664C206.752 202.975 206.823 202.261 207.092 201.613C207.36 200.965 207.815 200.411 208.397 200.022C208.979 199.632 209.663 199.425 210.363 199.426C210.827 199.427 211.287 199.52 211.715 199.699C212.144 199.878 212.534 200.14 212.861 200.47C213.189 200.801 213.449 201.193 213.626 201.624C213.803 202.055 213.894 202.517 213.893 202.983Z" fill="#5A69F7"/>
</g>
<path d="M269.073 183.557C269.072 184.259 268.863 184.945 268.474 185.529C268.084 186.112 267.531 186.566 266.884 186.834C266.238 187.102 265.527 187.171 264.841 187.033C264.155 186.894 263.526 186.555 263.032 186.058C262.538 185.56 262.202 184.927 262.067 184.238C261.931 183.549 262.003 182.835 262.271 182.187C262.54 181.538 262.994 180.984 263.576 180.595C264.159 180.206 264.843 179.999 265.542 180C266.007 180.001 266.466 180.093 266.895 180.273C267.324 180.452 267.713 180.714 268.041 181.044C268.369 181.374 268.629 181.766 268.806 182.197C268.983 182.629 269.074 183.09 269.073 183.557Z" fill="#D0E3FF"/>
<path d="M318.018 107.412C318.06 105.411 317.947 103.411 317.679 101.428C314.31 76.7382 294.331 58.3318 276 59.9228C267.641 60.6492 262.841 65.4453 260.361 72.2879C256.187 69.3365 251.009 67.8953 246.428 68.6217C237.569 70.0282 234.791 77.7412 235.015 87.1433C232.816 85.46 230.387 84.4167 228.051 84.6242C222.402 85.1199 220.794 90.4695 221.098 96.309C221.38 101.774 225.232 106.922 229.71 109.614L230.244 109.885C230.393 109.954 230.525 110.04 230.674 110.109C230.78 110.166 230.889 110.216 231.002 110.259L311.663 151.419C313.047 152.259 314.49 152.997 315.98 153.627L316.112 153.684L316.818 154.047L316.778 153.961C326.997 157.967 336.412 154.589 336.946 140.276C337.572 124.233 329.19 110.012 318.018 107.412Z" fill="#2DD6CB"/>
<path d="M318.472 107.527L302.328 115.499L289.026 107.636V139.918L311.657 151.447C313.041 152.287 314.484 153.025 315.974 153.655C316.014 153.655 316.06 153.69 316.095 153.713L316.812 154.076L316.772 153.99C320.871 155.592 317.094 161.224 317.094 161.224C317.094 161.224 332.084 153.598 333.335 152.779C337.187 150.225 339.937 145.775 340.178 139.284C340.775 123.426 329.402 110.398 318.472 107.527Z" fill="url(#paint16_linear_2_87)"/>
<path d="M264.414 93.0923L256.773 88.5729L255.55 69.7054C252.648 68.5828 249.509 68.216 246.428 68.6389C244.262 69.0259 242.174 69.7637 240.245 70.8237C235.56 73.2391 225.134 79.1824 225.134 79.1824C225.134 79.1824 230.387 84.4339 228.051 84.6414C222.401 85.1372 220.794 90.4868 221.104 96.3263C221.379 101.791 225.232 106.939 229.715 109.631L230.249 109.902C230.399 109.971 230.531 110.058 230.68 110.127C230.786 110.184 230.895 110.234 231.007 110.277L264.426 127.334L264.414 93.0923Z" fill="url(#paint17_linear_2_87)"/>
<path d="M318.471 107.527L302.328 115.499L256.773 88.5729L255.55 72.1323C257.209 72.7549 251.807 70.7661 251.807 70.7661C251.807 70.7661 264.471 64.425 268.278 62.2287C270.654 60.9064 273.289 60.1195 275.999 59.9228C294.33 58.3203 314.309 76.7267 317.679 101.428C317.946 103.413 318.059 105.415 318.018 107.417C318.167 107.463 318.318 107.5 318.471 107.527V107.527Z" fill="url(#paint18_linear_2_87)"/>
<path fill-rule="evenodd" clip-rule="evenodd" d="M301.978 109.498C302.264 111.596 302.376 113.592 302.331 115.486C313.682 118.033 324.343 131.669 323.748 147.752C323.188 162.055 311.409 166.054 301.075 162.072L301.111 162.152L300.51 161.846C300.454 161.822 300.397 161.799 300.341 161.775C300.316 161.764 300.292 161.754 300.267 161.743C298.686 161.065 297.22 160.308 295.869 159.478L215.4 118.435C215.252 118.374 215.106 118.306 214.961 118.232C214.752 118.124 214.545 118.011 214.338 117.893L213.997 117.719L214.012 117.701C209.529 115.001 205.669 109.86 205.385 104.397C205.081 98.5514 206.677 93.1846 212.343 92.7061C214.679 92.4996 217.109 93.5327 219.3 95.209C219.066 85.8025 222.305 78.1042 231.162 76.7152C235.73 75.9972 240.499 77.4032 244.671 80.3585C247.148 73.5186 251.946 68.7378 260.309 67.999C278.612 66.3907 298.596 84.8086 301.978 109.498Z" fill="url(#paint19_linear_2_87)"/>
<defs>
<linearGradient id="paint0_linear_2_87" x1="126.44" y1="333.887" x2="416.052" y2="333.887" gradientUnits="userSpaceOnUse">
<stop stop-color="white"/>
<stop offset="1" stop-color="#F2F4FF"/>
</linearGradient>
<linearGradient id="paint1_linear_2_87" x1="126.412" y1="361.123" x2="416.024" y2="361.123" gradientUnits="userSpaceOnUse">
<stop stop-color="white"/>
<stop offset="1" stop-color="#F2F4FF"/>
</linearGradient>
<linearGradient id="paint2_linear_2_87" x1="63838.4" y1="83225.8" x2="209803" y2="83225.8" gradientUnits="userSpaceOnUse">
<stop stop-color="#F3F4FA"/>
<stop offset="1" stop-color="#CED3EC"/>
</linearGradient>
<linearGradient id="paint3_linear_2_87" x1="63838.4" y1="83225.8" x2="209803" y2="83225.8" gradientUnits="userSpaceOnUse">
<stop stop-color="#F3F4FA"/>
<stop offset="1" stop-color="#CED3EC"/>
</linearGradient>
<linearGradient id="paint4_linear_2_87" x1="64156.7" y1="83362.2" x2="209965" y2="83362.2" gradientUnits="userSpaceOnUse">
<stop stop-color="#F3F4FA"/>
<stop offset="1" stop-color="#E8EAF5"/>
</linearGradient>
<linearGradient id="paint5_linear_2_87" x1="63838.4" y1="83207.4" x2="209803" y2="83207.4" gradientUnits="userSpaceOnUse">
<stop stop-color="#F3F4FA"/>
<stop offset="1" stop-color="#CED3EC"/>
</linearGradient>
<linearGradient id="paint6_linear_2_87" x1="63838.5" y1="67445.2" x2="209803" y2="67445.2" gradientUnits="userSpaceOnUse">
<stop stop-color="#DCDCE1"/>
<stop offset="1" stop-color="#B5BDED"/>
</linearGradient>
<linearGradient id="paint7_linear_2_87" x1="63838.5" y1="67445.2" x2="209803" y2="67445.2" gradientUnits="userSpaceOnUse">
<stop stop-color="#DCDCE1"/>
<stop offset="1" stop-color="#B5BDED"/>
</linearGradient>
<linearGradient id="paint8_linear_2_87" x1="63838.5" y1="67445.2" x2="209803" y2="67445.2" gradientUnits="userSpaceOnUse">
<stop stop-color="#DCDCE1"/>
<stop offset="1" stop-color="#B5BDED"/>
</linearGradient>
<linearGradient id="paint9_linear_2_87" x1="63838.5" y1="94815.1" x2="209803" y2="94815.1" gradientUnits="userSpaceOnUse">
<stop stop-color="#F3F4FA"/>
<stop offset="1" stop-color="#E8EAF5"/>
</linearGradient>
<linearGradient id="paint10_linear_2_87" x1="63864.4" y1="94188.5" x2="208970" y2="94188.5" gradientUnits="userSpaceOnUse">
<stop stop-color="white"/>
<stop offset="1" stop-color="#E8EAF5"/>
</linearGradient>
<linearGradient id="paint11_linear_2_87" x1="175.003" y1="267.714" x2="368.378" y2="267.714" gradientUnits="userSpaceOnUse">
<stop stop-color="#3E4B9C"/>
<stop offset="1" stop-color="#2C2069"/>
</linearGradient>
<linearGradient id="paint12_linear_2_87" x1="109691" y1="68739.1" x2="96123.6" y2="40582.6" gradientUnits="userSpaceOnUse">
<stop stop-color="#402F99"/>
<stop offset="1" stop-color="#427DB3"/>
</linearGradient>
<linearGradient id="paint13_linear_2_87" x1="183.288" y1="260.122" x2="360.094" y2="260.122" gradientUnits="userSpaceOnUse">
<stop stop-color="#4579CC"/>
<stop offset="1" stop-color="#4DA9DA"/>
</linearGradient>
<linearGradient id="paint14_linear_2_87" x1="271.694" y1="302.33" x2="271.694" y2="254.876" gradientUnits="userSpaceOnUse">
<stop stop-color="#054175"/>
<stop offset="1" stop-color="#0068C4"/>
</linearGradient>
<linearGradient id="paint15_linear_2_87" x1="272.503" y1="297.572" x2="272.503" y2="41.7814" gradientUnits="userSpaceOnUse">
<stop offset="0.05" stop-color="#035AA7"/>
<stop offset="0.11" stop-color="#035AA7" stop-opacity="0.84"/>
<stop offset="0.2" stop-color="#035AA7" stop-opacity="0.65"/>
<stop offset="0.29" stop-color="#035AA7" stop-opacity="0.47"/>
<stop offset="0.39" stop-color="#035AA7" stop-opacity="0.33"/>
<stop offset="0.49" stop-color="#035AA7" stop-opacity="0.21"/>
<stop offset="0.59" stop-color="#035AA7" stop-opacity="0.12"/>
<stop offset="0.71" stop-color="#035AA7" stop-opacity="0.05"/>
<stop offset="0.83" stop-color="#035AA7" stop-opacity="0.01"/>
<stop offset="1" stop-color="#6BB7FB" stop-opacity="0"/>
</linearGradient>
<linearGradient id="paint16_linear_2_87" x1="327.5" y1="115" x2="294" y2="134" gradientUnits="userSpaceOnUse">
<stop stop-color="#005198"/>
<stop offset="1" stop-color="#01325E"/>
</linearGradient>
<linearGradient id="paint17_linear_2_87" x1="253.665" y1="76.6608" x2="222.198" y2="90.4541" gradientUnits="userSpaceOnUse">
<stop stop-color="#005198"/>
<stop offset="1" stop-color="#01325E"/>
</linearGradient>
<linearGradient id="paint18_linear_2_87" x1="301.926" y1="67.5739" x2="263.673" y2="94.8329" gradientUnits="userSpaceOnUse">
<stop stop-color="#005198"/>
<stop offset="1" stop-color="#01325E"/>
</linearGradient>
<linearGradient id="paint19_linear_2_87" x1="264.561" y1="67.9012" x2="305" y2="164" gradientUnits="userSpaceOnUse">
<stop stop-color="#019AFF"/>
<stop offset="1" stop-color="#1F57D0"/>
</linearGradient>
</defs>
</svg>
