<svg width="24" height="30" viewBox="0 0 24 30" fill="none" xmlns="http://www.w3.org/2000/svg">
<path d="M16.6278 21.4813L15.7947 22.4661C19.2636 22.9069 21.6878 23.9066 21.6878 25.0705C21.6878 26.6426 17.2719 27.9169 11.8253 27.9169C6.37875 27.9169 1.9629 26.6426 1.9629 25.0705C1.9629 23.9066 4.38744 22.9069 7.85601 22.4661L7.02291 21.4813C3.14159 22.1459 0.445801 23.586 0.445801 25.2602C0.445801 27.5644 5.54072 29.4328 11.8253 29.4328C18.11 29.4328 23.2049 27.5644 23.2049 25.2602C23.2049 23.586 20.5095 22.1459 16.6278 21.4813ZM21.3638 10.1397C21.3638 4.87175 17.0929 0.601196 11.8253 0.601196C6.55743 0.601196 2.28688 4.87175 2.28688 10.1397C2.28688 15.4076 11.8253 26.0371 11.8253 26.0371C11.8253 26.0371 21.3638 15.4076 21.3638 10.1397ZM11.8253 2.19075C16.2146 2.19075 19.7739 5.79437 19.7739 10.2391C19.7739 14.6837 11.8253 23.6524 11.8253 23.6524C11.8253 23.6524 3.87681 14.6834 3.87681 10.2387C3.87681 5.79399 7.43567 2.19075 11.8253 2.19075ZM15.8 9.34488C15.8 7.14986 14.0207 5.37024 11.8253 5.37024C9.63069 5.37024 7.85107 7.14986 7.85107 9.34488C7.85107 11.5395 9.63069 13.3191 11.8253 13.3191C14.0207 13.3191 15.8 11.5395 15.8 9.34488ZM9.44063 9.34488C9.44063 8.02772 10.5086 6.96017 11.8253 6.96017C13.1429 6.96017 14.21 8.02772 14.21 9.34488C14.21 10.6617 13.1429 11.7292 11.8253 11.7296C10.5082 11.7296 9.44063 10.6617 9.44063 9.34488Z" fill="url(#paint0_linear_2_3709)"/>
<defs>
<linearGradient id="paint0_linear_2_3709" x1="11.8253" y1="0.601196" x2="11.8253" y2="29.4328" gradientUnits="userSpaceOnUse">
<stop stop-color="#019AFF"/>
<stop offset="1" stop-color="#1F57D0"/>
</linearGradient>
</defs>
</svg>
