<svg width="24" height="30" viewBox="0 0 24 30" fill="none" xmlns="http://www.w3.org/2000/svg">
<path d="M16.929 21.5348C16.7428 21.5005 16.5527 21.57 16.4305 21.7145C16.1566 22.0383 16.3506 22.539 16.7689 22.609C19.7091 23.1015 21.6878 24.0189 21.6878 25.0705C21.6878 26.6426 17.2719 27.9169 11.8253 27.9169C6.37875 27.9169 1.9629 26.6426 1.9629 25.0705C1.9629 24.0189 3.94188 23.1015 6.88181 22.6091C7.30004 22.539 7.4941 22.0383 7.22023 21.7145C7.09796 21.57 6.90786 21.5005 6.72169 21.5348C3.00282 22.2212 0.445801 23.6297 0.445801 25.2602C0.445801 27.5644 5.54072 29.4328 11.8253 29.4328C18.11 29.4328 23.2049 27.5644 23.2049 25.2602C23.2049 23.6297 20.6482 22.2212 16.929 21.5348ZM21.3638 10.1397C21.3638 4.87175 17.0929 0.601196 11.8253 0.601196C6.55743 0.601196 2.28688 4.87175 2.28688 10.1397C2.28688 12.9829 5.06558 17.3881 7.62344 20.8409C9.74849 23.7095 13.9022 23.7095 16.0272 20.8409C18.5851 17.3881 21.3638 12.9829 21.3638 10.1397ZM11.8253 2.19075C16.2146 2.19075 19.7739 5.79437 19.7739 10.2391C19.7739 12.3865 17.9184 15.5901 16.0004 18.3279C13.935 21.2761 9.71576 21.276 7.65042 18.3278C5.73237 15.5899 3.87681 12.3862 3.87681 10.2387C3.87681 5.79399 7.43567 2.19075 11.8253 2.19075ZM15.8 9.34488C15.8 7.14986 14.0207 5.37024 11.8253 5.37024C9.63069 5.37024 7.85107 7.14986 7.85107 9.34488C7.85107 11.5395 9.63069 13.3191 11.8253 13.3191C14.0207 13.3191 15.8 11.5395 15.8 9.34488ZM9.44063 9.34488C9.44063 8.02772 10.5086 6.96017 11.8253 6.96017C13.1429 6.96017 14.21 8.02772 14.21 9.34488C14.21 10.6617 13.1429 11.7292 11.8253 11.7296C10.5082 11.7296 9.44063 10.6617 9.44063 9.34488Z" fill="#FF5722"/>
</svg>
