<svg width="170" height="38" viewBox="0 0 170 38" fill="none" xmlns="http://www.w3.org/2000/svg">
<path d="M11.2622 13.1294L0 1.86719V27.6764L11.2622 38.0001V13.1294Z" fill="#F15A29"/>
<path d="M34.7251 11.2722L23.4629 0.0100098V27.1974L34.7251 37.5211V11.2722Z" fill="#39B54A"/>
<path d="M23.4629 27.1973V0L11.2622 13.1392V37.9902L23.4629 27.1973Z" fill="#BE1E2D"/>
<path d="M34.7256 37.3962V21.4414L46.457 24.5618L34.7256 37.3962Z" fill="#006036"/>
<path d="M57.925 28C57.7583 28 57.6167 27.95 57.5 27.85C57.4 27.75 57.35 27.6167 57.35 27.45V11.075C57.35 10.8917 57.4 10.75 57.5 10.65C57.6167 10.55 57.7583 10.5 57.925 10.5H58.55C58.8 10.5 58.975 10.6083 59.075 10.825L64.75 21.875L70.45 10.825C70.5667 10.6083 70.7417 10.5 70.975 10.5H71.575C71.7583 10.5 71.9 10.55 72 10.65C72.1 10.75 72.15 10.8917 72.15 11.075V27.45C72.15 27.6167 72.0917 27.75 71.975 27.85C71.875 27.95 71.7417 28 71.575 28H71.125C70.9583 28 70.825 27.95 70.725 27.85C70.625 27.75 70.575 27.6167 70.575 27.45V13.9L65.8 23.3C65.65 23.6333 65.3917 23.8 65.025 23.8H64.475C64.1083 23.8 63.85 23.6333 63.7 23.3L58.925 13.9V27.45C58.925 27.6167 58.875 27.75 58.775 27.85C58.675 27.95 58.5417 28 58.375 28H57.925ZM79.2818 28.25C78.4818 28.25 77.7402 28.0833 77.0568 27.75C76.3735 27.4167 75.8235 26.9667 75.4068 26.4C75.0068 25.8333 74.8068 25.2083 74.8068 24.525C74.8068 23.425 75.2485 22.525 76.1318 21.825C77.0318 21.125 78.2402 20.675 79.7568 20.475L83.7068 19.925V19.05C83.7068 18.1333 83.4235 17.4333 82.8568 16.95C82.3068 16.45 81.4568 16.2 80.3068 16.2C79.4568 16.2 78.7568 16.3667 78.2068 16.7C77.6735 17.0333 77.3318 17.4333 77.1818 17.9C77.1152 18.1 77.0318 18.2417 76.9318 18.325C76.8485 18.3917 76.7318 18.425 76.5818 18.425H76.2318C76.0818 18.425 75.9485 18.375 75.8318 18.275C75.7318 18.1583 75.6818 18.025 75.6818 17.875C75.6818 17.5083 75.8485 17.0833 76.1818 16.6C76.5152 16.1 77.0318 15.6667 77.7318 15.3C78.4318 14.9333 79.2902 14.75 80.3068 14.75C82.0902 14.75 83.3568 15.175 84.1068 16.025C84.8568 16.875 85.2318 17.9083 85.2318 19.125V27.45C85.2318 27.6167 85.1818 27.75 85.0818 27.85C84.9818 27.95 84.8485 28 84.6818 28H84.2568C84.0902 28 83.9568 27.95 83.8568 27.85C83.7568 27.75 83.7068 27.6167 83.7068 27.45V26.275C83.3402 26.825 82.7985 27.2917 82.0818 27.675C81.3818 28.0583 80.4485 28.25 79.2818 28.25ZM79.5318 26.8C80.7485 26.8 81.7485 26.4 82.5318 25.6C83.3152 24.8 83.7068 23.65 83.7068 22.15V21.3L80.4818 21.75C79.1152 21.9333 78.0818 22.25 77.3818 22.7C76.6818 23.15 76.3318 23.7167 76.3318 24.4C76.3318 25.1667 76.6485 25.7583 77.2818 26.175C77.9318 26.5917 78.6818 26.8 79.5318 26.8ZM89.0102 32.75C88.8435 32.75 88.7102 32.7 88.6102 32.6C88.5102 32.5 88.4602 32.3667 88.4602 32.2V15.55C88.4602 15.3833 88.5102 15.25 88.6102 15.15C88.7102 15.05 88.8435 15 89.0102 15H89.4352C89.6018 15 89.7352 15.05 89.8352 15.15C89.9352 15.25 89.9852 15.3833 89.9852 15.55V16.725C90.9518 15.4083 92.3518 14.75 94.1852 14.75C95.9852 14.75 97.3102 15.325 98.1602 16.475C99.0268 17.6083 99.4852 19.0083 99.5352 20.675C99.5518 20.8417 99.5602 21.1167 99.5602 21.5C99.5602 21.8833 99.5518 22.1583 99.5352 22.325C99.4852 23.9917 99.0268 25.4 98.1602 26.55C97.3102 27.6833 95.9852 28.25 94.1852 28.25C92.3685 28.25 90.9685 27.5917 89.9852 26.275V32.2C89.9852 32.3667 89.9352 32.5 89.8352 32.6C89.7352 32.7 89.6018 32.75 89.4352 32.75H89.0102ZM94.0352 26.8C95.3852 26.8 96.3685 26.375 96.9852 25.525C97.6185 24.6583 97.9602 23.55 98.0102 22.2C98.0268 22.0333 98.0352 21.8 98.0352 21.5C98.0352 19.95 97.7352 18.6833 97.1352 17.7C96.5352 16.7 95.5018 16.2 94.0352 16.2C92.7185 16.2 91.7268 16.6417 91.0602 17.525C90.3935 18.3917 90.0352 19.4167 89.9852 20.6L89.9602 21.575L89.9852 22.55C90.0018 23.2667 90.1602 23.95 90.4602 24.6C90.7602 25.2333 91.2102 25.7583 91.8102 26.175C92.4102 26.5917 93.1518 26.8 94.0352 26.8ZM102.787 28C102.62 28 102.487 27.95 102.387 27.85C102.287 27.75 102.237 27.6167 102.237 27.45V10.8C102.237 10.6333 102.287 10.5 102.387 10.4C102.487 10.3 102.62 10.25 102.787 10.25H103.212C103.378 10.25 103.512 10.3 103.612 10.4C103.712 10.5 103.762 10.6333 103.762 10.8V27.45C103.762 27.6167 103.712 27.75 103.612 27.85C103.512 27.95 103.378 28 103.212 28H102.787ZM111.902 28.25C110.318 28.25 109.043 27.7333 108.077 26.7C107.11 25.65 106.56 24.25 106.427 22.5L106.402 21.5L106.427 20.5C106.56 18.7667 107.102 17.375 108.052 16.325C109.018 15.275 110.302 14.75 111.902 14.75C113.635 14.75 114.985 15.325 115.952 16.475C116.935 17.625 117.427 19.2 117.427 21.2V21.575C117.427 21.7417 117.368 21.875 117.252 21.975C117.152 22.075 117.018 22.125 116.852 22.125H107.952V22.375C107.985 23.1583 108.16 23.8917 108.477 24.575C108.81 25.2417 109.268 25.7833 109.852 26.2C110.435 26.6 111.118 26.8 111.902 26.8C112.818 26.8 113.56 26.625 114.127 26.275C114.71 25.9083 115.127 25.5417 115.377 25.175C115.527 24.975 115.635 24.85 115.702 24.8C115.785 24.75 115.927 24.725 116.127 24.725H116.527C116.677 24.725 116.802 24.7667 116.902 24.85C117.002 24.9333 117.052 25.0417 117.052 25.175C117.052 25.525 116.827 25.95 116.377 26.45C115.943 26.9333 115.335 27.3583 114.552 27.725C113.768 28.075 112.885 28.25 111.902 28.25ZM115.902 20.725V20.625C115.902 19.3417 115.535 18.2833 114.802 17.45C114.085 16.6167 113.118 16.2 111.902 16.2C110.685 16.2 109.718 16.6167 109.002 17.45C108.302 18.2833 107.952 19.3417 107.952 20.625V20.725H115.902ZM120.849 28C120.683 28 120.549 27.95 120.449 27.85C120.349 27.75 120.299 27.6167 120.299 27.45V11.05C120.299 10.8833 120.349 10.75 120.449 10.65C120.549 10.55 120.683 10.5 120.849 10.5H121.324C121.491 10.5 121.624 10.55 121.724 10.65C121.824 10.75 121.874 10.8833 121.874 11.05V26.5H130.499C130.683 26.5 130.824 26.55 130.924 26.65C131.024 26.75 131.074 26.8917 131.074 27.075V27.45C131.074 27.6167 131.016 27.75 130.899 27.85C130.799 27.95 130.666 28 130.499 28H120.849ZM136.421 28.25C135.621 28.25 134.879 28.0833 134.196 27.75C133.512 27.4167 132.962 26.9667 132.546 26.4C132.146 25.8333 131.946 25.2083 131.946 24.525C131.946 23.425 132.387 22.525 133.271 21.825C134.171 21.125 135.379 20.675 136.896 20.475L140.846 19.925V19.05C140.846 18.1333 140.562 17.4333 139.996 16.95C139.446 16.45 138.596 16.2 137.446 16.2C136.596 16.2 135.896 16.3667 135.346 16.7C134.812 17.0333 134.471 17.4333 134.321 17.9C134.254 18.1 134.171 18.2417 134.071 18.325C133.987 18.3917 133.871 18.425 133.721 18.425H133.371C133.221 18.425 133.087 18.375 132.971 18.275C132.871 18.1583 132.821 18.025 132.821 17.875C132.821 17.5083 132.987 17.0833 133.321 16.6C133.654 16.1 134.171 15.6667 134.871 15.3C135.571 14.9333 136.429 14.75 137.446 14.75C139.229 14.75 140.496 15.175 141.246 16.025C141.996 16.875 142.371 17.9083 142.371 19.125V27.45C142.371 27.6167 142.321 27.75 142.221 27.85C142.121 27.95 141.987 28 141.821 28H141.396C141.229 28 141.096 27.95 140.996 27.85C140.896 27.75 140.846 27.6167 140.846 27.45V26.275C140.479 26.825 139.937 27.2917 139.221 27.675C138.521 28.0583 137.587 28.25 136.421 28.25ZM136.671 26.8C137.887 26.8 138.887 26.4 139.671 25.6C140.454 24.8 140.846 23.65 140.846 22.15V21.3L137.621 21.75C136.254 21.9333 135.221 22.25 134.521 22.7C133.821 23.15 133.471 23.7167 133.471 24.4C133.471 25.1667 133.787 25.7583 134.421 26.175C135.071 26.5917 135.821 26.8 136.671 26.8ZM151.324 28.25C149.49 28.25 148.09 27.5917 147.124 26.275V27.45C147.124 27.6167 147.074 27.75 146.974 27.85C146.874 27.95 146.74 28 146.574 28H146.149C145.982 28 145.849 27.95 145.749 27.85C145.649 27.75 145.599 27.6167 145.599 27.45V10.8C145.599 10.6333 145.649 10.5 145.749 10.4C145.849 10.3 145.982 10.25 146.149 10.25H146.574C146.74 10.25 146.874 10.3 146.974 10.4C147.074 10.5 147.124 10.6333 147.124 10.8V16.725C148.107 15.4083 149.507 14.75 151.324 14.75C153.124 14.75 154.449 15.3417 155.299 16.525C156.165 17.6917 156.624 19.1167 156.674 20.8C156.69 20.9667 156.699 21.2 156.699 21.5C156.699 21.8 156.69 22.0333 156.674 22.2C156.624 23.8833 156.165 25.3167 155.299 26.5C154.449 27.6667 153.124 28.25 151.324 28.25ZM151.174 26.8C152.524 26.8 153.507 26.375 154.124 25.525C154.757 24.6583 155.099 23.55 155.149 22.2C155.165 22.0333 155.174 21.8 155.174 21.5C155.174 19.95 154.874 18.6833 154.274 17.7C153.674 16.7 152.64 16.2 151.174 16.2C150.29 16.2 149.549 16.4083 148.949 16.825C148.349 17.2417 147.899 17.775 147.599 18.425C147.299 19.0583 147.14 19.7333 147.124 20.45L147.099 21.425L147.124 22.4C147.174 23.5833 147.532 24.6167 148.199 25.5C148.865 26.3667 149.857 26.8 151.174 26.8ZM163.451 28.25C162.367 28.25 161.451 28.0667 160.701 27.7C159.967 27.3333 159.409 26.9167 159.026 26.45C158.659 25.9833 158.476 25.6083 158.476 25.325C158.476 25.175 158.534 25.0583 158.651 24.975C158.767 24.875 158.892 24.825 159.026 24.825H159.401C159.517 24.825 159.609 24.85 159.676 24.9C159.759 24.9333 159.851 25.0167 159.951 25.15C160.317 25.6667 160.759 26.075 161.276 26.375C161.809 26.6583 162.534 26.8 163.451 26.8C164.484 26.8 165.317 26.6083 165.951 26.225C166.584 25.825 166.901 25.2583 166.901 24.525C166.901 24.075 166.767 23.7083 166.501 23.425C166.251 23.1417 165.834 22.9 165.251 22.7C164.684 22.4833 163.834 22.2417 162.701 21.975C161.217 21.6417 160.201 21.1833 159.651 20.6C159.117 20.0167 158.851 19.275 158.851 18.375C158.851 17.7583 159.017 17.175 159.351 16.625C159.701 16.075 160.209 15.625 160.876 15.275C161.559 14.925 162.376 14.75 163.326 14.75C164.326 14.75 165.167 14.925 165.851 15.275C166.551 15.6083 167.067 16 167.401 16.45C167.751 16.9 167.926 17.2667 167.926 17.55C167.926 17.7 167.867 17.825 167.751 17.925C167.651 18.0083 167.526 18.05 167.376 18.05H167.001C166.767 18.05 166.584 17.9417 166.451 17.725C166.117 17.225 165.734 16.85 165.301 16.6C164.884 16.3333 164.226 16.2 163.326 16.2C162.359 16.2 161.626 16.4 161.126 16.8C160.626 17.2 160.376 17.725 160.376 18.375C160.376 18.775 160.476 19.1083 160.676 19.375C160.876 19.6417 161.251 19.8917 161.801 20.125C162.351 20.3417 163.151 20.5667 164.201 20.8C165.751 21.15 166.842 21.6167 167.476 22.2C168.109 22.7833 168.426 23.5583 168.426 24.525C168.426 25.2083 168.234 25.8333 167.851 26.4C167.467 26.9667 166.901 27.4167 166.151 27.75C165.401 28.0833 164.501 28.25 163.451 28.25Z" fill="black"/>
</svg>
