<svg width="424" height="164" viewBox="0 0 424 164" fill="none" xmlns="http://www.w3.org/2000/svg">
<g clip-path="url(#clip0_223_24238)">
<path d="M110.877 132.965L109.449 132.341L109.866 131.396C110.336 131.61 110.815 131.815 111.285 132.011L110.877 132.965Z" fill="#C0BCC9"/>
<path d="M152.418 141.53C151.531 141.53 150.644 141.53 149.819 141.53V140.496C150.706 140.496 151.531 140.496 152.392 140.496H152.871V141.53H152.418ZM155.967 141.468V140.434C156.987 140.434 158.007 140.345 159.018 140.282L159.089 141.316C158.051 141.387 157.004 141.432 155.993 141.468H155.967ZM146.715 141.379C145.686 141.316 144.666 141.254 143.637 141.165L143.726 140.131C144.737 140.22 145.757 140.282 146.768 140.345L146.715 141.379ZM162.131 141.076L162.034 140.042C163.045 139.952 164.065 139.846 165.076 139.721L165.201 140.746C164.207 140.871 163.214 140.986 162.158 141.076H162.131ZM140.594 140.826C139.574 140.71 138.554 140.576 137.534 140.434L137.685 139.409C138.687 139.551 139.698 139.685 140.71 139.792L140.594 140.826ZM168.279 140.291L168.128 139.266C169.13 139.115 170.141 138.945 171.144 138.758L171.33 139.783C170.31 139.997 169.299 140.166 168.279 140.327V140.291ZM134.492 139.952C133.48 139.774 132.469 139.578 131.458 139.373L131.662 138.357C132.664 138.562 133.667 138.749 134.66 138.927L134.492 139.952ZM174.355 139.177L174.142 138.17C175.135 137.956 176.129 137.733 177.122 137.484L177.362 138.491C176.359 138.776 175.357 139.043 174.355 139.213V139.177ZM128.442 138.714C127.44 138.482 126.446 138.232 125.453 137.965L125.71 136.967C126.703 137.225 127.688 137.475 128.682 137.706L128.442 138.714ZM180.351 137.724L180.076 136.717C181.061 136.45 182.036 136.164 183.012 135.826L183.314 136.815C182.329 137.198 181.344 137.484 180.351 137.76V137.724ZM122.481 137.127C121.497 136.833 120.521 136.53 119.536 136.236L119.856 135.246C120.831 135.567 121.798 135.87 122.774 136.138L122.481 137.127ZM186.276 135.951L185.948 134.97C186.906 134.64 187.873 134.302 188.822 133.945L189.186 134.917C188.192 135.273 187.225 135.621 186.276 135.951ZM116.645 135.229C115.687 134.881 114.72 134.524 113.762 134.141L114.134 133.179C115.092 133.553 116.041 133.909 116.999 134.257L116.645 135.229ZM192.042 133.802L191.652 132.84C192.601 132.457 193.541 132.064 194.473 131.654L194.881 132.608C193.931 133.018 192.982 133.419 192.033 133.802H192.042ZM197.692 131.325L197.249 130.389C198.136 129.952 199.085 129.497 199.99 129.043L200.46 129.934C199.532 130.427 198.606 130.891 197.684 131.325H197.692ZM203.183 128.526L202.695 127.635C203.582 127.144 204.469 126.636 205.356 126.128L205.88 127.02C204.981 127.525 204.079 128.027 203.174 128.526H203.183ZM208.505 125.406L207.964 124.515C208.851 123.98 209.685 123.428 210.528 122.857L211.104 123.749C210.226 124.301 209.339 124.863 208.496 125.406H208.505ZM213.641 121.984L213.047 121.092C213.881 120.504 214.697 119.907 215.513 119.31L216.134 120.139C215.3 120.781 214.475 121.387 213.632 121.984H213.641ZM218.564 118.267L217.926 117.456C218.715 116.823 219.504 116.172 220.285 115.513L220.95 116.306C220.152 116.975 219.363 117.652 218.555 118.267H218.564ZM223.265 114.274L222.582 113.507C223.339 112.818 224.084 112.123 224.818 111.422L225.527 112.179C224.773 112.892 224.019 113.588 223.257 114.274H223.265ZM227.701 110.014L226.964 109.283C227.683 108.561 228.384 107.821 229.084 107.081L229.829 107.785C229.146 108.543 228.437 109.283 227.718 110.014H227.701ZM231.905 105.495L231.125 104.817C231.799 104.051 232.455 103.275 233.111 102.491L233.901 103.151C233.289 103.944 232.597 104.728 231.923 105.495H231.905ZM235.835 100.744L235.019 100.111C235.648 99.309 236.26 98.489 236.864 97.669L237.697 98.284C237.124 99.1159 236.509 99.927 235.852 100.717L235.835 100.744ZM239.489 95.7616L238.602 95.1734C239.179 94.282 239.746 93.4799 240.305 92.6242L241.192 93.1857C240.66 94.0503 240.092 94.9149 239.498 95.7616H239.489ZM242.851 90.5653L241.964 90.0216C242.487 89.1303 243.002 88.239 243.516 87.3477L244.403 87.8647C243.933 88.8005 243.401 89.6829 242.869 90.5653H242.851ZM245.902 85.2175L245.015 84.7362C245.486 83.8449 245.956 82.9536 246.408 82.0088L247.295 82.4723C246.878 83.3636 246.408 84.2816 245.92 85.1818L245.902 85.2175Z" fill="#AAAAAA"/>
<path d="M248.698 79.5755L247.758 79.1387L248.396 77.7305L249.337 78.1494L248.698 79.5755Z" fill="#C0BCC9"/>
<path d="M101.6 40.0288L100.988 39.1999L102.248 38.3086L102.851 39.1464L101.6 40.0288Z" fill="#C0BCC9"/>
<path d="M245.584 58.3357C244.946 57.5425 244.298 56.7581 243.633 55.9827L244.413 55.3142C245.079 56.0897 245.744 56.8829 246.392 57.6851L245.584 58.3357ZM241.61 53.6831C240.927 52.9255 240.227 52.1857 239.526 51.446L240.262 50.724C240.981 51.4727 241.681 52.2214 242.373 52.9879L241.61 53.6831ZM237.37 49.2712C236.643 48.5581 235.907 47.854 235.162 47.1588L235.863 46.4012C236.616 47.0964 237.362 47.8094 238.089 48.5314L237.37 49.2712ZM232.891 45.1177C232.128 44.4492 231.348 43.7897 230.567 43.1479L231.223 42.3457C232.013 42.9964 232.793 43.6649 233.574 44.3423L232.891 45.1177ZM228.181 41.2405C227.374 40.6166 226.566 40.0016 225.742 39.4044L226.354 38.5666C227.178 39.1638 228.003 39.7877 228.811 40.4205L228.181 41.2405ZM223.249 37.6753C222.415 37.096 221.564 36.5344 220.712 35.9818L221.271 35.0905C222.158 35.6431 222.983 36.2136 223.834 36.8018L223.249 37.6753ZM105.354 37.399L104.777 36.5077C105.664 35.9283 106.489 35.3579 107.359 34.8053L107.909 35.6966C107.057 36.2611 106.205 36.8167 105.354 37.3633V37.399ZM218.122 34.3686C217.235 33.8427 216.348 33.3257 215.461 32.8266L215.966 31.9353C216.853 32.4344 217.741 32.9514 218.628 33.4862L218.122 34.3686ZM110.516 34.1101L109.984 33.2188C110.871 32.684 111.758 32.167 112.645 31.6679L113.142 32.5592C112.273 33.0405 111.395 33.5486 110.516 34.0744V34.1101ZM212.8 31.3292C211.913 30.8568 211.026 30.4379 210.077 29.9477L210.529 29.0564C211.416 29.502 212.365 29.9477 213.279 30.4468L212.8 31.3292ZM115.856 31.0886L115.377 30.1973C116.264 29.716 117.213 29.2525 118.136 28.8068L118.588 29.7427C117.675 30.1527 116.761 30.6162 115.856 31.0886ZM207.318 28.6464C206.387 28.2275 205.455 27.8175 204.515 27.4253L204.905 26.4716C205.854 26.8638 206.795 27.2827 207.735 27.7016L207.318 28.6464ZM121.356 28.4236L120.939 27.4699C121.879 27.051 122.828 26.641 123.769 26.2488L124.168 27.2114C123.228 27.6303 122.287 28.0047 121.356 28.4236ZM201.685 26.2933C200.736 25.9279 199.778 25.5714 198.82 25.2327L199.157 24.2612C200.124 24.5999 201.091 24.9564 202.049 25.3218L201.685 26.2933ZM127.006 26.0794L126.643 25.1079C127.609 24.7425 128.576 24.3949 129.543 24.0562L129.88 25.0366C128.922 25.3694 127.964 25.717 127.006 26.0794ZM195.92 24.2968C194.953 23.9938 193.977 23.6997 193.001 23.4055L193.285 22.4073C194.27 22.6925 195.254 22.9955 196.239 23.2986L195.92 24.2968ZM132.781 24.0651L132.47 23.0757C133.455 22.7727 134.44 22.4786 135.433 22.1844L135.717 23.1738C134.732 23.4768 133.757 23.771 132.781 24.0651ZM190.056 22.5677C189.072 22.3181 188.078 22.0775 187.085 21.8547L187.315 20.8475C188.318 21.0703 189.311 21.311 190.305 21.5694L190.056 22.5677ZM138.662 22.4073L138.378 21.3912C139.38 21.1416 140.374 20.9099 141.376 20.687L141.598 21.7031C140.64 21.9349 139.655 22.1666 138.662 22.4162V22.4073ZM184.095 21.2307C183.102 21.0347 182.1 20.8475 181.088 20.687L181.257 19.662C182.277 19.8314 183.288 20.0097 184.291 20.2057L184.095 21.2307ZM144.632 21.097L144.436 20.081C145.448 19.8849 146.468 19.7155 147.479 19.5551L147.639 20.5801C146.636 20.7405 145.634 20.9188 144.632 21.106V21.097ZM178.073 20.2057C177.061 20.072 176.05 19.9473 175.039 19.8403L175.145 18.8064C176.174 18.9223 177.194 19.0381 178.206 19.1807L178.073 20.2057ZM150.663 20.1166L150.53 19.0827C151.55 18.9579 152.57 18.842 153.599 18.7351L153.697 19.769C152.686 19.8938 151.675 20.0215 150.663 20.1523V20.1166ZM171.996 19.6086C170.985 19.5283 169.965 19.466 168.954 19.4214L168.998 18.3875C170.027 18.432 171.056 18.4944 172.076 18.5747L171.996 19.6086ZM156.74 19.5551L156.669 18.5212C157.697 18.4499 158.726 18.3964 159.747 18.3518V19.3857C158.78 19.4214 157.76 19.4749 156.74 19.5462V19.5551ZM165.876 19.3144C164.865 19.3144 163.845 19.3144 162.825 19.3144V18.2627C163.853 18.2627 164.882 18.2627 165.911 18.2627L165.876 19.3144Z" fill="#AAAAAA"/>
<path d="M248.438 62.0436C248.136 61.6247 247.826 61.2147 247.551 60.8047L248.367 60.1719L249.254 61.4286L248.438 62.0436Z" fill="#C0BCC9"/>
<path d="M211.335 79.6023H211.043V78.5684H211.335V79.6023ZM207.947 79.6023H204.904V78.5684H207.991L207.947 79.6023ZM201.738 79.6023H198.695V78.5684H201.791L201.738 79.6023ZM195.529 79.6023H192.486V78.5684H195.582L195.529 79.6023ZM189.319 79.6023H186.277V78.5684H189.373L189.319 79.6023ZM183.11 79.6023H180.068V78.5684H183.163L183.11 79.6023ZM176.901 79.6023H173.805V78.5684H176.901V79.6023ZM170.692 79.6023H167.596V78.5684H170.692V79.6023ZM164.482 79.6023H161.396V78.5684H164.482V79.6023ZM158.273 79.6023H155.178V78.5684H158.273V79.6023ZM152.064 79.6023H148.968V78.5684H152.064V79.6023ZM145.855 79.6023H142.759V78.5684H145.855V79.6023ZM139.646 79.6023H136.781V78.5684H139.876L139.646 79.6023ZM133.436 79.6023H130.341V78.5684H133.436V79.6023ZM127.227 79.6023H124.132V78.5684H127.227V79.6023ZM121.018 79.6023H117.922V78.5684H121.018V79.6023ZM114.809 79.6023H111.713V78.5684H114.809V79.6023ZM108.6 79.6023H105.504V78.5684H108.6V79.6023Z" fill="#AAAAAA"/>
<path d="M110.933 25.6787H10.6987C5.07475 25.6787 0.515625 30.2598 0.515625 35.9109V128.09C0.515625 133.741 5.07475 138.322 10.6987 138.322H110.933C116.557 138.322 121.116 133.741 121.116 128.09V35.9109C121.116 30.2598 116.557 25.6787 110.933 25.6787Z" fill="white"/>
<path d="M10.6987 26.1787H110.933C116.279 26.1787 120.616 30.5337 120.616 35.9109V128.09C120.616 133.467 116.279 137.822 110.933 137.822H10.6987C5.35316 137.822 1.01562 133.467 1.01562 128.09V35.9109C1.01562 30.5337 5.35316 26.1787 10.6987 26.1787Z" stroke="#333333" stroke-opacity="0.5"/>
<path d="M110.932 138.839H10.6976C7.86112 138.837 5.14152 137.703 3.13584 135.688C1.13017 133.673 0.00234903 130.94 0 128.09L0 35.9112C0.00234903 33.0611 1.13017 30.3284 3.13584 28.3131C5.14152 26.2977 7.86112 25.1645 10.6976 25.1621H110.932C113.768 25.1645 116.488 26.2977 118.494 28.3131C120.499 30.3284 121.627 33.0611 121.629 35.9112V128.09C121.627 130.94 120.499 133.673 118.494 135.688C116.488 137.703 113.768 138.837 110.932 138.839ZM10.6976 26.196C8.13402 26.1984 5.67613 27.2227 3.86342 29.0442C2.05071 30.8656 1.0313 33.3353 1.02895 35.9112V128.09C1.0313 130.666 2.05071 133.136 3.86342 134.957C5.67613 136.778 8.13402 137.803 10.6976 137.805H110.932C113.495 137.803 115.953 136.778 117.766 134.957C119.579 133.136 120.598 130.666 120.601 128.09V35.9112C120.598 33.3353 119.579 30.8656 117.766 29.0442C115.953 27.2227 113.495 26.1984 110.932 26.196H10.6976Z" fill="#E2E2E2"/>
<path d="M386.123 149.195H384.57V148.152H386.114L386.123 149.195Z" fill="#C0BCC9"/>
<path d="M381.425 149.088C380.378 149.044 379.34 148.99 378.311 148.91L378.391 147.876C379.411 147.956 380.44 148.01 381.469 148.054L381.425 149.088ZM375.216 148.642C374.187 148.536 373.149 148.411 372.129 148.277L372.262 147.252C373.273 147.386 374.302 147.502 375.322 147.609L375.216 148.642ZM369.006 147.823C367.978 147.662 366.957 147.475 365.937 147.279L366.133 146.263C367.135 146.459 368.155 146.637 369.175 146.797L369.006 147.823ZM362.877 146.646C361.857 146.414 360.846 146.174 359.843 145.915L360.092 144.908C361.091 145.163 362.094 145.404 363.099 145.63L362.877 146.646ZM356.828 145.095C355.825 144.81 354.832 144.507 353.838 144.204L354.149 143.214C355.133 143.526 356.118 143.829 357.111 144.106L356.828 145.095ZM350.884 143.197C349.9 142.849 348.924 142.492 347.957 142.118L348.321 141.147C349.279 141.521 350.246 141.877 351.222 142.216L350.884 143.197ZM345.057 140.951C344.099 140.541 343.15 140.122 342.2 139.694L342.626 138.749C343.567 139.177 344.507 139.587 345.456 139.988L345.057 140.951ZM339.38 138.357C338.448 137.893 337.517 137.466 336.603 136.931L337.082 136.039C337.969 136.53 338.91 136.993 339.832 137.448L339.38 138.357ZM333.933 135.478C333.046 134.961 332.159 134.435 331.272 133.891L331.813 133C332.7 133.544 333.587 134.061 334.474 134.569L333.933 135.478ZM328.611 132.234C327.724 131.663 326.881 131.084 326.021 130.451L326.607 129.604C327.494 130.184 328.31 130.763 329.179 131.324L328.611 132.234ZM323.484 128.668C322.597 128.053 321.817 127.421 321 126.779L321.63 125.959C322.446 126.601 323.262 127.216 324.096 127.831L323.484 128.668ZM318.552 124.782C317.754 124.117 316.965 123.439 316.184 122.75L316.867 121.975C317.639 122.652 318.419 123.329 319.209 123.989L318.552 124.782ZM313.869 120.656C313.115 119.942 312.361 119.221 311.625 118.49L312.352 117.75C313.079 118.472 313.824 119.194 314.578 119.898L313.869 120.656ZM309.434 116.252C308.715 115.504 308.006 114.737 307.314 113.962L308.076 113.267C308.768 114.033 309.469 114.791 310.179 115.539L309.434 116.252ZM305.265 111.609C304.59 110.807 303.934 110.004 303.287 109.193L304.085 108.543C304.732 109.354 305.38 110.147 306.045 110.931L305.265 111.609ZM301.371 106.716C300.75 105.887 300.138 105.049 299.534 104.193L300.377 103.596C300.971 104.434 301.575 105.272 302.195 106.101L301.371 106.716ZM297.787 101.608C297.21 100.717 296.652 99.8258 296.102 98.9344L296.989 98.3818C297.539 99.2731 298.089 100.164 298.665 100.984L297.787 101.608Z" fill="#AAAAAA"/>
<path d="M294.494 96.3316L293.723 94.9768L294.61 94.4688L295.381 95.8146L294.494 96.3316Z" fill="#C0BCC9"/>
<path d="M377.469 29.2167V28.1738H379.021V29.2077L377.469 29.2167Z" fill="#C0BCC9"/>
<path d="M289.172 80.0568L288.285 79.522C288.826 78.6307 289.385 77.7394 289.962 76.8481L290.849 77.4185C290.263 78.2742 289.704 79.1565 289.172 80.0568ZM292.569 74.7892L291.682 74.2009C292.277 73.3096 292.889 72.4718 293.51 71.625L294.344 72.2311C293.758 73.0868 293.155 73.9246 292.561 74.7892H292.569ZM296.268 69.7355L295.452 69.0937C296.1 68.2648 296.756 67.4448 297.43 66.6337L298.229 67.2933C297.555 68.0955 296.898 68.9065 296.268 69.7355ZM300.26 64.9046L299.479 64.2183C300.18 63.4339 300.881 62.6496 301.599 61.8741L302.353 62.5872C301.635 63.3537 300.934 64.1202 300.251 64.9046H300.26ZM304.527 60.3322L303.79 59.6013C304.536 58.8526 305.281 58.1128 306.043 57.382L306.753 58.1307C306.026 58.8259 305.245 59.5835 304.518 60.3322H304.527ZM309.059 56.0094L308.368 55.2339C309.148 54.5298 309.946 53.8346 310.754 53.1572L311.419 53.9505C310.612 54.6278 309.822 55.3142 309.051 56.0094H309.059ZM313.832 51.9628L313.193 51.1518C314.018 50.4922 314.852 49.8505 315.694 49.2176L316.315 50.0555C315.464 50.6794 314.639 51.3122 313.823 51.9628H313.832ZM318.843 48.2105L318.258 47.3192C319.145 46.7131 320.032 46.1248 320.866 45.5365L321.433 46.4278C320.555 47.025 319.686 47.6133 318.834 48.2105H318.843ZM324.068 44.7611L323.527 43.8698C324.414 43.3172 325.301 42.7824 326.241 42.2565L326.756 43.1478C325.845 43.6767 324.946 44.2144 324.059 44.7611H324.068ZM329.488 41.6415L329 40.7502C329.931 40.2511 330.863 39.7698 331.803 39.2974L332.264 40.1887C331.324 40.6611 330.401 41.1424 329.479 41.6415H329.488ZM335.085 38.8339L334.65 37.9426C335.608 37.497 336.575 37.0513 337.542 36.6592L337.941 37.6129C336.974 37.9783 336.025 38.3972 335.076 38.8339H335.085ZM340.842 36.3828L340.469 35.4113C341.445 35.0281 342.429 34.6626 343.423 34.3061L343.769 35.2865C342.781 35.6312 341.803 35.9966 340.833 36.3828H340.842ZM346.732 34.2705L346.421 33.29C347.423 32.9602 348.426 32.6572 349.437 32.3542L349.73 33.3524C348.718 33.6465 347.716 33.9496 346.723 34.2705H346.732ZM352.746 32.4879L352.488 31.4896C353.508 31.2222 354.529 30.9726 355.566 30.7409L355.788 31.7481C354.759 32.0155 353.748 32.265 352.737 32.5235L352.746 32.4879ZM358.848 31.1063L358.653 30.0902C359.694 29.8882 360.732 29.701 361.767 29.5287L361.935 30.5537C360.897 30.7587 359.868 30.9459 358.839 31.142L358.848 31.1063ZM365.058 30.0902L364.924 29.0652C365.962 28.9315 367.009 28.8068 368.056 28.6998L368.162 29.7248C367.08 29.8674 366.042 29.9922 365.013 30.1259L365.058 30.0902ZM371.267 29.4485L371.187 28.4146C372.234 28.3433 373.28 28.2809 374.336 28.2363V29.2702C373.307 29.3505 372.26 29.4129 371.231 29.4842L371.267 29.4485Z" fill="#AAAAAA"/>
<path d="M286.856 84.0855L285.969 83.5864C286.217 83.1318 286.465 82.695 286.723 82.2227L287.61 82.7307L286.856 84.0855Z" fill="#C0BCC9"/>
<path d="M377.947 89.2464H374.851V88.2393H377.947V89.2464ZM371.738 89.2464H368.642V88.2393H371.738V89.2464ZM365.528 89.2464H362.433V88.2393H365.528V89.2464ZM359.319 89.2464H356.232V88.2393H359.319V89.2464ZM353.11 89.2464H350.014V88.2393H353.11V89.2464ZM346.901 89.2464H343.903V88.2393H346.998L346.901 89.2464ZM340.692 89.2464H337.596V88.2393H340.692V89.2464ZM334.482 89.2464H331.387V88.2393H334.482V89.2464ZM328.273 89.2464H325.177V88.2393H328.273V89.2464ZM322.064 89.2464H318.968V88.2393H322.064V89.2464ZM315.855 89.2464H312.768V88.2393H315.855V89.2464ZM309.645 89.2464H306.55V88.2393H309.645V89.2464ZM303.436 89.2464H300.341V88.2393H303.436V89.2464ZM297.227 89.2464H294.131V88.2393H297.227V89.2464ZM291.018 89.2464H290.344V88.2393H291.018V89.2464Z" fill="#AAAAAA"/>
<path d="M28.0858 102.803H27.0391V92.5176H33.2483V93.4802H28.0858V96.9741H32.8225V97.9367H28.0858V102.803Z" fill="#194350"/>
<path d="M35.4184 94.0857C35.2816 94.0857 35.1478 94.045 35.0341 93.9686C34.9203 93.8922 34.8316 93.7836 34.7792 93.6566C34.7269 93.5295 34.7132 93.3898 34.7399 93.2549C34.7666 93.12 34.8324 92.9962 34.9292 92.8989C35.026 92.8017 35.1493 92.7355 35.2835 92.7087C35.4177 92.6818 35.5568 92.6956 35.6832 92.7482C35.8096 92.8009 35.9177 92.89 35.9937 93.0043C36.0697 93.1186 36.1103 93.253 36.1103 93.3905C36.108 93.5742 36.0344 93.7497 35.9051 93.8796C35.7759 94.0094 35.6012 94.0834 35.4184 94.0857ZM35.8886 102.803H34.9395V96.0021H35.8886V102.803Z" fill="#194350"/>
<path d="M38.8507 99.6655C38.8798 100.312 39.1527 100.923 39.614 101.375C40.0752 101.827 40.6903 102.086 41.3344 102.099C41.7657 102.101 42.1908 101.995 42.5706 101.79C42.9504 101.584 43.2726 101.286 43.5076 100.922L44.2438 101.537C43.9071 101.991 43.4676 102.359 42.9617 102.608C42.4557 102.858 41.8979 102.982 41.3344 102.972C40.3933 102.983 39.4867 102.617 38.8138 101.956C38.1409 101.295 37.7569 100.393 37.7463 99.4471C37.7357 98.5016 38.0994 97.5905 38.7573 96.9144C39.4152 96.2383 40.3135 95.8524 41.2545 95.8418C41.6945 95.8308 42.1319 95.9123 42.5387 96.0811C42.9454 96.2498 43.3126 96.5022 43.6166 96.822C43.9206 97.1417 44.1548 97.5218 44.304 97.9378C44.4533 98.3538 44.5144 98.7966 44.4833 99.2377V99.6744L38.8507 99.6655ZM43.4455 98.8812C43.4654 98.5877 43.4223 98.2933 43.319 98.0181C43.2157 97.7429 43.0546 97.4932 42.8468 97.286C42.639 97.0789 42.3892 96.9191 42.1144 96.8176C41.8397 96.716 41.5464 96.675 41.2545 96.6975C40.6584 96.6973 40.0839 96.9213 39.6439 97.3255C39.2039 97.7296 38.9305 98.2846 38.8773 98.8812H43.4455Z" fill="#194350"/>
<path d="M47.3866 102.803H46.4375V91.8047H47.3866V102.803Z" fill="#194350"/>
<path d="M56.4328 102.804H55.4748V101.663C55.1681 102.079 54.7663 102.416 54.3032 102.644C53.8401 102.872 53.3293 102.985 52.8137 102.973C51.8727 102.973 50.9702 102.597 50.3048 101.929C49.6394 101.26 49.2656 100.353 49.2656 99.4076C49.2656 98.4621 49.6394 97.5553 50.3048 96.8867C50.9702 96.218 51.8727 95.8424 52.8137 95.8424C53.3284 95.8304 53.8385 95.9423 54.3014 96.1687C54.7643 96.395 55.1666 96.7294 55.4748 97.1437V91.7959H56.4328V102.804ZM52.8226 102.099C53.5354 102.099 54.2191 101.815 54.7231 101.308C55.2271 100.802 55.5103 100.115 55.5103 99.3987C55.5103 98.6825 55.2271 97.9955 54.7231 97.4891C54.2191 96.9826 53.5354 96.6981 52.8226 96.6981C52.1098 96.6981 51.4262 96.9826 50.9221 97.4891C50.4181 97.9955 50.1349 98.6825 50.1349 99.3987C50.1349 100.115 50.4181 100.802 50.9221 101.308C51.4262 101.815 52.1098 102.099 52.8226 102.099Z" fill="#194350"/>
<path d="M62.7227 92.5176H66.12C68.6746 92.5176 71.4954 94.2289 71.4954 97.6604C71.495 98.3577 71.3537 99.0477 71.0801 99.6885C70.8066 100.329 70.4064 100.908 69.9038 101.389C69.4012 101.869 68.8067 102.243 68.1563 102.486C67.5059 102.729 66.8131 102.837 66.12 102.803H62.7227V92.5176ZM63.7694 101.841H65.7918C68.9053 101.841 70.3689 99.7817 70.3689 97.6604C70.3689 95.5391 68.9053 93.4802 65.7918 93.4802H63.7694V101.841Z" fill="#194350"/>
<path d="M77.5553 98.6319V98.4536C77.5973 98.2101 77.5805 97.9601 77.5062 97.7245C77.4319 97.4889 77.3023 97.2748 77.1284 97.1C76.9545 96.9253 76.7414 96.7951 76.5069 96.7204C76.2725 96.6458 76.0236 96.6288 75.7813 96.671C75.0155 96.6625 74.2757 96.9497 73.7145 97.4732L73.1379 96.7869C73.5249 96.4403 73.9769 96.175 74.4674 96.0066C74.958 95.8382 75.4771 95.7702 75.9942 95.8065C76.3198 95.7764 76.6481 95.8173 76.9565 95.9265C77.265 96.0356 77.5463 96.2104 77.7813 96.439C78.0163 96.6675 78.1994 96.9443 78.3181 97.2505C78.4368 97.5566 78.4882 97.885 78.469 98.213V101.252C78.4751 101.762 78.5136 102.271 78.5843 102.776H77.6973C77.6362 102.411 77.6065 102.042 77.6086 101.671C77.3708 102.088 77.0206 102.429 76.5985 102.654C76.1763 102.88 75.6993 102.981 75.2225 102.946C74.938 102.979 74.6498 102.953 74.3758 102.87C74.1018 102.786 73.8479 102.647 73.6298 102.46C73.4118 102.274 73.2343 102.044 73.1085 101.786C72.9826 101.527 72.9111 101.246 72.8984 100.958C72.8984 98.7478 75.4797 98.6052 77.103 98.6052L77.5553 98.6319ZM77.0675 99.4162C76.1006 99.4162 73.9185 99.4876 73.9185 100.851C73.9185 101.743 74.7435 102.099 75.5063 102.099C75.7905 102.112 76.0741 102.064 76.3377 101.956C76.6014 101.849 76.8387 101.685 77.0334 101.477C77.2282 101.269 77.3756 101.02 77.4657 100.749C77.5558 100.478 77.5864 100.191 77.5553 99.9065V99.4162H77.0675Z" fill="#194350"/>
<path d="M84.2165 96.8763H82.265V100.887C82.265 101.903 82.6553 102.099 83.2496 102.099C83.5937 102.094 83.9314 102.005 84.2342 101.841V102.732C83.8275 102.905 83.3894 102.99 82.948 102.982C82.2295 102.982 81.2804 102.661 81.2804 101.199V96.9209H79.8789V96.0296H81.3159V94.1133H82.265V96.0296H84.2165V96.8763Z" fill="#194350"/>
<path d="M89.8486 98.632V98.4537C89.8906 98.2102 89.8738 97.9602 89.7995 97.7246C89.7252 97.489 89.5956 97.2748 89.4217 97.1001C89.2478 96.9254 89.0347 96.7952 88.8002 96.7205C88.5658 96.6459 88.3169 96.6289 88.0746 96.6711C87.3117 96.664 86.5752 96.9511 86.0167 97.4733L85.4312 96.787C85.82 96.4405 86.2737 96.1754 86.7656 96.0071C87.2575 95.8387 87.7779 95.7706 88.2963 95.8066C88.6216 95.7763 88.9495 95.8172 89.2576 95.9264C89.5656 96.0356 89.8464 96.2106 90.0808 96.4393C90.3151 96.668 90.4973 96.9449 90.615 97.2511C90.7326 97.5573 90.7829 97.8855 90.7623 98.2131V101.252C90.7684 101.762 90.8069 102.271 90.8776 102.777H89.9906C89.9339 102.411 89.9042 102.041 89.9019 101.671C89.6649 102.089 89.3149 102.43 88.8925 102.656C88.4701 102.881 87.9927 102.982 87.5158 102.946C87.2307 102.984 86.9409 102.963 86.6644 102.884C86.3879 102.804 86.1307 102.668 85.9091 102.484C85.6875 102.3 85.5062 102.072 85.3766 101.814C85.2471 101.556 85.172 101.274 85.1562 100.985C85.1563 98.7746 87.7464 98.632 89.3608 98.632H89.8486ZM89.3608 99.4163C88.385 99.4163 86.2029 99.4876 86.2029 100.851C86.2029 101.743 87.0279 102.099 87.7996 102.099C88.0838 102.112 88.3674 102.064 88.631 101.956C88.8947 101.849 89.132 101.685 89.3267 101.477C89.5214 101.269 89.6689 101.02 89.759 100.749C89.8491 100.478 89.8797 100.191 89.8486 99.9066V99.4163H89.3608Z" fill="#194350"/>
<path d="M24.7578 109.934H28.1551C30.7098 109.934 33.5305 111.645 33.5305 115.076C33.5305 118.508 30.7098 120.21 28.1551 120.21H24.7578V109.934ZM25.7956 119.257H27.8269C30.9404 119.257 32.404 117.189 32.404 115.076C32.404 112.964 30.9404 110.887 27.8269 110.887H25.7956V119.257Z" fill="#194350"/>
<path d="M35.9518 111.502C35.8124 111.504 35.6757 111.464 35.5591 111.387C35.4425 111.31 35.3514 111.2 35.2972 111.071C35.2431 110.942 35.2285 110.8 35.2552 110.663C35.282 110.525 35.3489 110.399 35.4474 110.3C35.546 110.201 35.6716 110.134 35.8084 110.107C35.9451 110.08 36.0868 110.095 36.2152 110.149C36.3436 110.203 36.4529 110.295 36.5292 110.412C36.6056 110.529 36.6454 110.667 36.6436 110.807C36.6413 110.99 36.5677 111.166 36.4384 111.296C36.3092 111.426 36.1345 111.5 35.9518 111.502ZM36.4308 120.21H35.4816V113.418H36.4396L36.4308 120.21Z" fill="#194350"/>
<path d="M43.0568 116.047V115.869C43.0989 115.629 43.0837 115.383 43.0124 115.151C42.9411 114.918 42.8158 114.706 42.6468 114.532C42.4778 114.358 42.27 114.227 42.0405 114.149C41.811 114.072 41.5665 114.05 41.3271 114.086C40.5613 114.078 39.8216 114.365 39.2603 114.889L38.6838 114.202C39.0688 113.852 39.5204 113.584 40.0112 113.414C40.5021 113.244 41.0221 113.176 41.54 113.213C41.8664 113.183 42.1955 113.224 42.5046 113.334C42.8137 113.443 43.0955 113.619 43.3307 113.848C43.5658 114.078 43.7487 114.356 43.8668 114.663C43.9849 114.97 44.0354 115.3 44.0148 115.628V118.659C44.0161 119.169 44.0546 119.678 44.1301 120.183H43.2431C43.1887 119.817 43.1621 119.448 43.1632 119.078C42.9289 119.496 42.581 119.839 42.1601 120.066C41.7392 120.294 41.2626 120.396 40.786 120.361C40.5009 120.396 40.2118 120.371 39.9367 120.288C39.6616 120.205 39.4066 120.066 39.1875 119.879C38.9685 119.693 38.7902 119.463 38.6638 119.204C38.5374 118.944 38.4657 118.662 38.4531 118.374C38.4531 116.163 41.0433 116.021 42.6576 116.021L43.0568 116.047ZM42.5689 116.832C41.6021 116.832 39.42 116.903 39.42 118.267C39.42 119.158 40.2449 119.514 41.0078 119.514C41.2915 119.526 41.5745 119.477 41.8374 119.369C42.1003 119.261 42.337 119.097 42.5314 118.889C42.7258 118.681 42.8734 118.433 42.964 118.163C43.0547 117.893 43.0863 117.606 43.0568 117.322V116.832H42.5689Z" fill="#194350"/>
<path d="M46.7368 121.574C47.042 121.97 47.4351 122.29 47.8848 122.506C48.3345 122.723 48.8283 122.831 49.3269 122.822C49.6874 122.868 50.0537 122.831 50.3977 122.713C50.7416 122.596 51.0541 122.4 51.3111 122.142C51.5681 121.884 51.7628 121.57 51.8801 121.224C51.9975 120.878 52.0344 120.51 51.988 120.148V118.927C51.7087 119.337 51.3301 119.67 50.8879 119.892C50.4457 120.115 49.9543 120.222 49.46 120.201C48.9988 120.217 48.5392 120.139 48.1088 119.972C47.6783 119.805 47.2857 119.553 46.9545 119.23C46.6233 118.907 46.3603 118.521 46.1811 118.093C46.002 117.666 45.9104 117.207 45.9118 116.743C45.8974 116.283 45.9761 115.824 46.1433 115.395C46.3104 114.966 46.5625 114.575 46.8843 114.247C47.2061 113.918 47.5908 113.659 48.0153 113.485C48.4397 113.31 48.895 113.224 49.3535 113.231C49.863 113.219 50.3678 113.331 50.8239 113.56C51.2801 113.788 51.6736 114.125 51.9703 114.542V113.41H52.9282V120.148C52.9282 121.628 52.3339 123.713 49.3003 123.713C48.6917 123.737 48.0852 123.627 47.5231 123.392C46.9609 123.156 46.4565 122.801 46.0449 122.349L46.7368 121.574ZM49.3979 119.337C50.0872 119.337 50.7482 119.062 51.2356 118.572C51.723 118.082 51.9969 117.418 51.9969 116.725C51.9969 116.033 51.723 115.368 51.2356 114.879C50.7482 114.389 50.0872 114.114 49.3979 114.114C48.7086 114.114 48.0475 114.389 47.5601 114.879C47.0727 115.368 46.7989 116.033 46.7989 116.725C46.7989 117.418 47.0727 118.082 47.5601 118.572C48.0475 119.062 48.7086 119.337 49.3979 119.337Z" fill="#194350"/>
<path d="M55.9534 113.418C55.9902 113.78 56.005 114.143 55.9977 114.506C56.242 114.122 56.5775 113.806 56.9739 113.585C57.3703 113.364 57.8152 113.245 58.2685 113.24C59.9805 113.24 60.8054 114.212 60.8054 115.914V120.228H59.8829V116.467C59.8829 114.96 59.466 114.132 58.0467 114.132C57.8427 114.132 55.9977 114.265 55.9977 116.743V120.228H55.0397V114.934C55.0397 114.568 55.0397 113.927 54.9688 113.436L55.9534 113.418Z" fill="#194350"/>
<path d="M66.3035 120.389C65.6041 120.378 64.9234 120.16 64.347 119.762C63.7705 119.364 63.3241 118.804 63.0636 118.151C62.8032 117.499 62.7405 116.784 62.8834 116.096C63.0262 115.408 63.3683 114.778 63.8666 114.284C64.3648 113.791 64.9971 113.457 65.6839 113.323C66.3706 113.19 67.0813 113.264 67.7265 113.535C68.3718 113.807 68.9228 114.263 69.3104 114.849C69.6979 115.434 69.9047 116.121 69.9048 116.824C69.9174 117.3 69.8324 117.773 69.6552 118.215C69.4779 118.657 69.2122 119.058 68.8745 119.392C68.5368 119.726 68.1343 119.987 67.6921 120.159C67.2498 120.33 66.7772 120.409 66.3035 120.389ZM66.3035 114.15C65.7735 114.13 65.2497 114.27 64.7994 114.552C64.3492 114.834 63.993 115.244 63.7765 115.731C63.5601 116.217 63.4932 116.758 63.5846 117.283C63.676 117.808 63.9215 118.293 64.2894 118.677C64.6574 119.061 65.1311 119.325 65.6498 119.437C66.1685 119.548 66.7085 119.501 67.2004 119.302C67.6924 119.103 68.1139 118.76 68.4109 118.319C68.7078 117.877 68.8666 117.357 68.867 116.824C68.8985 116.47 68.855 116.114 68.7395 115.778C68.624 115.443 68.4391 115.135 68.1969 114.877C67.9547 114.618 67.6607 114.414 67.3344 114.278C67.008 114.142 66.6567 114.077 66.3035 114.087V114.15Z" fill="#194350"/>
<path d="M75.2191 115.032C75.0853 114.758 74.8764 114.529 74.617 114.371C74.3577 114.213 74.0587 114.133 73.7555 114.14C73.0902 114.14 72.354 114.435 72.354 115.156C72.354 115.878 72.8064 116.048 73.6845 116.235L74.6514 116.467C75.0912 116.536 75.4937 116.756 75.7911 117.088C76.0884 117.421 76.2623 117.847 76.2835 118.294C76.2835 119.773 74.9707 120.388 73.6224 120.388C73.1119 120.412 72.604 120.302 72.1485 120.069C71.6929 119.836 71.3053 119.489 71.0234 119.06L71.8484 118.499C72.0305 118.809 72.29 119.065 72.6011 119.244C72.9123 119.422 73.2643 119.515 73.6224 119.515C74.403 119.515 75.2191 119.167 75.2191 118.383C75.2191 117.599 74.6336 117.492 73.9329 117.296L73.0015 117.073C72.5403 116.957 71.2718 116.583 71.2718 115.29C71.2718 113.998 72.4959 113.24 73.7732 113.24C74.226 113.203 74.6798 113.299 75.0797 113.516C75.4796 113.732 75.8083 114.061 76.0263 114.461L75.2191 115.032Z" fill="#194350"/>
<path d="M81.2779 114.292H79.3353V118.294C79.3353 119.31 79.7256 119.515 80.3111 119.515C80.6553 119.511 80.9933 119.422 81.2957 119.256V120.148C80.8889 120.32 80.4508 120.405 80.0095 120.397C79.7766 120.414 79.543 120.378 79.3255 120.293C79.108 120.207 78.9121 120.075 78.7517 119.904C78.5914 119.734 78.4707 119.53 78.3983 119.307C78.3259 119.084 78.3036 118.847 78.333 118.615V114.336H76.9492V113.445H78.3773V111.502H79.3353V113.418H81.2779V114.292Z" fill="#194350"/>
<path d="M83.2721 111.502C83.1327 111.504 82.996 111.464 82.8794 111.387C82.7629 111.31 82.6717 111.2 82.6175 111.071C82.5634 110.942 82.5488 110.8 82.5755 110.663C82.6023 110.525 82.6692 110.399 82.7677 110.3C82.8663 110.201 82.9919 110.134 83.1287 110.107C83.2655 110.08 83.4071 110.095 83.5355 110.149C83.6639 110.203 83.7732 110.295 83.8496 110.412C83.9259 110.529 83.9657 110.667 83.9639 110.807C83.9616 110.99 83.888 111.166 83.7588 111.296C83.6295 111.426 83.4548 111.5 83.2721 111.502ZM83.7511 120.21H82.7931V113.418H83.7511V120.21Z" fill="#194350"/>
<path d="M90.9728 114.978C90.7844 114.702 90.5314 114.476 90.2361 114.321C89.9407 114.165 89.612 114.085 89.2786 114.087C88.5658 114.087 87.8821 114.372 87.3781 114.878C86.8741 115.384 86.5909 116.071 86.5909 116.788C86.5909 117.504 86.8741 118.191 87.3781 118.697C87.8821 119.204 88.5658 119.488 89.2786 119.488C89.612 119.49 89.9407 119.41 90.2361 119.254C90.5314 119.099 90.7844 118.873 90.9728 118.597L91.7534 119.194C91.4491 119.557 91.0706 119.85 90.6435 120.053C90.2165 120.256 89.751 120.365 89.2786 120.371C88.3376 120.371 87.4351 119.995 86.7697 119.326C86.1043 118.658 85.7305 117.751 85.7305 116.805C85.7305 115.86 86.1043 114.953 86.7697 114.284C87.4351 113.616 88.3376 113.24 89.2786 113.24C89.751 113.246 90.2165 113.355 90.6435 113.558C91.0706 113.761 91.4491 114.054 91.7534 114.417L90.9728 114.978Z" fill="#194350"/>
<path d="M96.5881 115.032C96.4567 114.759 96.2495 114.529 95.9915 114.371C95.7334 114.213 95.4355 114.133 95.1333 114.141C94.4681 114.141 93.7318 114.435 93.7318 115.157C93.7318 115.879 94.1753 116.048 95.0535 116.236L96.0292 116.467C96.475 116.536 96.8829 116.758 97.1826 117.097C97.4822 117.435 97.6547 117.868 97.6702 118.321C97.6702 119.801 96.3574 120.416 95.0092 120.416C94.4982 120.442 93.9894 120.333 93.5334 120.1C93.0774 119.867 92.6901 119.518 92.4102 119.088L93.2262 118.526C93.409 118.835 93.6687 119.092 93.9796 119.27C94.2906 119.448 94.6423 119.542 95.0003 119.542C95.7809 119.542 96.5881 119.195 96.5881 118.41C96.5881 117.626 96.0115 117.519 95.3019 117.323L94.4148 117.1C93.9536 116.984 92.6408 116.61 92.6408 115.318C92.6408 114.025 93.8738 113.268 95.1422 113.268C95.595 113.231 96.0488 113.326 96.4487 113.543C96.8485 113.76 97.1773 114.088 97.3953 114.489L96.5881 115.032Z" fill="#194350"/>
<path d="M52.3343 53.3262H49.6289V57.6668H52.3343V53.3262Z" fill="url(#paint0_linear_223_24238)"/>
<path d="M56.7328 51.3926H54.0273V57.6585H56.7328V51.3926Z" fill="url(#paint1_linear_223_24238)"/>
<path d="M61.1351 45.7861H58.4297V57.6583H61.1351V45.7861Z" fill="url(#paint2_linear_223_24238)"/>
<path d="M65.5336 48.0586H62.8281V57.6669H65.5336V48.0586Z" fill="url(#paint3_linear_223_24238)"/>
<path d="M69.932 50.0732H67.2266V57.6582H69.932V50.0732Z" fill="url(#paint4_linear_223_24238)"/>
<path d="M71.2626 60.822C70.5569 60.822 69.88 61.1038 69.381 61.6052C68.8819 62.1067 68.6015 62.7868 68.6015 63.4959C68.6026 63.8258 68.6658 64.1524 68.7878 64.4586L65.1954 67.6049C64.736 67.3402 64.2074 67.2224 63.6797 67.2669C63.1521 67.3115 62.6505 67.5164 62.2416 67.8544L56.2364 64.0575C56.2755 63.8668 56.2963 63.6728 56.2985 63.4781C56.2985 62.769 56.0181 62.0888 55.519 61.5874C55.02 61.0859 54.3431 60.8042 53.6374 60.8042C52.9316 60.8042 52.2547 61.0859 51.7557 61.5874C51.2566 62.0888 50.9763 62.769 50.9763 63.4781C51.0024 63.9735 51.1652 64.4519 51.4464 64.8596L49.2998 67.4355C48.7696 67.2278 48.1871 67.1963 47.6377 67.3457C47.0884 67.495 46.6012 67.8175 46.2477 68.2656C45.8941 68.7137 45.6929 69.2639 45.6734 69.8354C45.654 70.4069 45.8174 70.9696 46.1397 71.4409C46.4619 71.9122 46.9261 72.2673 47.464 72.454C48.0019 72.6408 48.5852 72.6493 49.1282 72.4784C49.6713 72.3075 50.1456 71.9662 50.4814 71.5045C50.8172 71.0429 50.9969 70.4852 50.994 69.9133C50.9613 69.4551 50.8116 69.0131 50.5594 68.6299L52.7681 65.9559C53.0523 66.0618 53.3521 66.119 53.6551 66.1253C54.2493 66.1178 54.8238 65.9107 55.2872 65.537L61.3102 69.3429C61.2745 69.5249 61.2566 69.71 61.2569 69.8955C61.2569 70.6047 61.5373 71.2848 62.0364 71.7863C62.5354 72.2877 63.2123 72.5694 63.918 72.5694C64.6238 72.5694 65.3007 72.2877 65.7997 71.7863C66.2988 71.2848 66.5791 70.6047 66.5791 69.8955C66.5777 69.5628 66.5145 69.2334 66.3928 68.924L69.9942 65.7599C70.3901 65.9918 70.8398 66.1147 71.2981 66.1164C72.0039 66.1164 72.6807 65.8347 73.1798 65.3332C73.6788 64.8318 73.9592 64.1516 73.9592 63.4425C73.9592 62.7333 73.6788 62.0532 73.1798 61.5517C72.6807 61.0503 72.0039 60.7686 71.2981 60.7686L71.2626 60.822Z" fill="url(#paint5_linear_223_24238)"/>
<path fill-rule="evenodd" clip-rule="evenodd" d="M290.058 76.0109C289.925 72.4222 288.981 68.9111 287.297 65.7433C285.614 62.5755 283.235 59.8341 280.341 57.7267C277.447 55.6193 274.114 54.201 270.594 53.5793C267.074 52.9576 263.459 53.1488 260.024 54.1383C246.239 33.3709 214.005 41.9542 212.905 67.1514C187.003 74.3531 191.962 113.669 219.238 113.669H283.716C305.466 113.669 310.15 82.6601 290.058 76.0109Z" fill="#FF5722"/>
<path d="M225.305 86.5279H224.516V78.7646H225.305V86.5279Z" fill="white"/>
<path d="M232.986 85.3425V78.7646H233.766V86.5279H232.791L228.187 79.8877V86.5279H227.406V78.7646H228.382L232.986 85.3425Z" fill="white"/>
<path d="M238.363 86.5279H237.582V79.4955H234.992V78.7646H240.953V79.4955H238.363V86.5279Z" fill="white"/>
<path d="M242.941 85.8059H247.074V86.5279H242.16V78.7646H246.95V79.4955H242.95V82.1694H246.684V82.8914H242.95L242.941 85.8059Z" fill="white"/>
<path d="M249.407 86.5279H248.617V78.7646H251.03C252.6 78.7646 253.576 79.4509 253.576 80.8414C253.587 81.1113 253.542 81.3806 253.445 81.6326C253.349 81.8845 253.201 82.1138 253.012 82.306C252.823 82.4983 252.597 82.6495 252.348 82.7502C252.098 82.8509 251.831 82.8989 251.562 82.8914L253.789 86.5725H252.804L250.684 83.0073H249.38L249.407 86.5279ZM249.407 82.1962H250.799C252.21 82.1962 252.689 81.5812 252.689 80.8414C252.689 80.1016 252.21 79.4955 250.799 79.4955H249.407V82.1962Z" fill="white"/>
<path d="M260.67 85.3425V78.7646H261.46V86.5279H260.475L255.871 79.8877V86.5279H255.082V78.7646H256.067L260.67 85.3425Z" fill="white"/>
<path d="M264.335 85.8059H268.478V86.5279H263.555V78.7646H268.345V79.4955H264.335V82.1694H268.079V82.8914H264.335V85.8059Z" fill="white"/>
<path d="M272.511 86.5279H271.731V79.4955H269.141V78.7646H275.101V79.4955H272.511V86.5279Z" fill="white"/>
<path fill-rule="evenodd" clip-rule="evenodd" d="M424.002 1.72062V30.688C424.002 31.0379 423.864 31.3734 423.617 31.6208C423.371 31.8682 423.037 32.0071 422.689 32.0071H418.972V8.02214C418.97 7.33816 418.698 6.683 418.216 6.20018C417.734 5.71737 417.081 5.44627 416.4 5.44627H392.548V1.72062C392.55 1.37453 392.687 1.04299 392.929 0.796604C393.17 0.550217 393.499 0.408449 393.843 0.401488H422.671C422.845 0.399126 423.018 0.431503 423.179 0.496738C423.341 0.561972 423.487 0.658764 423.611 0.781493C423.735 0.904221 423.833 1.05044 423.9 1.21166C423.967 1.37287 424.002 1.54588 424.002 1.72062ZM417.713 8.02213V37.0163C417.71 37.3646 417.571 37.6978 417.325 37.9433C417.079 38.1887 416.747 38.3265 416.4 38.3265H412.675V14.3682C412.672 13.6842 412.4 13.0291 411.918 12.5463C411.436 12.0634 410.783 11.7923 410.102 11.7923H386.259V8.02213C386.259 7.67464 386.396 7.34138 386.641 7.09567C386.885 6.84995 387.217 6.71191 387.563 6.71191H416.4C416.747 6.71191 417.079 6.84966 417.325 7.09512C417.571 7.34058 417.71 7.67382 417.713 8.02213ZM381.274 13.0578H410.102C410.827 13.0578 411.415 13.6484 411.415 14.377V43.3444C411.415 44.0729 410.827 44.6635 410.102 44.6635H381.274C380.549 44.6635 379.961 44.0729 379.961 43.3444V14.377C379.961 13.6484 380.549 13.0578 381.274 13.0578Z" fill="url(#paint6_linear_223_24238)"/>
<path fill-rule="evenodd" clip-rule="evenodd" d="M424.002 61.1884V90.1647C424.002 90.3375 423.968 90.5086 423.902 90.6682C423.836 90.8277 423.739 90.9725 423.617 91.0943C423.495 91.2161 423.35 91.3124 423.191 91.3778C423.032 91.4431 422.861 91.4761 422.689 91.4749H418.972V67.5167C418.972 67.1772 418.906 66.8411 418.777 66.5275C418.647 66.2139 418.458 65.929 418.219 65.6889C417.98 65.4489 417.697 65.2585 417.384 65.1286C417.072 64.9987 416.738 64.9319 416.4 64.9319H392.548V61.1884C392.55 60.8423 392.687 60.5108 392.929 60.2644C393.17 60.018 393.499 59.8762 393.843 59.8693H422.671C422.845 59.8669 423.018 59.8993 423.179 59.9645C423.341 60.0297 423.487 60.1265 423.611 60.2493C423.735 60.372 423.833 60.5182 423.9 60.6794C423.967 60.8407 424.002 61.0137 424.002 61.1884ZM417.713 67.5166V96.484C417.713 96.8339 417.575 97.1694 417.328 97.4168C417.082 97.6642 416.748 97.8032 416.4 97.8032H412.675V73.836C412.672 73.152 412.4 72.4968 411.918 72.014C411.436 71.5312 410.783 71.2601 410.102 71.2601H386.259V67.5166C386.258 67.3438 386.291 67.1725 386.356 67.0125C386.421 66.8525 386.516 66.707 386.638 66.5844C386.759 66.4618 386.903 66.3645 387.062 66.2981C387.22 66.2317 387.391 66.1975 387.563 66.1975H416.4C416.748 66.1975 417.082 66.3365 417.328 66.5839C417.575 66.8313 417.713 67.1668 417.713 67.5166ZM381.274 72.5258H410.102C410.827 72.5258 411.415 73.1164 411.415 73.845V102.812C411.415 103.541 410.827 104.131 410.102 104.131H381.274C380.549 104.131 379.961 103.541 379.961 102.812V73.845C379.961 73.1164 380.549 72.5258 381.274 72.5258Z" fill="url(#paint7_linear_223_24238)"/>
<path fill-rule="evenodd" clip-rule="evenodd" d="M424.002 120.656V149.632C424.002 149.805 423.968 149.976 423.902 150.136C423.836 150.295 423.739 150.44 423.617 150.562C423.495 150.684 423.35 150.78 423.191 150.845C423.032 150.911 422.861 150.944 422.689 150.943H418.972V126.984C418.972 126.299 418.701 125.641 418.219 125.157C417.737 124.672 417.082 124.4 416.4 124.4H392.548V120.656C392.55 120.307 392.689 119.973 392.935 119.726C393.181 119.479 393.513 119.339 393.861 119.337H422.689C423.037 119.337 423.371 119.476 423.617 119.723C423.864 119.971 424.002 120.306 424.002 120.656ZM417.713 126.984V155.979C417.711 156.327 417.571 156.66 417.325 156.906C417.079 157.151 416.747 157.289 416.4 157.289H412.675V133.313C412.675 132.627 412.404 131.97 411.921 131.485C411.439 131 410.784 130.728 410.102 130.728H386.259V126.984C386.258 126.812 386.291 126.64 386.356 126.48C386.421 126.32 386.516 126.175 386.638 126.052C386.759 125.93 386.903 125.832 387.062 125.766C387.22 125.699 387.391 125.665 387.563 125.665H416.4C416.748 125.665 417.082 125.804 417.328 126.052C417.575 126.299 417.713 126.635 417.713 126.984ZM381.274 131.994H410.102C410.827 131.994 411.415 132.584 411.415 133.313V162.28C411.415 163.009 410.827 163.599 410.102 163.599H381.274C380.549 163.599 379.961 163.009 379.961 162.28V133.313C379.961 132.584 380.549 131.994 381.274 131.994Z" fill="url(#paint8_linear_223_24238)"/>
</g>
<defs>
<linearGradient id="paint0_linear_223_24238" x1="52.3477" y1="53.9984" x2="49.623" y2="54.4495" gradientUnits="userSpaceOnUse">
<stop stop-color="#14AAFE"/>
<stop offset="1" stop-color="#51A7E8"/>
</linearGradient>
<linearGradient id="paint1_linear_223_24238" x1="56.7461" y1="52.363" x2="53.9831" y2="52.6799" gradientUnits="userSpaceOnUse">
<stop stop-color="#14AAFE"/>
<stop offset="1" stop-color="#51A7E8"/>
</linearGradient>
<linearGradient id="paint2_linear_223_24238" x1="61.1484" y1="47.6248" x2="58.3593" y2="47.7937" gradientUnits="userSpaceOnUse">
<stop stop-color="#14AAFE"/>
<stop offset="1" stop-color="#51A7E8"/>
</linearGradient>
<linearGradient id="paint3_linear_223_24238" x1="65.5469" y1="49.5467" x2="62.7631" y2="49.7549" gradientUnits="userSpaceOnUse">
<stop stop-color="#14AAFE"/>
<stop offset="1" stop-color="#51A7E8"/>
</linearGradient>
<linearGradient id="paint4_linear_223_24238" x1="69.9453" y1="51.248" x2="67.1709" y2="51.5108" gradientUnits="userSpaceOnUse">
<stop stop-color="#14AAFE"/>
<stop offset="1" stop-color="#51A7E8"/>
</linearGradient>
<linearGradient id="paint5_linear_223_24238" x1="74.0986" y1="62.6011" x2="53.2409" y2="75.8466" gradientUnits="userSpaceOnUse">
<stop stop-color="#14AAFE"/>
<stop offset="1" stop-color="#51A7E8"/>
</linearGradient>
<linearGradient id="paint6_linear_223_24238" x1="379.853" y1="0.277377" x2="417.83" y2="2.94987" gradientUnits="userSpaceOnUse">
<stop stop-color="#3FAC6C"/>
<stop offset="0.932292" stop-color="#5CC788"/>
</linearGradient>
<linearGradient id="paint7_linear_223_24238" x1="379.853" y1="59.7452" x2="417.83" y2="62.4176" gradientUnits="userSpaceOnUse">
<stop stop-color="#3FAC6C"/>
<stop offset="0.932292" stop-color="#5CC788"/>
</linearGradient>
<linearGradient id="paint8_linear_223_24238" x1="379.853" y1="119.213" x2="417.83" y2="121.885" gradientUnits="userSpaceOnUse">
<stop stop-color="#3FAC6C"/>
<stop offset="0.932292" stop-color="#5CC788"/>
</linearGradient>
<clipPath id="clip0_223_24238">
<rect width="424" height="164" fill="white"/>
</clipPath>
</defs>
</svg>
