<svg width="25" height="25" viewBox="0 0 25 25" fill="none" xmlns="http://www.w3.org/2000/svg">
<path d="M12.9843 0.78064C6.352 0.78064 0.977539 6.15511 0.977539 12.7874C0.977539 19.4198 6.352 24.7943 12.9843 24.7943C19.6166 24.7943 24.9911 19.4198 24.9911 12.7874C24.9911 6.15511 19.6166 0.78064 12.9843 0.78064ZM15.6144 10.7291L15.5 12.5016H13.6704V18.7337H11.3262V12.5587H10.0684V10.7863H11.3262V9.58563C11.3262 9.07105 11.3262 8.21342 11.7265 7.69885C12.1267 7.18427 12.6984 6.78404 13.6704 6.78404C15.2141 6.78404 15.9002 7.01274 15.9002 7.01274L15.6144 8.84235C15.6144 8.84235 15.0998 8.67083 14.6424 8.67083C14.185 8.67083 13.7276 8.84235 13.7276 9.29975V10.7291H15.6144Z" fill="#363636"/>
</svg>
