<svg width="25" height="25" viewBox="0 0 25 25" fill="none" xmlns="http://www.w3.org/2000/svg">
<path d="M12.8212 0.78064C6.18891 0.78064 0.814453 6.15511 0.814453 12.7874C0.814453 19.4198 6.18891 24.7942 12.8212 24.7942C19.4535 24.7942 24.828 19.4198 24.828 12.7874C24.828 6.15511 19.4535 0.78064 12.8212 0.78064ZM17.6239 10.9006C17.6239 11.015 17.6239 11.1293 17.6239 11.2437C17.6239 14.5027 15.1654 18.2762 10.5914 18.2762C9.2192 18.2762 7.90417 17.876 6.81784 17.1899C6.98937 17.1899 7.21807 17.2471 7.38959 17.2471C8.53309 17.2471 9.61942 16.8469 10.477 16.2179C9.39072 16.2179 8.47592 15.4747 8.19004 14.5027C8.36157 14.5599 8.47592 14.5599 8.64744 14.5599C8.87615 14.5599 9.10485 14.5027 9.27637 14.4455C8.13287 14.2168 7.27524 13.2448 7.27524 12.0442V11.987C7.61829 12.1585 7.96134 12.2729 8.41874 12.2729C7.73264 11.8155 7.33242 11.0722 7.33242 10.2145C7.33242 9.75714 7.44677 9.35692 7.67547 8.95669C8.87614 10.4432 10.7057 11.4152 12.7641 11.5296C12.7069 11.358 12.7069 11.1865 12.7069 10.9578C12.7069 9.58562 13.7932 8.49929 15.1654 8.49929C15.8515 8.49929 16.5376 8.78517 16.995 9.29974C17.5668 9.18539 18.0813 8.95669 18.5387 8.72799C18.3672 9.29974 17.967 9.81432 17.4524 10.1002C17.967 10.043 18.4244 9.92867 18.8818 9.69997C18.5387 10.1574 18.0813 10.5576 17.6239 10.9006Z" fill="#363636"/>
</svg>
