<svg width="25" height="25" viewBox="0 0 25 25" fill="none" xmlns="http://www.w3.org/2000/svg">
<ellipse cx="12.3359" cy="12.4377" rx="12.0068" ry="12.0068" fill="#363636"/>
<path d="M18.134 10.178L18.1492 10.2716C18.0021 9.7802 17.6047 9.40098 17.0998 9.26296L17.0892 9.26057C16.1397 9.01795 12.3192 9.01795 12.3192 9.01795C12.3192 9.01795 8.50826 9.01317 7.54919 9.26057C7.03464 9.40098 6.6368 9.7802 6.49218 10.2616L6.48965 10.2716C6.13494 12.0154 6.1324 14.1106 6.50538 15.9775L6.48965 15.8829C6.6368 16.3744 7.03413 16.7536 7.53904 16.8916L7.5497 16.894C8.49811 17.1371 12.3197 17.1371 12.3197 17.1371C12.3197 17.1371 16.1301 17.1371 17.0897 16.894C17.6047 16.7536 18.0026 16.3744 18.1472 15.893L18.1497 15.8829C18.3111 15.072 18.4034 14.1388 18.4034 13.1855C18.4034 13.1506 18.4034 13.1153 18.4029 13.0799C18.4034 13.0474 18.4034 13.0088 18.4034 12.9701C18.4034 12.0163 18.3111 11.0831 18.134 10.178ZM11.1003 14.8212V11.3381L14.2799 13.0823L11.1003 14.8212Z" fill="white"/>
</svg>
