<svg width="334" height="309" viewBox="0 0 334 309" fill="none" xmlns="http://www.w3.org/2000/svg">
<circle cx="155.5" cy="153.5" r="142.5" fill="url(#paint0_radial_223_31079)"/>
<g opacity="0.2">
<path d="M330.4 96.8283H325.198C324.738 96.8359 324.28 96.7519 323.853 96.5811C323.425 96.4103 323.036 96.1562 322.708 95.8335C322.38 95.5107 322.119 95.1259 321.941 94.7015C321.763 94.277 321.672 93.8214 321.672 93.3612V88.1606C321.672 87.2257 322.043 86.3292 322.705 85.6681C323.366 85.0071 324.263 84.6357 325.198 84.6357H330.4C330.86 84.6357 331.316 84.7272 331.741 84.9051C332.165 85.0829 332.55 85.3435 332.873 85.6716C333.196 85.9997 333.45 86.3887 333.621 86.8161C333.792 87.2434 333.876 87.7005 333.868 88.1606V93.3612C333.868 94.2807 333.503 95.1626 332.852 95.8128C332.202 96.463 331.32 96.8283 330.4 96.8283ZM325.198 87.525C325.029 87.525 324.867 87.5919 324.748 87.7111C324.629 87.8303 324.562 87.992 324.562 88.1606V93.3612C324.576 93.5196 324.65 93.6668 324.768 93.7738C324.885 93.8807 325.039 93.9397 325.198 93.9391H330.4C330.549 93.926 330.689 93.861 330.794 93.7553C330.9 93.6496 330.965 93.5101 330.978 93.3612V88.1606C330.979 88.0016 330.92 87.8481 330.813 87.7304C330.706 87.6127 330.559 87.5394 330.4 87.525H325.198Z" fill="url(#paint1_linear_223_31079)"/>
<path d="M154.509 288.326C143.96 288.334 133.446 287.112 123.18 284.686L123.873 281.854C151.49 288.44 180.499 285.902 206.551 274.62C232.604 263.337 254.298 243.919 268.381 219.273L270.924 220.718C259.191 241.234 242.247 258.29 221.805 270.162C201.364 282.033 178.149 288.299 154.509 288.326Z" fill="url(#paint2_linear_223_31079)"/>
<path d="M277.456 208.063L274.797 206.907C278.635 198.005 281.466 188.702 283.236 179.171L286.068 179.691C284.248 189.436 281.36 198.95 277.456 208.063Z" fill="url(#paint3_linear_223_31079)"/>
<path d="M287.802 167.267L284.912 166.978C285.317 162.876 285.49 158.657 285.49 154.497C285.537 134.746 281.089 115.243 272.484 97.4636L275.086 96.1924C283.89 114.365 288.437 134.305 288.38 154.497C288.38 158.773 288.207 163.049 287.802 167.267Z" fill="url(#paint4_linear_223_31079)"/>
<path d="M25.0297 188.705C22.1169 177.535 20.6407 166.04 20.6367 154.497C20.6476 130.568 27.0734 107.079 39.2454 86.4749C51.4174 65.8708 68.8907 48.9042 89.847 37.341C110.803 25.7777 134.477 20.0403 158.403 20.7259C182.33 21.4114 205.636 28.4949 225.895 41.2391L224.392 43.7238C202.12 29.6859 176.134 22.6808 149.822 23.6213C123.509 24.5619 98.0903 33.4046 76.878 48.9969C55.6657 64.5892 39.6438 86.2079 30.9007 111.035C22.1576 135.863 21.0987 162.747 27.8621 188.185L25.0297 188.705Z" fill="url(#paint5_linear_223_31079)"/>
<path d="M75.665 262.669C54.3628 247.199 38.0969 225.793 28.9023 201.129L31.6191 200.146C40.6069 224.274 56.5105 245.218 77.3413 260.358L75.665 262.669Z" fill="url(#paint6_linear_223_31079)"/>
<path d="M71.0989 80.9373L68.9023 79.0305C74.3635 72.8699 80.4675 67.3103 87.1103 62.4463L88.8444 64.8155C82.3684 69.5382 76.419 74.9432 71.0989 80.9373Z" fill="url(#paint7_linear_223_31079)"/>
<path d="M43.1785 154.497H40.4617C40.3648 128.896 48.9651 104.02 64.8546 83.9424L67.1089 85.7337C51.5734 105.285 43.1363 129.528 43.1785 154.497Z" fill="url(#paint8_linear_223_31079)"/>
<path d="M154.508 268.737V265.848C175.758 265.947 196.587 259.929 214.507 248.513L216.068 250.997C197.661 262.661 176.301 268.816 154.508 268.737Z" fill="url(#paint9_linear_223_31079)"/>
<path d="M225.839 243.716L224.047 241.463C228.148 238.281 232.012 234.805 235.607 231.062L237.746 233.084C234.035 236.906 230.056 240.46 225.839 243.716Z" fill="url(#paint10_linear_223_31079)"/>
<path d="M268.784 154.497H265.894C265.848 124.985 254.096 96.6946 233.216 75.8314C212.335 54.9682 184.03 43.2347 154.508 43.2042V40.4883C184.766 40.5187 213.781 52.5328 235.198 73.9004C256.616 95.268 268.693 124.248 268.784 154.497Z" fill="url(#paint11_linear_223_31079)"/>
<path d="M33.9879 62.5041L31.6758 60.7705C49.6963 37.1644 74.1394 19.2492 102.08 9.16895L103.063 11.8848C75.6545 21.7798 51.675 39.3525 33.9879 62.5041Z" fill="url(#paint12_linear_223_31079)"/>
<path d="M40.4625 258.914C14.3607 230.408 -0.0800792 193.142 0.000334036 154.497C0.00821316 141.877 1.54147 129.305 4.56677 117.053L7.39912 117.746C1.33253 142.065 1.38832 167.507 7.56151 191.798C13.7347 216.09 25.8329 238.474 42.7746 256.949L40.4625 258.914Z" fill="url(#paint13_linear_223_31079)"/>
<path d="M78.8436 288.962C68.1173 283.008 58.1427 275.791 49.1328 267.466L51.0981 265.386C59.8714 273.574 69.5709 280.711 79.9996 286.65L78.8436 288.962Z" fill="url(#paint14_linear_223_31079)"/>
<path d="M154.506 308.955C131.894 309.113 109.527 304.258 89.0156 294.74L90.2873 292.14C110.39 301.527 132.319 306.362 154.506 306.297V308.955Z" fill="url(#paint15_linear_223_31079)"/>
<path d="M177.978 307.221L177.516 304.332C187.661 302.815 197.619 300.239 207.226 296.646L208.267 299.362C198.467 303.013 188.317 305.646 177.978 307.221Z" fill="url(#paint16_linear_223_31079)"/>
<path d="M225.72 291.62L224.391 288.962C243.309 279.022 259.944 265.245 273.234 248.513L275.489 250.304C261.986 267.418 245.028 281.496 225.72 291.62Z" fill="url(#paint17_linear_223_31079)"/>
<path d="M309.014 154.497H306.355C306.367 147.441 305.884 140.394 304.91 133.405L307.8 133.001C308.697 140.13 309.103 147.312 309.014 154.497Z" fill="url(#paint18_linear_223_31079)"/>
<path d="M302.946 123.293C300.355 110.984 296.238 99.0461 290.691 87.7556L293.293 86.4844C298.942 97.9967 303.136 110.167 305.778 122.715L302.946 123.293Z" fill="url(#paint19_linear_223_31079)"/>
<path d="M285.835 78.7415C269.229 50.0463 243.686 27.5718 213.106 14.7487C182.525 1.92571 148.587 -0.541292 116.473 7.72435L115.605 4.95069C148.355 -3.53904 182.986 -1.06049 214.192 12.0066C245.398 25.0736 271.458 48.0084 288.379 77.2969L285.835 78.7415Z" fill="url(#paint20_linear_223_31079)"/>
</g>
<path d="M216.358 93.3613L167.225 120.347L153.7 102.26L141.387 104.051L114.22 115.608L79.1914 192.751L75.1452 198.876L69.7695 202.921L83.0642 220.718L123.122 215.922C125.739 215.039 127.953 213.248 129.363 210.873C130.773 208.499 131.286 205.698 130.81 202.979C130.366 201.834 130.173 200.607 130.243 199.381C130.312 198.155 130.644 196.958 131.214 195.871C131.522 195.149 131.89 194.453 132.312 193.791L145.549 211.473C146.069 212.04 146.759 212.425 147.515 212.571L188.15 208.064L204.046 170.966C205.689 168.746 208.073 167.187 210.766 166.572C213.459 165.958 216.284 166.327 218.728 167.614C221.618 170.273 227.745 170.157 236.069 165.419C244.508 158.196 246.3 151.377 243.699 148.083L230.346 130.228L220.173 134.793L230.057 111.679L216.705 93.8814L216.358 93.3613Z" fill="white"/>
<path d="M82.6007 222.336L82.0805 221.469L67.9766 202.747L69.0748 201.822L74.3349 197.893L77.9765 192.115L113.121 114.799H113.583L141.386 102.722L154.392 101.046L154.912 101.913L167.629 118.497L216.762 91.5117L217.629 92.4941L231.212 111.043L230.808 111.852L222.426 131.441L230.287 127.916L231.039 128.783L245.316 147.852C247.108 151.781 245.836 158.484 236.761 166.227C228.553 171.023 221.559 172.006 217.744 168.481C215.614 167.442 213.181 167.203 210.889 167.808C208.597 168.412 206.599 169.82 205.259 171.774L189.074 209.45H188.265L147.803 214.304C146.734 214.06 145.766 213.495 145.028 212.686C144.862 212.517 144.725 212.322 144.623 212.108L132.947 196.506C132.49 197.392 132.224 198.364 132.164 199.359C132.104 200.354 132.253 201.35 132.6 202.285C133.247 205.364 132.722 208.573 131.13 211.286C129.538 214 126.991 216.023 123.988 216.962H123.641L82.6007 222.336ZM72.0228 203.209L83.988 219.273L123.063 214.593C125.324 213.851 127.243 212.324 128.474 210.289C129.704 208.253 130.163 205.844 129.768 203.498C129.24 202.192 129.003 200.787 129.073 199.38C129.143 197.973 129.518 196.598 130.173 195.351C130.488 194.566 130.875 193.811 131.329 193.097L132.427 191.248L146.993 210.663L146.011 211.761L147.225 210.952C147.487 211.251 147.827 211.472 148.207 211.588L187.224 206.907L202.889 170.33C204.69 167.706 207.39 165.833 210.48 165.066C213.569 164.299 216.832 164.692 219.652 166.169C221.79 168.134 226.935 168.596 235.143 163.8C242.889 157.213 244.391 151.088 242.368 148.314V147.967L229.883 131.325L219.652 136.006L218.264 134.561L218.669 133.637L228.149 111.39L216.068 95.2677L166.878 122.195L166.011 121.386L152.947 104.051L141.733 105.496L115.259 117.052L80.5776 193.501L76.4736 200.089L72.0228 203.209Z" fill="#E5F9ED"/>
<path d="M141.791 129.419C141.247 126.411 141.585 123.31 142.764 120.491C143.944 117.671 145.915 115.253 148.439 113.528C159.421 102.491 151.676 101.104 151.676 101.104L111.56 105.9L70 202.921L109.826 198.182C112.544 197.338 114.855 195.521 116.316 193.079C117.777 190.638 118.286 187.743 117.745 184.95C116.011 181.425 117.745 175.531 124.739 169.059C138.959 159.698 147.861 165.187 143.988 174.837C142.582 177.864 140.507 180.531 137.919 182.638C126.994 193.733 134.739 195.12 134.739 195.12L174.797 190.728L190.751 153.284C192.341 151.019 194.692 149.4 197.376 148.722C200.06 148.043 202.898 148.35 205.375 149.586C208.265 152.301 214.392 152.128 222.716 147.39C235.663 136.353 232.947 126.125 222.716 127.338C219.42 127.821 216.277 129.046 213.525 130.921C199.826 138.318 200.693 130.459 200.693 130.459L216.589 93.4189L176.3 98.2728C173.671 99.1577 171.449 100.958 170.037 103.345C168.626 105.731 168.12 108.546 168.612 111.274C169.08 112.412 169.291 113.638 169.231 114.867C169.171 116.095 168.841 117.295 168.265 118.382C164.161 127.916 149.132 136.295 141.791 129.534V129.419Z" fill="url(#paint21_linear_223_31079)"/>
<path d="M69.3647 204.481L68.3242 203.094L68.671 202.285L110.52 104.571L151.676 99.6595C152.497 99.8303 153.262 100.206 153.898 100.752C154.535 101.297 155.023 101.995 155.318 102.78C156.243 105.669 154.277 109.541 149.248 114.337C147.008 115.878 145.228 117.998 144.098 120.471C142.968 122.944 142.531 125.677 142.832 128.378C144.027 129.241 145.401 129.824 146.852 130.084C148.303 130.344 149.793 130.275 151.214 129.881C154.532 129.032 157.631 127.485 160.302 125.342C162.974 123.2 165.157 120.511 166.705 117.457C167.171 116.575 167.448 115.606 167.517 114.611C167.587 113.616 167.448 112.617 167.11 111.679V111.332C166.529 108.258 167.081 105.078 168.664 102.38C170.248 99.6814 172.755 97.6477 175.722 96.6547L216.589 91.8008L217.629 93.1298L217.283 93.9388L201.56 130.748C201.541 131.036 201.595 131.324 201.716 131.587C201.837 131.849 202.022 132.077 202.254 132.25C202.947 132.712 205.317 133.348 212.254 129.592C215.163 127.618 218.484 126.333 221.965 125.836C223.843 125.384 225.818 125.564 227.584 126.347C229.35 127.131 230.808 128.474 231.733 130.17C233.352 133.984 232.08 140.571 223.641 147.967L222.832 148.372C214.913 152.995 207.861 153.804 204.104 150.51C201.98 149.465 199.551 149.218 197.26 149.811C194.969 150.405 192.967 151.801 191.618 153.746L175.433 191.421H174.566L134.104 196.217C133.289 196.069 132.528 195.708 131.898 195.17C131.269 194.632 130.793 193.937 130.52 193.155C129.595 190.266 131.561 186.394 136.301 181.598C138.776 179.615 140.755 177.083 142.081 174.202C142.815 173.106 143.153 171.792 143.037 170.478C142.922 169.164 142.36 167.929 141.445 166.978C139.133 165.072 133.468 164.783 125.029 170.214C118.266 176.686 117.226 181.771 118.497 184.372V184.718C119.085 187.793 118.528 190.977 116.931 193.669C115.334 196.362 112.807 198.378 109.827 199.338H109.538L69.3647 204.481ZM112.544 107.229L72.0814 201.187L109.827 196.506C112.084 195.764 113.998 194.235 115.218 192.197C116.439 190.16 116.885 187.751 116.474 185.412C114.451 180.962 116.994 174.664 123.411 168.423V168.134L124.22 167.73C133.815 161.431 140.751 161.951 143.988 164.725C145.375 166.074 146.27 167.847 146.532 169.763C146.794 171.68 146.407 173.628 145.433 175.299C143.874 178.637 141.582 181.58 138.728 183.909C132.948 189.688 132.948 191.884 133.41 192.693C133.535 192.947 133.713 193.172 133.932 193.352C134.152 193.531 134.408 193.661 134.682 193.733L173.641 189.11L189.248 152.763C190.967 150.079 193.628 148.133 196.708 147.31C199.789 146.487 203.066 146.845 205.895 148.314H206.184C208.265 150.279 213.468 150.683 221.56 145.945C229.19 139.473 230.52 133.926 229.306 131.152C228.092 128.378 225.895 128.147 222.543 128.552C219.468 128.986 216.539 130.134 213.988 131.903C207.63 135.313 203.352 136.179 200.867 134.446C200.181 133.965 199.638 133.309 199.292 132.547C198.946 131.785 198.811 130.944 198.901 130.112V129.707L213.814 95.0367L176.358 99.5439C174.106 100.274 172.193 101.793 170.972 103.821C169.751 105.849 169.303 108.249 169.711 110.581C170.225 111.9 170.455 113.313 170.385 114.727C170.315 116.141 169.948 117.524 169.306 118.786C167.6 122.245 165.168 125.295 162.175 127.728C159.182 130.161 155.7 131.92 151.965 132.886C150.04 133.432 148.011 133.496 146.055 133.073C144.099 132.649 142.278 131.752 140.751 130.459V129.996C140.098 126.728 140.424 123.34 141.689 120.256C142.954 117.172 145.101 114.53 147.861 112.661C153.352 106.883 153.641 104.687 153.121 103.878C153.037 103.608 152.879 103.367 152.664 103.183C152.449 102.999 152.187 102.879 151.907 102.838L112.544 107.229Z" fill="#E5F9ED"/>
<path d="M174.855 190.728L188.15 208.063L201.676 176.571L204.682 170.215L191.387 152.417L174.855 190.266V190.728Z" fill="#E5F9ED"/>
<path d="M218.496 149.412L231.791 167.152L241.271 159.582L244.392 149.585L241.617 145.194L232.253 132.654L229.652 140.108L224.623 145.887L218.496 149.296V149.412Z" fill="#E5F9ED"/>
<path d="M205.491 133.984L215.491 129.65L222.543 127.166L229.769 111.044L216.474 93.2461L203.642 123.178L200.867 129.65V132.597L202.948 133.811L205.491 133.984Z" fill="#E5F9ED"/>
<path d="M123.179 169.867L122.081 171.89L118.613 177.09H118.555L117.052 181.655L118.035 186.856L118.497 190.092L115.896 194.83L112.023 197.199L125.376 214.997H125.434L130.809 209.161L130.52 199.742L132.139 194.657L132.081 192.056L135.202 185.989V185.931L123.179 169.867Z" fill="#E5F9ED"/>
<path d="M155.551 104.803L167.169 120.347L163.875 124.507L154.164 130.806L146.302 131.615H146.245L141.909 128.032H141.852L142.025 122.485V122.427L146.534 115.319H146.591L152.834 108.905L154.164 103.127L155.551 104.803Z" fill="#D8EDE0"/>
<path d="M208.907 150.045L206.594 151.776L220.139 169.863L222.452 168.132L208.907 150.045Z" fill="#E5F9ED"/>
<defs>
<radialGradient id="paint0_radial_223_31079" cx="0" cy="0" r="1" gradientUnits="userSpaceOnUse" gradientTransform="translate(155.5 153.5) rotate(90) scale(169.44)">
<stop stop-color="white"/>
<stop offset="1" stop-color="#F3F4F6" stop-opacity="0"/>
</radialGradient>
<linearGradient id="paint1_linear_223_31079" x1="321.642" y1="84.6016" x2="332.159" y2="85.3456" gradientUnits="userSpaceOnUse">
<stop stop-color="#3FAC6C"/>
<stop offset="0.932292" stop-color="#5CC788"/>
</linearGradient>
<linearGradient id="paint2_linear_223_31079" x1="122.817" y1="219.08" x2="247.983" y2="238.02" gradientUnits="userSpaceOnUse">
<stop stop-color="#3FAC6C"/>
<stop offset="0.932292" stop-color="#5CC788"/>
</linearGradient>
<linearGradient id="paint3_linear_223_31079" x1="274.769" y1="179.09" x2="284.529" y2="179.359" gradientUnits="userSpaceOnUse">
<stop stop-color="#3FAC6C"/>
<stop offset="0.932292" stop-color="#5CC788"/>
</linearGradient>
<linearGradient id="paint4_linear_223_31079" x1="272.445" y1="95.9933" x2="286.217" y2="96.2111" gradientUnits="userSpaceOnUse">
<stop stop-color="#3FAC6C"/>
<stop offset="0.932292" stop-color="#5CC788"/>
</linearGradient>
<linearGradient id="paint5_linear_223_31079" x1="20.1331" y1="20.2002" x2="196.688" y2="35.4532" gradientUnits="userSpaceOnUse">
<stop stop-color="#3FAC6C"/>
<stop offset="0.932292" stop-color="#5CC788"/>
</linearGradient>
<linearGradient id="paint6_linear_223_31079" x1="28.7835" y1="199.971" x2="70.6339" y2="202.264" gradientUnits="userSpaceOnUse">
<stop stop-color="#3FAC6C"/>
<stop offset="0.932292" stop-color="#5CC788"/>
</linearGradient>
<linearGradient id="paint7_linear_223_31079" x1="68.8534" y1="62.3945" x2="86.0348" y2="63.705" gradientUnits="userSpaceOnUse">
<stop stop-color="#3FAC6C"/>
<stop offset="0.932292" stop-color="#5CC788"/>
</linearGradient>
<linearGradient id="paint8_linear_223_31079" x1="40.3956" y1="83.7447" x2="63.4716" y2="84.3612" gradientUnits="userSpaceOnUse">
<stop stop-color="#3FAC6C"/>
<stop offset="0.932292" stop-color="#5CC788"/>
</linearGradient>
<linearGradient id="paint9_linear_223_31079" x1="154.357" y1="248.456" x2="205.341" y2="259.431" gradientUnits="userSpaceOnUse">
<stop stop-color="#3FAC6C"/>
<stop offset="0.932292" stop-color="#5CC788"/>
</linearGradient>
<linearGradient id="paint10_linear_223_31079" x1="224.013" y1="231.026" x2="235.816" y2="231.93" gradientUnits="userSpaceOnUse">
<stop stop-color="#3FAC6C"/>
<stop offset="0.932292" stop-color="#5CC788"/>
</linearGradient>
<linearGradient id="paint11_linear_223_31079" x1="154.227" y1="40.1689" x2="252.762" y2="47.1541" gradientUnits="userSpaceOnUse">
<stop stop-color="#3FAC6C"/>
<stop offset="0.932292" stop-color="#5CC788"/>
</linearGradient>
<linearGradient id="paint12_linear_223_31079" x1="31.5006" y1="9.01954" x2="92.8134" y2="14.8235" gradientUnits="userSpaceOnUse">
<stop stop-color="#3FAC6C"/>
<stop offset="0.932292" stop-color="#5CC788"/>
</linearGradient>
<linearGradient id="paint13_linear_223_31079" x1="-0.104941" y1="116.655" x2="36.9457" y2="117.445" gradientUnits="userSpaceOnUse">
<stop stop-color="#3FAC6C"/>
<stop offset="0.932292" stop-color="#5CC788"/>
</linearGradient>
<linearGradient id="paint14_linear_223_31079" x1="49.0571" y1="265.32" x2="75.5782" y2="267.775" gradientUnits="userSpaceOnUse">
<stop stop-color="#3FAC6C"/>
<stop offset="0.932292" stop-color="#5CC788"/>
</linearGradient>
<linearGradient id="paint15_linear_223_31079" x1="88.855" y1="292.093" x2="141.607" y2="306.62" gradientUnits="userSpaceOnUse">
<stop stop-color="#3FAC6C"/>
<stop offset="0.932292" stop-color="#5CC788"/>
</linearGradient>
<linearGradient id="paint16_linear_223_31079" x1="177.44" y1="296.617" x2="203.007" y2="301.875" gradientUnits="userSpaceOnUse">
<stop stop-color="#3FAC6C"/>
<stop offset="0.932292" stop-color="#5CC788"/>
</linearGradient>
<linearGradient id="paint17_linear_223_31079" x1="224.265" y1="248.392" x2="268.236" y2="252.078" gradientUnits="userSpaceOnUse">
<stop stop-color="#3FAC6C"/>
<stop offset="0.932292" stop-color="#5CC788"/>
</linearGradient>
<linearGradient id="paint18_linear_223_31079" x1="304.9" y1="132.941" x2="308.466" y2="132.989" gradientUnits="userSpaceOnUse">
<stop stop-color="#3FAC6C"/>
<stop offset="0.932292" stop-color="#5CC788"/>
</linearGradient>
<linearGradient id="paint19_linear_223_31079" x1="290.654" y1="86.3813" x2="303.717" y2="86.7599" gradientUnits="userSpaceOnUse">
<stop stop-color="#3FAC6C"/>
<stop offset="0.932292" stop-color="#5CC788"/>
</linearGradient>
<linearGradient id="paint20_linear_223_31079" x1="115.182" y1="-0.220576" x2="261.382" y2="22.4673" gradientUnits="userSpaceOnUse">
<stop stop-color="#3FAC6C"/>
<stop offset="0.932292" stop-color="#5CC788"/>
</linearGradient>
<linearGradient id="paint21_linear_223_31079" x1="69.6039" y1="93.1122" x2="207.997" y2="107.542" gradientUnits="userSpaceOnUse">
<stop stop-color="#3FAC6C"/>
<stop offset="0.932292" stop-color="#5CC788"/>
</linearGradient>
</defs>
</svg>
